<svg width="100" height="100" viewBox="0 0 100 100" fill="none" xmlns="http://www.w3.org/2000/svg">
<g clip-path="url(#clip0_8_20)">
<path d="M26.7837 25.842C32.9044 14.9862 48.5377 14.9862 54.6584 25.842L72.9272 58.2439C78.9408 68.9097 71.2342 82.102 58.9899 82.102H22.4523C10.208 82.102 2.50135 68.9097 8.51495 58.2439L26.7837 25.842Z" fill="#92F2FF"/>
<path d="M36.0627 20.7808C42.1834 9.92497 57.8167 9.92496 63.9374 20.7808L82.2062 53.1827C88.2198 63.8485 80.5131 77.0408 68.2688 77.0408H31.7312C19.4869 77.0408 11.7803 63.8485 17.7939 53.1827L36.0627 20.7808Z" fill="#FF7EF0"/>
<path d="M45.3416 15.7196C51.4623 4.86375 67.0956 4.86374 73.2163 15.7196L91.4851 48.1214C97.4987 58.7873 89.7921 71.9796 77.5477 71.9796H41.0101C28.7658 71.9796 21.0592 58.7873 27.0728 48.1215L45.3416 15.7196Z" fill="black"/>
</g>
<defs>
<clipPath id="clip0_8_20">
<rect width="100" height="100" fill="white"/>
</clipPath>
</defs>
</svg>
