<svg width="324" height="135" viewBox="0 0 324 135" fill="none" xmlns="http://www.w3.org/2000/svg">
<g filter="url(#filter0_f_2074_9042)">
<path d="M45.5627 47.7196C51.6834 36.8637 67.3167 36.8637 73.4374 47.7196L100.175 95.1419C106.189 105.808 98.482 119 86.2376 119H32.7625C20.5182 119 12.8115 105.808 18.8251 95.1419L45.5627 47.7196Z" fill="#3B82F6"/>
</g>
<g filter="url(#filter1_f_2074_9042)">
<path d="M60.5627 39.7196C66.6834 28.8637 82.3167 28.8637 88.4374 39.7196L115.175 87.1419C121.189 97.8077 113.482 111 101.238 111H47.7625C35.5182 111 27.8115 97.8077 33.8251 87.1419L60.5627 39.7196Z" fill="#F43F5E"/>
</g>
<g filter="url(#filter2_f_2074_9042)">
<path d="M77.2627 31.7196C83.3834 20.8637 99.0166 20.8637 105.137 31.7196L131.875 79.1419C137.889 89.8077 130.182 103 117.938 103H64.4624C52.2181 103 44.5115 89.8077 50.5251 79.1419L77.2627 31.7196Z" fill="black"/>
</g>
<path d="M278.038 87L266.446 48.552H275.878L283.366 76.56L291.07 48.552H299.134L306.91 76.56L314.398 48.552H323.83L312.238 87H302.734L295.102 61.224L287.542 87H278.038Z" fill="white"/>
<path d="M248.934 87.864C245.142 87.864 241.806 87.048 238.926 85.416C236.094 83.736 233.886 81.384 232.302 78.36C230.766 75.336 229.998 71.808 229.998 67.776C229.998 63.696 230.766 60.168 232.302 57.192C233.886 54.168 236.094 51.84 238.926 50.208C241.806 48.528 245.142 47.688 248.934 47.688C252.726 47.688 256.038 48.528 258.87 50.208C261.702 51.84 263.886 54.168 265.422 57.192C267.006 60.168 267.798 63.696 267.798 67.776C267.798 71.808 267.006 75.336 265.422 78.36C263.886 81.384 261.702 83.736 258.87 85.416C256.038 87.048 252.726 87.864 248.934 87.864ZM248.934 80.376C251.91 80.376 254.19 79.272 255.774 77.064C257.406 74.856 258.222 71.76 258.222 67.776C258.222 63.84 257.406 60.768 255.774 58.56C254.19 56.304 251.91 55.176 248.934 55.176C245.958 55.176 243.654 56.304 242.022 58.56C240.39 60.768 239.574 63.84 239.574 67.776C239.574 71.76 240.39 74.856 242.022 77.064C243.654 79.272 245.958 80.376 248.934 80.376Z" fill="white"/>
<path d="M205.494 87.864C202.23 87.864 199.398 87.048 196.998 85.416C194.646 83.784 192.822 81.456 191.526 78.432C190.23 75.408 189.582 71.856 189.582 67.776C189.582 63.696 190.23 60.144 191.526 57.12C192.822 54.096 194.67 51.768 197.07 50.136C199.47 48.504 202.278 47.688 205.494 47.688C208.182 47.688 210.534 48.24 212.55 49.344C214.614 50.448 216.174 52.008 217.23 54.024V35.88H226.446V87H217.662L217.446 81.312C216.39 83.376 214.806 84.984 212.694 86.136C210.582 87.288 208.182 87.864 205.494 87.864ZM208.302 80.376C210.222 80.376 211.83 79.896 213.126 78.936C214.47 77.976 215.478 76.56 216.15 74.688C216.87 72.768 217.23 70.464 217.23 67.776C217.23 65.04 216.87 62.736 216.15 60.864C215.478 58.992 214.47 57.576 213.126 56.616C211.83 55.656 210.222 55.176 208.302 55.176C205.518 55.176 203.286 56.304 201.606 58.56C199.974 60.768 199.158 63.84 199.158 67.776C199.158 71.616 199.974 74.688 201.606 76.992C203.286 79.248 205.518 80.376 208.302 80.376Z" fill="white"/>
<path d="M165.371 87.864C161.339 87.864 158.099 86.952 155.651 85.128C153.203 83.256 151.979 80.664 151.979 77.352C151.979 74.04 153.011 71.448 155.075 69.576C157.139 67.704 160.283 66.36 164.507 65.544L177.251 63.024C177.251 60.288 176.627 58.248 175.379 56.904C174.131 55.512 172.283 54.816 169.835 54.816C167.627 54.816 165.875 55.344 164.579 56.4C163.331 57.408 162.467 58.872 161.987 60.792L152.627 60.36C153.395 56.28 155.267 53.16 158.243 51C161.219 48.792 165.083 47.688 169.835 47.688C175.307 47.688 179.435 49.08 182.219 51.864C185.051 54.6 186.467 58.536 186.467 63.672V77.64C186.467 78.648 186.635 79.344 186.971 79.728C187.355 80.112 187.907 80.304 188.627 80.304H189.851V87C189.563 87.096 189.083 87.168 188.411 87.216C187.787 87.264 187.139 87.288 186.467 87.288C184.883 87.288 183.467 87.048 182.219 86.568C180.971 86.04 180.011 85.152 179.339 83.904C178.667 82.608 178.331 80.856 178.331 78.648L179.123 79.224C178.739 80.904 177.899 82.416 176.603 83.76C175.355 85.056 173.771 86.064 171.851 86.784C169.931 87.504 167.771 87.864 165.371 87.864ZM167.243 81.168C169.307 81.168 171.083 80.76 172.571 79.944C174.059 79.128 175.211 78 176.027 76.56C176.843 75.12 177.251 73.416 177.251 71.448V69.288L167.315 71.304C165.251 71.736 163.763 72.384 162.851 73.248C161.987 74.064 161.555 75.144 161.555 76.488C161.555 77.976 162.035 79.128 162.995 79.944C164.003 80.76 165.419 81.168 167.243 81.168Z" fill="white"/>
<path d="M115.413 87V35.88H124.629V57.336H123.477C123.861 55.128 124.629 53.328 125.781 51.936C126.933 50.496 128.349 49.44 130.029 48.768C131.709 48.048 133.557 47.688 135.573 47.688C138.405 47.688 140.781 48.312 142.701 49.56C144.669 50.76 146.133 52.464 147.093 54.672C148.101 56.88 148.605 59.424 148.605 62.304V87H139.389V64.536C139.389 61.416 138.861 59.088 137.805 57.552C136.749 55.968 135.093 55.176 132.837 55.176C130.341 55.176 128.349 55.992 126.861 57.624C125.373 59.256 124.629 61.632 124.629 64.752V87H115.413Z" fill="white"/>
<path d="M95.332 87.864C91.54 87.864 88.3479 87.312 85.756 86.208C83.212 85.104 81.244 83.568 79.852 81.6C78.46 79.632 77.668 77.4 77.476 74.904L86.908 74.472C87.244 76.488 88.084 78.048 89.428 79.152C90.772 80.256 92.764 80.808 95.404 80.808C97.564 80.808 99.244 80.472 100.444 79.8C101.692 79.08 102.316 77.976 102.316 76.488C102.316 75.624 102.1 74.904 101.668 74.328C101.236 73.752 100.42 73.248 99.22 72.816C98.02 72.384 96.244 71.952 93.892 71.52C89.956 70.848 86.86 70.032 84.604 69.072C82.348 68.064 80.74 66.816 79.78 65.328C78.868 63.84 78.412 61.992 78.412 59.784C78.412 56.184 79.78 53.28 82.516 51.072C85.3 48.816 89.356 47.688 94.684 47.688C98.14 47.688 101.044 48.264 103.396 49.416C105.748 50.52 107.572 52.056 108.868 54.024C110.212 55.944 111.052 58.152 111.388 60.648L102.1 61.08C101.86 59.784 101.428 58.656 100.804 57.696C100.18 56.736 99.34 56.016 98.284 55.536C97.228 55.008 95.98 54.744 94.54 54.744C92.38 54.744 90.748 55.176 89.644 56.04C88.54 56.904 87.988 58.056 87.988 59.496C87.988 60.504 88.228 61.344 88.708 62.016C89.236 62.688 90.076 63.24 91.228 63.672C92.38 64.056 93.916 64.416 95.836 64.752C99.868 65.376 103.036 66.192 105.34 67.2C107.692 68.16 109.348 69.408 110.308 70.944C111.316 72.432 111.82 74.232 111.82 76.344C111.82 78.792 111.124 80.88 109.732 82.608C108.388 84.336 106.468 85.656 103.972 86.568C101.524 87.432 98.644 87.864 95.332 87.864Z" fill="white"/>
<defs>
<filter id="filter0_f_2074_9042" x="0.739136" y="23.5777" width="117.522" height="111.422" filterUnits="userSpaceOnUse" color-interpolation-filters="sRGB">
<feFlood flood-opacity="0" result="BackgroundImageFix"/>
<feBlend mode="normal" in="SourceGraphic" in2="BackgroundImageFix" result="shape"/>
<feGaussianBlur stdDeviation="8" result="effect1_foregroundBlur_2074_9042"/>
</filter>
<filter id="filter1_f_2074_9042" x="19.7391" y="19.5777" width="109.522" height="103.422" filterUnits="userSpaceOnUse" color-interpolation-filters="sRGB">
<feFlood flood-opacity="0" result="BackgroundImageFix"/>
<feBlend mode="normal" in="SourceGraphic" in2="BackgroundImageFix" result="shape"/>
<feGaussianBlur stdDeviation="6" result="effect1_foregroundBlur_2074_9042"/>
</filter>
<filter id="filter2_f_2074_9042" x="40.4391" y="15.5777" width="101.522" height="95.4223" filterUnits="userSpaceOnUse" color-interpolation-filters="sRGB">
<feFlood flood-opacity="0" result="BackgroundImageFix"/>
<feBlend mode="normal" in="SourceGraphic" in2="BackgroundImageFix" result="shape"/>
<feGaussianBlur stdDeviation="4" result="effect1_foregroundBlur_2074_9042"/>
</filter>
</defs>
</svg>
