<svg width="523" height="91" viewBox="0 0 523 91" fill="none" xmlns="http://www.w3.org/2000/svg">
<rect x="1" y="1" width="521" height="89" rx="9" fill="black" stroke="url(#paint0_linear_9_47)" stroke-width="2"/>
<path d="M29.096 71.224C28.6693 71.224 28.3387 71.1067 28.104 70.872C27.8907 70.616 27.784 70.2747 27.784 69.848V49.784C27.784 49.336 27.9013 49.0053 28.136 48.792C28.3707 48.5573 28.7013 48.44 29.128 48.44H36.712C39.1227 48.44 40.9787 49.0373 42.28 50.232C43.5813 51.4053 44.232 53.0693 44.232 55.224C44.232 57.3573 43.5813 59.0213 42.28 60.216C40.9787 61.4107 39.1227 62.008 36.712 62.008H30.408V69.848C30.408 70.2747 30.3013 70.616 30.088 70.872C29.8747 71.1067 29.544 71.224 29.096 71.224ZM30.408 59.8H36.392C38.12 59.8 39.4213 59.416 40.296 58.648C41.192 57.8587 41.64 56.7173 41.64 55.224C41.64 53.7093 41.192 52.568 40.296 51.8C39.4213 51.0107 38.12 50.616 36.392 50.616H30.408V59.8ZM48.6815 71.224C48.2548 71.224 47.9242 71.1067 47.6895 70.872C47.4762 70.6373 47.3695 70.3067 47.3695 69.88V56.536C47.3695 56.1093 47.4762 55.7893 47.6895 55.576C47.9028 55.3413 48.2122 55.224 48.6175 55.224C49.0228 55.224 49.3322 55.3413 49.5455 55.576C49.7802 55.7893 49.8975 56.1093 49.8975 56.536V59.128H49.5775C49.9188 57.8693 50.5695 56.8987 51.5295 56.216C52.4895 55.5333 53.6735 55.1707 55.0815 55.128C55.4015 55.1067 55.6575 55.1813 55.8495 55.352C56.0415 55.5013 56.1482 55.768 56.1695 56.152C56.1908 56.5147 56.1055 56.8027 55.9135 57.016C55.7215 57.2293 55.4228 57.3573 55.0175 57.4L54.5055 57.464C53.0548 57.592 51.9348 58.0613 51.1455 58.872C50.3775 59.6613 49.9935 60.7493 49.9935 62.136V69.88C49.9935 70.3067 49.8762 70.6373 49.6415 70.872C49.4282 71.1067 49.1082 71.224 48.6815 71.224ZM65.6588 71.288C64.0161 71.288 62.5974 70.968 61.4028 70.328C60.2294 69.6667 59.3121 68.7387 58.6508 67.544C58.0108 66.3493 57.6908 64.92 57.6908 63.256C57.6908 61.6347 58.0108 60.2267 58.6508 59.032C59.2908 57.816 60.1654 56.8667 61.2748 56.184C62.4054 55.5013 63.7068 55.16 65.1788 55.16C66.2241 55.16 67.1628 55.3413 67.9948 55.704C68.8268 56.0453 69.5308 56.5467 70.1068 57.208C70.7041 57.8693 71.1521 58.6693 71.4508 59.608C71.7708 60.5467 71.9308 61.6027 71.9308 62.776C71.9308 63.1173 71.8348 63.3733 71.6428 63.544C71.4508 63.6933 71.1734 63.768 70.8108 63.768H59.6748V62.072H70.2028L69.6908 62.488C69.6908 61.336 69.5201 60.3653 69.1788 59.576C68.8374 58.7653 68.3361 58.1467 67.6748 57.72C67.0348 57.2933 66.2241 57.08 65.2428 57.08C64.1548 57.08 63.2268 57.336 62.4588 57.848C61.7121 58.3387 61.1468 59.032 60.7628 59.928C60.3788 60.8027 60.1868 61.8267 60.1868 63V63.192C60.1868 65.1547 60.6561 66.648 61.5948 67.672C62.5548 68.696 63.9094 69.208 65.6588 69.208C66.3841 69.208 67.0988 69.112 67.8028 68.92C68.5281 68.728 69.2321 68.408 69.9148 67.96C70.2134 67.768 70.4801 67.6827 70.7148 67.704C70.9708 67.704 71.1734 67.7787 71.3228 67.928C71.4721 68.056 71.5681 68.2267 71.6108 68.44C71.6748 68.632 71.6534 68.8453 71.5468 69.08C71.4614 69.3147 71.2801 69.5173 71.0028 69.688C70.2988 70.2 69.4668 70.5947 68.5068 70.872C67.5468 71.1493 66.5974 71.288 65.6588 71.288ZM76.962 76.984C76.5353 76.984 76.2153 76.8667 76.002 76.632C75.7887 76.4187 75.682 76.0987 75.682 75.672V56.536C75.682 56.1093 75.7887 55.7893 76.002 55.576C76.2153 55.3413 76.5247 55.224 76.93 55.224C77.3567 55.224 77.6767 55.3413 77.89 55.576C78.1247 55.7893 78.242 56.1093 78.242 56.536V59.576L77.89 59.128C78.2313 57.912 78.9033 56.952 79.906 56.248C80.93 55.5227 82.146 55.16 83.554 55.16C84.9407 55.16 86.146 55.4907 87.17 56.152C88.2153 56.792 89.0153 57.72 89.57 58.936C90.146 60.1307 90.434 61.56 90.434 63.224C90.434 64.8667 90.146 66.296 89.57 67.512C89.0153 68.7067 88.226 69.6347 87.202 70.296C86.178 70.9573 84.962 71.288 83.554 71.288C82.146 71.288 80.9407 70.936 79.938 70.232C78.9353 69.5067 78.2527 68.5467 77.89 67.352H78.274V75.672C78.274 76.0987 78.1567 76.4187 77.922 76.632C77.6873 76.8667 77.3673 76.984 76.962 76.984ZM83.01 69.208C83.9913 69.208 84.834 68.9733 85.538 68.504C86.2633 68.0347 86.818 67.352 87.202 66.456C87.6073 65.56 87.81 64.4827 87.81 63.224C87.81 61.2827 87.3727 59.8 86.498 58.776C85.6447 57.752 84.482 57.24 83.01 57.24C82.05 57.24 81.2073 57.4747 80.482 57.944C79.7567 58.392 79.1913 59.064 78.786 59.96C78.402 60.8347 78.21 61.9227 78.21 63.224C78.21 65.144 78.6473 66.6267 79.522 67.672C80.3967 68.696 81.5593 69.208 83.01 69.208ZM99.2343 71.288C98.1676 71.288 97.2076 71.0853 96.3543 70.68C95.5223 70.2533 94.8609 69.6773 94.3703 68.952C93.8796 68.2267 93.6343 67.416 93.6343 66.52C93.6343 65.368 93.9223 64.4613 94.4983 63.8C95.0956 63.1387 96.0663 62.6693 97.4103 62.392C98.7756 62.1147 100.632 61.976 102.978 61.976H104.418V63.672H103.01C101.282 63.672 99.9169 63.7573 98.9143 63.928C97.9329 64.0773 97.2396 64.344 96.8343 64.728C96.4503 65.112 96.2583 65.656 96.2583 66.36C96.2583 67.2347 96.5569 67.9493 97.1543 68.504C97.7729 69.0587 98.6049 69.336 99.6503 69.336C100.504 69.336 101.25 69.1333 101.89 68.728C102.552 68.3227 103.064 67.768 103.426 67.064C103.81 66.36 104.002 65.5493 104.002 64.632V60.984C104.002 59.6613 103.736 58.712 103.202 58.136C102.669 57.5387 101.794 57.24 100.578 57.24C99.8316 57.24 99.0849 57.336 98.3383 57.528C97.5916 57.72 96.8023 58.0293 95.9703 58.456C95.6716 58.6053 95.4156 58.6587 95.2023 58.616C94.9889 58.552 94.8183 58.4347 94.6903 58.264C94.5623 58.0933 94.4876 57.9013 94.4663 57.688C94.4449 57.4533 94.4876 57.2293 94.5943 57.016C94.7223 56.8027 94.9143 56.632 95.1703 56.504C96.1089 56.0347 97.0369 55.6933 97.9543 55.48C98.8716 55.2667 99.7463 55.16 100.578 55.16C101.922 55.16 103.032 55.384 103.906 55.832C104.781 56.2587 105.432 56.92 105.858 57.816C106.285 58.6907 106.498 59.8213 106.498 61.208V69.88C106.498 70.3067 106.392 70.6373 106.178 70.872C105.986 71.1067 105.698 71.224 105.314 71.224C104.909 71.224 104.6 71.1067 104.386 70.872C104.173 70.6373 104.066 70.3067 104.066 69.88V67.384H104.354C104.184 68.1947 103.853 68.888 103.362 69.464C102.893 70.04 102.306 70.488 101.602 70.808C100.898 71.128 100.109 71.288 99.2343 71.288ZM112.619 71.224C112.192 71.224 111.862 71.1067 111.627 70.872C111.414 70.6373 111.307 70.3067 111.307 69.88V56.536C111.307 56.1093 111.414 55.7893 111.627 55.576C111.84 55.3413 112.15 55.224 112.555 55.224C112.96 55.224 113.27 55.3413 113.483 55.576C113.718 55.7893 113.835 56.1093 113.835 56.536V59.128H113.515C113.856 57.8693 114.507 56.8987 115.467 56.216C116.427 55.5333 117.611 55.1707 119.019 55.128C119.339 55.1067 119.595 55.1813 119.787 55.352C119.979 55.5013 120.086 55.768 120.107 56.152C120.128 56.5147 120.043 56.8027 119.851 57.016C119.659 57.2293 119.36 57.3573 118.955 57.4L118.443 57.464C116.992 57.592 115.872 58.0613 115.083 58.872C114.315 59.6613 113.931 60.7493 113.931 62.136V69.88C113.931 70.3067 113.814 70.6373 113.579 70.872C113.366 71.1067 113.046 71.224 112.619 71.224ZM129.596 71.288C127.954 71.288 126.535 70.968 125.34 70.328C124.167 69.6667 123.25 68.7387 122.588 67.544C121.948 66.3493 121.628 64.92 121.628 63.256C121.628 61.6347 121.948 60.2267 122.588 59.032C123.228 57.816 124.103 56.8667 125.212 56.184C126.343 55.5013 127.644 55.16 129.116 55.16C130.162 55.16 131.1 55.3413 131.932 55.704C132.764 56.0453 133.468 56.5467 134.044 57.208C134.642 57.8693 135.09 58.6693 135.388 59.608C135.708 60.5467 135.868 61.6027 135.868 62.776C135.868 63.1173 135.772 63.3733 135.58 63.544C135.388 63.6933 135.111 63.768 134.748 63.768H123.612V62.072H134.14L133.628 62.488C133.628 61.336 133.458 60.3653 133.116 59.576C132.775 58.7653 132.274 58.1467 131.612 57.72C130.972 57.2933 130.162 57.08 129.18 57.08C128.092 57.08 127.164 57.336 126.396 57.848C125.65 58.3387 125.084 59.032 124.7 59.928C124.316 60.8027 124.124 61.8267 124.124 63V63.192C124.124 65.1547 124.594 66.648 125.532 67.672C126.492 68.696 127.847 69.208 129.596 69.208C130.322 69.208 131.036 69.112 131.74 68.92C132.466 68.728 133.17 68.408 133.852 67.96C134.151 67.768 134.418 67.6827 134.652 67.704C134.908 67.704 135.111 67.7787 135.26 67.928C135.41 68.056 135.506 68.2267 135.548 68.44C135.612 68.632 135.591 68.8453 135.484 69.08C135.399 69.3147 135.218 69.5173 134.94 69.688C134.236 70.2 133.404 70.5947 132.444 70.872C131.484 71.1493 130.535 71.288 129.596 71.288ZM155.07 71.224C154.664 71.224 154.344 71.1067 154.11 70.872C153.875 70.616 153.758 70.2747 153.758 69.848V50.712H146.558C146.174 50.712 145.875 50.6053 145.662 50.392C145.448 50.1787 145.341 49.9013 145.341 49.56C145.341 49.1973 145.448 48.92 145.662 48.728C145.875 48.536 146.174 48.44 146.558 48.44H163.614C163.998 48.44 164.296 48.536 164.51 48.728C164.723 48.92 164.83 49.1973 164.83 49.56C164.83 49.9227 164.723 50.2107 164.51 50.424C164.296 50.616 163.998 50.712 163.614 50.712H156.414V69.848C156.414 70.2747 156.296 70.616 156.062 70.872C155.848 71.1067 155.518 71.224 155.07 71.224ZM171.146 71.288C169.631 71.288 168.319 70.9573 167.21 70.296C166.101 69.6347 165.237 68.7067 164.618 67.512C164.021 66.296 163.722 64.8667 163.722 63.224C163.722 61.9867 163.893 60.8773 164.234 59.896C164.575 58.8933 165.077 58.04 165.738 57.336C166.399 56.632 167.178 56.0987 168.074 55.736C168.991 55.352 170.015 55.16 171.146 55.16C172.661 55.16 173.973 55.4907 175.082 56.152C176.191 56.8133 177.045 57.752 177.642 58.968C178.261 60.1627 178.57 61.5813 178.57 63.224C178.57 64.4613 178.399 65.5707 178.058 66.552C177.717 67.5333 177.215 68.3867 176.554 69.112C175.893 69.816 175.103 70.36 174.186 70.744C173.29 71.1067 172.277 71.288 171.146 71.288ZM171.146 69.208C172.106 69.208 172.949 68.9733 173.674 68.504C174.399 68.0347 174.954 67.352 175.338 66.456C175.743 65.56 175.946 64.4827 175.946 63.224C175.946 61.2827 175.509 59.8 174.634 58.776C173.781 57.752 172.618 57.24 171.146 57.24C170.165 57.24 169.311 57.4747 168.586 57.944C167.882 58.392 167.327 59.064 166.922 59.96C166.538 60.8347 166.346 61.9227 166.346 63.224C166.346 65.144 166.783 66.6267 167.658 67.672C168.533 68.696 169.695 69.208 171.146 69.208ZM183.807 71.224C183.381 71.224 183.061 71.1067 182.847 70.872C182.634 70.6373 182.527 70.3067 182.527 69.88V56.536C182.527 56.1093 182.634 55.7893 182.847 55.576C183.061 55.3413 183.37 55.224 183.775 55.224C184.181 55.224 184.49 55.3413 184.703 55.576C184.938 55.7893 185.055 56.1093 185.055 56.536V59.352L184.703 58.904C185.109 57.7093 185.759 56.792 186.655 56.152C187.573 55.4907 188.661 55.16 189.919 55.16C191.242 55.16 192.309 55.48 193.119 56.12C193.951 56.7387 194.506 57.7093 194.783 59.032H194.303C194.687 57.8373 195.37 56.8987 196.351 56.216C197.354 55.512 198.517 55.16 199.839 55.16C201.013 55.16 201.973 55.384 202.719 55.832C203.487 56.28 204.063 56.9627 204.447 57.88C204.831 58.776 205.023 59.9173 205.023 61.304V69.88C205.023 70.3067 204.906 70.6373 204.671 70.872C204.458 71.1067 204.138 71.224 203.711 71.224C203.306 71.224 202.986 71.1067 202.751 70.872C202.538 70.6373 202.431 70.3067 202.431 69.88V61.432C202.431 60.0027 202.186 58.9573 201.695 58.296C201.205 57.6133 200.373 57.272 199.199 57.272C197.919 57.272 196.906 57.72 196.159 58.616C195.434 59.4907 195.071 60.6853 195.071 62.2V69.88C195.071 70.3067 194.954 70.6373 194.719 70.872C194.506 71.1067 194.186 71.224 193.759 71.224C193.354 71.224 193.034 71.1067 192.799 70.872C192.586 70.6373 192.479 70.3067 192.479 69.88V61.432C192.479 60.0027 192.223 58.9573 191.711 58.296C191.221 57.6133 190.399 57.272 189.247 57.272C187.967 57.272 186.954 57.72 186.207 58.616C185.482 59.4907 185.119 60.6853 185.119 62.2V69.88C185.119 70.776 184.682 71.224 183.807 71.224ZM210.812 54.744C210.598 55.0213 210.374 55.1813 210.14 55.224C209.905 55.2453 209.702 55.2027 209.532 55.096C209.361 54.968 209.265 54.7867 209.244 54.552C209.244 54.3173 209.35 54.0613 209.564 53.784C209.905 53.336 210.14 52.888 210.268 52.44C210.396 51.9707 210.46 51.5547 210.46 51.192L210.588 51.832C210.033 51.832 209.585 51.672 209.244 51.352C208.924 51.0107 208.764 50.584 208.764 50.072C208.764 49.5387 208.913 49.112 209.212 48.792C209.532 48.472 209.948 48.312 210.46 48.312C211.014 48.312 211.452 48.504 211.772 48.888C212.092 49.2507 212.252 49.784 212.252 50.488C212.252 50.936 212.209 51.4053 212.124 51.896C212.038 52.3653 211.889 52.8453 211.676 53.336C211.462 53.8267 211.174 54.296 210.812 54.744ZM220.868 71.288C219.908 71.288 218.937 71.1707 217.956 70.936C216.996 70.7013 216.1 70.296 215.268 69.72C215.054 69.5707 214.905 69.4 214.82 69.208C214.734 68.9947 214.702 68.792 214.724 68.6C214.766 68.3867 214.852 68.2053 214.98 68.056C215.129 67.9067 215.3 67.8213 215.492 67.8C215.705 67.7573 215.94 67.8 216.196 67.928C217.028 68.44 217.828 68.8027 218.596 69.016C219.385 69.208 220.164 69.304 220.932 69.304C222.148 69.304 223.065 69.08 223.684 68.632C224.302 68.184 224.612 67.576 224.612 66.808C224.612 66.2107 224.409 65.7413 224.004 65.4C223.598 65.0373 222.958 64.76 222.084 64.568L219.172 63.928C217.828 63.6507 216.825 63.1707 216.164 62.488C215.524 61.8053 215.204 60.92 215.204 59.832C215.204 58.872 215.449 58.0507 215.94 57.368C216.452 56.664 217.166 56.12 218.084 55.736C219.001 55.352 220.068 55.16 221.284 55.16C222.222 55.16 223.108 55.288 223.94 55.544C224.793 55.7787 225.561 56.1627 226.244 56.696C226.457 56.8453 226.596 57.0267 226.66 57.24C226.745 57.432 226.756 57.6347 226.692 57.848C226.649 58.04 226.553 58.2107 226.404 58.36C226.254 58.488 226.073 58.5627 225.86 58.584C225.646 58.6053 225.422 58.5413 225.188 58.392C224.548 57.9653 223.897 57.656 223.236 57.464C222.574 57.2507 221.924 57.144 221.284 57.144C220.089 57.144 219.182 57.3787 218.564 57.848C217.945 58.3173 217.636 58.936 217.636 59.704C217.636 60.3013 217.828 60.792 218.212 61.176C218.596 61.56 219.193 61.8373 220.004 62.008L222.916 62.616C224.302 62.9147 225.337 63.3947 226.02 64.056C226.724 64.696 227.076 65.5707 227.076 66.68C227.076 68.088 226.51 69.208 225.38 70.04C224.249 70.872 222.745 71.288 220.868 71.288ZM244.652 71.224C244.289 71.224 243.969 71.128 243.692 70.936C243.414 70.744 243.19 70.4347 243.02 70.008L238.252 57.048C238.124 56.6853 238.081 56.3653 238.124 56.088C238.188 55.8107 238.326 55.5973 238.54 55.448C238.753 55.2987 239.02 55.224 239.34 55.224C239.66 55.224 239.916 55.2987 240.108 55.448C240.321 55.5973 240.492 55.8747 240.62 56.28L245.1 69.08H244.332L248.94 56.28C249.089 55.896 249.27 55.6293 249.484 55.48C249.718 55.3093 250.017 55.224 250.38 55.224C250.721 55.224 251.009 55.3093 251.244 55.48C251.478 55.6507 251.66 55.9173 251.788 56.28L256.3 69.08H255.564L260.108 56.216C260.257 55.832 260.438 55.576 260.652 55.448C260.865 55.2987 261.121 55.224 261.42 55.224C261.761 55.224 262.017 55.3093 262.188 55.48C262.38 55.6507 262.486 55.8747 262.508 56.152C262.529 56.4293 262.476 56.728 262.348 57.048L257.58 70.008C257.43 70.4133 257.206 70.7227 256.908 70.936C256.63 71.128 256.31 71.224 255.948 71.224C255.585 71.224 255.265 71.128 254.988 70.936C254.71 70.7227 254.497 70.4133 254.348 70.008L249.612 57.016H250.988L246.284 70.008C246.134 70.4133 245.921 70.7227 245.644 70.936C245.366 71.128 245.036 71.224 244.652 71.224ZM272.971 71.288C271.329 71.288 269.91 70.968 268.715 70.328C267.542 69.6667 266.625 68.7387 265.963 67.544C265.323 66.3493 265.003 64.92 265.003 63.256C265.003 61.6347 265.323 60.2267 265.963 59.032C266.603 57.816 267.478 56.8667 268.587 56.184C269.718 55.5013 271.019 55.16 272.491 55.16C273.537 55.16 274.475 55.3413 275.307 55.704C276.139 56.0453 276.843 56.5467 277.419 57.208C278.017 57.8693 278.465 58.6693 278.763 59.608C279.083 60.5467 279.243 61.6027 279.243 62.776C279.243 63.1173 279.147 63.3733 278.955 63.544C278.763 63.6933 278.486 63.768 278.123 63.768H266.987V62.072H277.515L277.003 62.488C277.003 61.336 276.833 60.3653 276.491 59.576C276.15 58.7653 275.649 58.1467 274.987 57.72C274.347 57.2933 273.537 57.08 272.555 57.08C271.467 57.08 270.539 57.336 269.771 57.848C269.025 58.3387 268.459 59.032 268.075 59.928C267.691 60.8027 267.499 61.8267 267.499 63V63.192C267.499 65.1547 267.969 66.648 268.907 67.672C269.867 68.696 271.222 69.208 272.971 69.208C273.697 69.208 274.411 69.112 275.115 68.92C275.841 68.728 276.545 68.408 277.227 67.96C277.526 67.768 277.793 67.6827 278.027 67.704C278.283 67.704 278.486 67.7787 278.635 67.928C278.785 68.056 278.881 68.2267 278.923 68.44C278.987 68.632 278.966 68.8453 278.859 69.08C278.774 69.3147 278.593 69.5173 278.315 69.688C277.611 70.2 276.779 70.5947 275.819 70.872C274.859 71.1493 273.91 71.288 272.971 71.288ZM290.003 71.288C288.36 71.288 286.941 70.968 285.747 70.328C284.573 69.6667 283.656 68.7387 282.995 67.544C282.355 66.3493 282.035 64.92 282.035 63.256C282.035 61.6347 282.355 60.2267 282.995 59.032C283.635 57.816 284.509 56.8667 285.619 56.184C286.749 55.5013 288.051 55.16 289.523 55.16C290.568 55.16 291.507 55.3413 292.339 55.704C293.171 56.0453 293.875 56.5467 294.451 57.208C295.048 57.8693 295.496 58.6693 295.795 59.608C296.115 60.5467 296.275 61.6027 296.275 62.776C296.275 63.1173 296.179 63.3733 295.987 63.544C295.795 63.6933 295.517 63.768 295.155 63.768H284.019V62.072H294.547L294.035 62.488C294.035 61.336 293.864 60.3653 293.523 59.576C293.181 58.7653 292.68 58.1467 292.019 57.72C291.379 57.2933 290.568 57.08 289.587 57.08C288.499 57.08 287.571 57.336 286.803 57.848C286.056 58.3387 285.491 59.032 285.107 59.928C284.723 60.8027 284.531 61.8267 284.531 63V63.192C284.531 65.1547 285 66.648 285.939 67.672C286.899 68.696 288.253 69.208 290.003 69.208C290.728 69.208 291.443 69.112 292.147 68.92C292.872 68.728 293.576 68.408 294.259 67.96C294.557 67.768 294.824 67.6827 295.059 67.704C295.315 67.704 295.517 67.7787 295.667 67.928C295.816 68.056 295.912 68.2267 295.955 68.44C296.019 68.632 295.997 68.8453 295.891 69.08C295.805 69.3147 295.624 69.5173 295.347 69.688C294.643 70.2 293.811 70.5947 292.851 70.872C291.891 71.1493 290.941 71.288 290.003 71.288ZM301.306 71.224C300.879 71.224 300.559 71.1067 300.346 70.872C300.132 70.6373 300.026 70.3067 300.026 69.88V49.528C300.026 49.1013 300.132 48.7813 300.346 48.568C300.559 48.3333 300.879 48.216 301.306 48.216C301.711 48.216 302.031 48.3333 302.266 48.568C302.5 48.7813 302.618 49.1013 302.618 49.528V62.36H302.682L309.242 56.088C309.54 55.8107 309.796 55.5973 310.01 55.448C310.244 55.2987 310.554 55.224 310.938 55.224C311.279 55.224 311.546 55.32 311.738 55.512C311.93 55.6827 312.015 55.9067 311.994 56.184C311.994 56.44 311.866 56.7173 311.61 57.016L304.634 63.64V62.232L312.218 69.368C312.516 69.6667 312.666 69.9547 312.666 70.232C312.666 70.5093 312.559 70.744 312.346 70.936C312.154 71.128 311.898 71.224 311.578 71.224C311.194 71.224 310.884 71.1493 310.65 71C310.415 70.8293 310.127 70.584 309.786 70.264L302.682 63.704H302.618V69.88C302.618 70.776 302.18 71.224 301.306 71.224ZM320.762 71.288C319.226 71.288 318.052 70.8187 317.242 69.88C316.431 68.9413 316.026 67.5973 316.026 65.848V49.528C316.026 49.1013 316.132 48.7813 316.346 48.568C316.559 48.3333 316.879 48.216 317.306 48.216C317.711 48.216 318.031 48.3333 318.266 48.568C318.5 48.7813 318.618 49.1013 318.618 49.528V65.656C318.618 66.808 318.842 67.672 319.29 68.248C319.759 68.8027 320.442 69.08 321.338 69.08C321.53 69.08 321.7 69.0693 321.85 69.048C321.999 69.0267 322.148 69.016 322.298 69.016C322.532 68.9947 322.692 69.048 322.778 69.176C322.884 69.304 322.938 69.56 322.938 69.944C322.938 70.328 322.852 70.616 322.682 70.808C322.511 71 322.234 71.128 321.85 71.192C321.679 71.2133 321.498 71.2347 321.306 71.256C321.114 71.2773 320.932 71.288 320.762 71.288ZM328.607 76.984C328.287 76.984 328.031 76.8987 327.839 76.728C327.647 76.5573 327.529 76.3227 327.487 76.024C327.465 75.7467 327.519 75.4587 327.647 75.16L329.855 70.2V71.32L323.711 57.048C323.583 56.728 323.54 56.4293 323.583 56.152C323.625 55.8747 323.753 55.6507 323.967 55.48C324.18 55.3093 324.479 55.224 324.863 55.224C325.204 55.224 325.471 55.2987 325.663 55.448C325.855 55.5973 326.025 55.864 326.175 56.248L331.423 69.112H330.559L335.871 56.248C336.041 55.864 336.223 55.5973 336.415 55.448C336.607 55.2987 336.884 55.224 337.247 55.224C337.588 55.224 337.844 55.3093 338.015 55.48C338.207 55.6507 338.313 55.8747 338.335 56.152C338.377 56.408 338.335 56.696 338.207 57.016L330.015 75.96C329.844 76.344 329.652 76.6107 329.439 76.76C329.247 76.9093 328.969 76.984 328.607 76.984ZM351.182 71.224C350.756 71.224 350.436 71.1067 350.222 70.872C350.009 70.6373 349.902 70.3067 349.902 69.88V56.536C349.902 56.1093 350.009 55.7893 350.222 55.576C350.436 55.3413 350.745 55.224 351.15 55.224C351.556 55.224 351.865 55.3413 352.078 55.576C352.313 55.7893 352.43 56.1093 352.43 56.536V59.352L352.078 58.904C352.484 57.7093 353.134 56.792 354.03 56.152C354.948 55.4907 356.036 55.16 357.294 55.16C358.617 55.16 359.684 55.48 360.494 56.12C361.326 56.7387 361.881 57.7093 362.158 59.032H361.678C362.062 57.8373 362.745 56.8987 363.726 56.216C364.729 55.512 365.892 55.16 367.214 55.16C368.388 55.16 369.348 55.384 370.094 55.832C370.862 56.28 371.438 56.9627 371.822 57.88C372.206 58.776 372.398 59.9173 372.398 61.304V69.88C372.398 70.3067 372.281 70.6373 372.046 70.872C371.833 71.1067 371.513 71.224 371.086 71.224C370.681 71.224 370.361 71.1067 370.126 70.872C369.913 70.6373 369.806 70.3067 369.806 69.88V61.432C369.806 60.0027 369.561 58.9573 369.07 58.296C368.58 57.6133 367.748 57.272 366.574 57.272C365.294 57.272 364.281 57.72 363.534 58.616C362.809 59.4907 362.446 60.6853 362.446 62.2V69.88C362.446 70.3067 362.329 70.6373 362.094 70.872C361.881 71.1067 361.561 71.224 361.134 71.224C360.729 71.224 360.409 71.1067 360.174 70.872C359.961 70.6373 359.854 70.3067 359.854 69.88V61.432C359.854 60.0027 359.598 58.9573 359.086 58.296C358.596 57.6133 357.774 57.272 356.622 57.272C355.342 57.272 354.329 57.72 353.582 58.616C352.857 59.4907 352.494 60.6853 352.494 62.2V69.88C352.494 70.776 352.057 71.224 351.182 71.224ZM384.253 71.288C382.61 71.288 381.191 70.968 379.997 70.328C378.823 69.6667 377.906 68.7387 377.245 67.544C376.605 66.3493 376.285 64.92 376.285 63.256C376.285 61.6347 376.605 60.2267 377.245 59.032C377.885 57.816 378.759 56.8667 379.869 56.184C380.999 55.5013 382.301 55.16 383.773 55.16C384.818 55.16 385.757 55.3413 386.589 55.704C387.421 56.0453 388.125 56.5467 388.701 57.208C389.298 57.8693 389.746 58.6693 390.045 59.608C390.365 60.5467 390.525 61.6027 390.525 62.776C390.525 63.1173 390.429 63.3733 390.237 63.544C390.045 63.6933 389.767 63.768 389.405 63.768H378.269V62.072H388.797L388.285 62.488C388.285 61.336 388.114 60.3653 387.773 59.576C387.431 58.7653 386.93 58.1467 386.269 57.72C385.629 57.2933 384.818 57.08 383.837 57.08C382.749 57.08 381.821 57.336 381.053 57.848C380.306 58.3387 379.741 59.032 379.357 59.928C378.973 60.8027 378.781 61.8267 378.781 63V63.192C378.781 65.1547 379.25 66.648 380.189 67.672C381.149 68.696 382.503 69.208 384.253 69.208C384.978 69.208 385.693 69.112 386.397 68.92C387.122 68.728 387.826 68.408 388.509 67.96C388.807 67.768 389.074 67.6827 389.309 67.704C389.565 67.704 389.767 67.7787 389.917 67.928C390.066 68.056 390.162 68.2267 390.205 68.44C390.269 68.632 390.247 68.8453 390.141 69.08C390.055 69.3147 389.874 69.5173 389.597 69.688C388.893 70.2 388.061 70.5947 387.101 70.872C386.141 71.1493 385.191 71.288 384.253 71.288ZM401.284 71.288C399.641 71.288 398.222 70.968 397.028 70.328C395.854 69.6667 394.937 68.7387 394.276 67.544C393.636 66.3493 393.316 64.92 393.316 63.256C393.316 61.6347 393.636 60.2267 394.276 59.032C394.916 57.816 395.79 56.8667 396.9 56.184C398.03 55.5013 399.332 55.16 400.804 55.16C401.849 55.16 402.788 55.3413 403.62 55.704C404.452 56.0453 405.156 56.5467 405.732 57.208C406.329 57.8693 406.777 58.6693 407.076 59.608C407.396 60.5467 407.556 61.6027 407.556 62.776C407.556 63.1173 407.46 63.3733 407.268 63.544C407.076 63.6933 406.798 63.768 406.436 63.768H395.3V62.072H405.828L405.316 62.488C405.316 61.336 405.145 60.3653 404.804 59.576C404.462 58.7653 403.961 58.1467 403.3 57.72C402.66 57.2933 401.849 57.08 400.868 57.08C399.78 57.08 398.852 57.336 398.084 57.848C397.337 58.3387 396.772 59.032 396.388 59.928C396.004 60.8027 395.812 61.8267 395.812 63V63.192C395.812 65.1547 396.281 66.648 397.22 67.672C398.18 68.696 399.534 69.208 401.284 69.208C402.009 69.208 402.724 69.112 403.428 68.92C404.153 68.728 404.857 68.408 405.54 67.96C405.838 67.768 406.105 67.6827 406.34 67.704C406.596 67.704 406.798 67.7787 406.948 67.928C407.097 68.056 407.193 68.2267 407.236 68.44C407.3 68.632 407.278 68.8453 407.172 69.08C407.086 69.3147 406.905 69.5173 406.628 69.688C405.924 70.2 405.092 70.5947 404.132 70.872C403.172 71.1493 402.222 71.288 401.284 71.288ZM417.547 71.288C416.331 71.288 415.307 71.0747 414.475 70.648C413.664 70.2 413.056 69.56 412.651 68.728C412.246 67.8747 412.043 66.84 412.043 65.624V57.464H409.899C409.536 57.464 409.259 57.3787 409.067 57.208C408.875 57.016 408.779 56.76 408.779 56.44C408.779 56.12 408.875 55.8747 409.067 55.704C409.259 55.5333 409.536 55.448 409.899 55.448H412.043V51.768C412.043 51.3413 412.16 51.0213 412.395 50.808C412.63 50.5733 412.95 50.456 413.355 50.456C413.76 50.456 414.07 50.5733 414.283 50.808C414.518 51.0213 414.635 51.3413 414.635 51.768V55.448H418.667C419.03 55.448 419.307 55.5333 419.499 55.704C419.691 55.8747 419.787 56.12 419.787 56.44C419.787 56.76 419.691 57.016 419.499 57.208C419.307 57.3787 419.03 57.464 418.667 57.464H414.635V65.368C414.635 66.584 414.891 67.512 415.403 68.152C415.915 68.7707 416.747 69.08 417.899 69.08C418.304 69.08 418.646 69.0373 418.923 68.952C419.222 68.8667 419.467 68.824 419.659 68.824C419.851 68.8027 420.011 68.8667 420.139 69.016C420.267 69.1653 420.331 69.4213 420.331 69.784C420.331 70.04 420.278 70.2747 420.171 70.488C420.086 70.7013 419.926 70.8507 419.691 70.936C419.435 71.0213 419.094 71.096 418.667 71.16C418.262 71.2453 417.888 71.288 417.547 71.288ZM423.962 71.16C423.535 71.16 423.215 71.0427 423.002 70.808C422.789 70.552 422.682 70.2 422.682 69.752V56.664C422.682 56.216 422.789 55.8747 423.002 55.64C423.215 55.4053 423.535 55.288 423.962 55.288C424.367 55.288 424.687 55.4053 424.922 55.64C425.157 55.8747 425.274 56.216 425.274 56.664V69.752C425.274 70.2 425.157 70.552 424.922 70.808C424.709 71.0427 424.389 71.16 423.962 71.16ZM423.962 51.704C423.429 51.704 423.013 51.5653 422.714 51.288C422.415 50.9893 422.266 50.5947 422.266 50.104C422.266 49.592 422.415 49.208 422.714 48.952C423.013 48.6747 423.429 48.536 423.962 48.536C424.517 48.536 424.933 48.6747 425.21 48.952C425.509 49.208 425.658 49.592 425.658 50.104C425.658 50.5947 425.509 50.9893 425.21 51.288C424.933 51.5653 424.517 51.704 423.962 51.704ZM431.4 71.224C430.973 71.224 430.653 71.1067 430.44 70.872C430.226 70.6373 430.12 70.3067 430.12 69.88V56.536C430.12 56.1093 430.226 55.7893 430.44 55.576C430.653 55.3413 430.962 55.224 431.368 55.224C431.773 55.224 432.082 55.3413 432.296 55.576C432.53 55.7893 432.648 56.1093 432.648 56.536V59.288L432.296 58.904C432.744 57.6667 433.469 56.7387 434.472 56.12C435.496 55.48 436.669 55.16 437.992 55.16C439.229 55.16 440.253 55.384 441.064 55.832C441.896 56.28 442.514 56.9627 442.92 57.88C443.325 58.776 443.528 59.9173 443.528 61.304V69.88C443.528 70.3067 443.41 70.6373 443.176 70.872C442.962 71.1067 442.653 71.224 442.248 71.224C441.821 71.224 441.49 71.1067 441.256 70.872C441.042 70.6373 440.936 70.3067 440.936 69.88V61.464C440.936 60.0133 440.648 58.9573 440.072 58.296C439.517 57.6133 438.621 57.272 437.384 57.272C435.954 57.272 434.813 57.72 433.96 58.616C433.128 59.4907 432.712 60.664 432.712 62.136V69.88C432.712 70.776 432.274 71.224 431.4 71.224ZM455.187 77.048C454.056 77.048 452.947 76.9093 451.859 76.632C450.792 76.376 449.822 75.96 448.947 75.384C448.691 75.2347 448.52 75.0533 448.435 74.84C448.371 74.6267 448.36 74.4133 448.403 74.2C448.446 74.008 448.542 73.8267 448.691 73.656C448.84 73.5067 449.011 73.4107 449.203 73.368C449.416 73.3253 449.63 73.3573 449.843 73.464C450.782 74.04 451.678 74.4347 452.531 74.648C453.384 74.8613 454.227 74.968 455.059 74.968C456.574 74.968 457.715 74.5627 458.483 73.752C459.272 72.9413 459.667 71.768 459.667 70.232V66.616H459.987C459.667 67.8533 458.984 68.8347 457.939 69.56C456.915 70.2853 455.71 70.648 454.323 70.648C452.894 70.648 451.656 70.328 450.611 69.688C449.566 69.0267 448.755 68.1093 448.179 66.936C447.624 65.7627 447.347 64.408 447.347 62.872C447.347 61.72 447.507 60.6747 447.827 59.736C448.147 58.776 448.606 57.9653 449.203 57.304C449.822 56.6213 450.558 56.0987 451.411 55.736C452.286 55.352 453.256 55.16 454.323 55.16C455.731 55.16 456.947 55.5227 457.971 56.248C458.995 56.952 459.656 57.912 459.955 59.128L459.635 59.512V56.536C459.635 56.1093 459.742 55.7893 459.955 55.576C460.19 55.3413 460.51 55.224 460.915 55.224C461.342 55.224 461.662 55.3413 461.875 55.576C462.088 55.7893 462.195 56.1093 462.195 56.536V69.88C462.195 72.248 461.598 74.0293 460.403 75.224C459.23 76.44 457.491 77.048 455.187 77.048ZM454.803 68.536C455.806 68.536 456.67 68.312 457.395 67.864C458.12 67.3947 458.675 66.7333 459.059 65.88C459.464 65.0267 459.667 64.024 459.667 62.872C459.667 61.144 459.23 59.7787 458.355 58.776C457.48 57.752 456.296 57.24 454.803 57.24C453.822 57.24 452.968 57.4747 452.243 57.944C451.518 58.392 450.952 59.0427 450.547 59.896C450.163 60.728 449.971 61.72 449.971 62.872C449.971 64.6 450.408 65.976 451.283 67C452.158 68.024 453.331 68.536 454.803 68.536Z" fill="white"/>
<rect x="25" y="12" width="48" height="23" rx="11.5" fill="#92F2FF"/>
<path d="M41.9579 28.084C41.7979 28.084 41.6739 28.04 41.5859 27.952C41.5059 27.856 41.4659 27.728 41.4659 27.568V19.972C41.4659 19.804 41.5059 19.676 41.5859 19.588C41.6739 19.5 41.7979 19.456 41.9579 19.456C42.1179 19.456 42.2379 19.5 42.3179 19.588C42.4059 19.676 42.4499 19.804 42.4499 19.972V23.284H47.5259V19.972C47.5259 19.804 47.5659 19.676 47.6459 19.588C47.7339 19.5 47.8579 19.456 48.0179 19.456C48.1779 19.456 48.2979 19.5 48.3779 19.588C48.4659 19.676 48.5099 19.804 48.5099 19.972V27.568C48.5099 27.728 48.4659 27.856 48.3779 27.952C48.2979 28.04 48.1779 28.084 48.0179 28.084C47.8579 28.084 47.7339 28.04 47.6459 27.952C47.5659 27.856 47.5259 27.728 47.5259 27.568V24.136H42.4499V27.568C42.4499 27.728 42.4099 27.856 42.3299 27.952C42.2499 28.04 42.1259 28.084 41.9579 28.084ZM51.0868 28.084C50.9268 28.084 50.8028 28.04 50.7148 27.952C50.6348 27.856 50.5948 27.728 50.5948 27.568V20.044C50.5948 19.876 50.6388 19.752 50.7268 19.672C50.8148 19.584 50.9388 19.54 51.0988 19.54H53.9428C54.8468 19.54 55.5428 19.752 56.0308 20.176C56.5188 20.6 56.7628 21.204 56.7628 21.988C56.7628 22.484 56.6508 22.916 56.4268 23.284C56.2108 23.644 55.8908 23.92 55.4668 24.112C55.0428 24.296 54.5348 24.388 53.9428 24.388L54.0628 24.232H54.3028C54.6148 24.232 54.8868 24.312 55.1188 24.472C55.3508 24.632 55.5628 24.888 55.7548 25.24L56.9068 27.388C56.9708 27.5 56.9988 27.612 56.9908 27.724C56.9908 27.828 56.9548 27.916 56.8828 27.988C56.8108 28.052 56.7068 28.084 56.5708 28.084C56.4348 28.084 56.3228 28.052 56.2348 27.988C56.1468 27.924 56.0708 27.832 56.0068 27.712L54.6988 25.288C54.5148 24.944 54.3028 24.716 54.0628 24.604C53.8228 24.484 53.5068 24.424 53.1148 24.424H51.5788V27.568C51.5788 27.728 51.5388 27.856 51.4588 27.952C51.3788 28.04 51.2548 28.084 51.0868 28.084ZM51.5788 23.644H53.7988C54.4548 23.644 54.9508 23.508 55.2868 23.236C55.6228 22.956 55.7908 22.54 55.7908 21.988C55.7908 21.452 55.6228 21.048 55.2868 20.776C54.9508 20.496 54.4548 20.356 53.7988 20.356H51.5788V23.644Z" fill="black"/>
<defs>
<linearGradient id="paint0_linear_9_47" x1="0" y1="45.5" x2="523" y2="45.5" gradientUnits="userSpaceOnUse">
<stop stop-color="#92F2FF"/>
<stop offset="0.42" stop-color="#FF7EF0"/>
<stop offset="0.78" stop-color="white"/>
</linearGradient>
</defs>
</svg>
