<svg width="523" height="91" viewBox="0 0 523 91" fill="none" xmlns="http://www.w3.org/2000/svg">
<rect x="1" y="1" width="521" height="89" rx="9" fill="black" stroke="url(#paint0_linear_9_36)" stroke-width="2"/>
<path d="M27.304 71.224C26.9627 71.224 26.6853 71.1493 26.472 71C26.28 70.8293 26.1627 70.616 26.12 70.36C26.0987 70.0827 26.1627 69.7733 26.312 69.432L35.112 49.4C35.304 48.9733 35.528 48.6747 35.784 48.504C36.0613 48.312 36.36 48.216 36.68 48.216C37 48.216 37.288 48.312 37.544 48.504C37.8213 48.6747 38.0453 48.9733 38.216 49.4L47.048 69.432C47.2187 69.7733 47.2827 70.0827 47.24 70.36C47.2187 70.6373 47.112 70.8507 46.92 71C46.728 71.1493 46.4613 71.224 46.12 71.224C45.736 71.224 45.4267 71.128 45.192 70.936C44.9573 70.7227 44.7653 70.424 44.616 70.04L42.248 64.568L43.528 65.24H29.768L31.08 64.568L28.744 70.04C28.552 70.4453 28.3493 70.744 28.136 70.936C27.9227 71.128 27.6453 71.224 27.304 71.224ZM36.648 51.512L31.496 63.64L30.728 63.032H42.568L41.864 63.64L36.712 51.512H36.648ZM52.0245 71.224C51.5978 71.224 51.2778 71.1067 51.0645 70.872C50.8512 70.6373 50.7445 70.3067 50.7445 69.88V56.536C50.7445 56.1093 50.8512 55.7893 51.0645 55.576C51.2778 55.3413 51.5872 55.224 51.9925 55.224C52.3978 55.224 52.7072 55.3413 52.9205 55.576C53.1552 55.7893 53.2725 56.1093 53.2725 56.536V59.288L52.9205 58.904C53.3685 57.6667 54.0938 56.7387 55.0965 56.12C56.1205 55.48 57.2938 55.16 58.6165 55.16C59.8538 55.16 60.8778 55.384 61.6885 55.832C62.5205 56.28 63.1392 56.9627 63.5445 57.88C63.9498 58.776 64.1525 59.9173 64.1525 61.304V69.88C64.1525 70.3067 64.0352 70.6373 63.8005 70.872C63.5872 71.1067 63.2778 71.224 62.8725 71.224C62.4458 71.224 62.1152 71.1067 61.8805 70.872C61.6672 70.6373 61.5605 70.3067 61.5605 69.88V61.464C61.5605 60.0133 61.2725 58.9573 60.6965 58.296C60.1418 57.6133 59.2458 57.272 58.0085 57.272C56.5792 57.272 55.4378 57.72 54.5845 58.616C53.7525 59.4907 53.3365 60.664 53.3365 62.136V69.88C53.3365 70.776 52.8992 71.224 52.0245 71.224ZM74.18 71.288C73.22 71.288 72.2493 71.1707 71.268 70.936C70.308 70.7013 69.412 70.296 68.58 69.72C68.3667 69.5707 68.2173 69.4 68.132 69.208C68.0467 68.9947 68.0147 68.792 68.036 68.6C68.0787 68.3867 68.164 68.2053 68.292 68.056C68.4413 67.9067 68.612 67.8213 68.804 67.8C69.0173 67.7573 69.252 67.8 69.508 67.928C70.34 68.44 71.14 68.8027 71.908 69.016C72.6973 69.208 73.476 69.304 74.244 69.304C75.46 69.304 76.3773 69.08 76.996 68.632C77.6147 68.184 77.924 67.576 77.924 66.808C77.924 66.2107 77.7213 65.7413 77.316 65.4C76.9107 65.0373 76.2707 64.76 75.396 64.568L72.484 63.928C71.14 63.6507 70.1373 63.1707 69.476 62.488C68.836 61.8053 68.516 60.92 68.516 59.832C68.516 58.872 68.7613 58.0507 69.252 57.368C69.764 56.664 70.4787 56.12 71.396 55.736C72.3133 55.352 73.38 55.16 74.596 55.16C75.5347 55.16 76.42 55.288 77.252 55.544C78.1053 55.7787 78.8733 56.1627 79.556 56.696C79.7693 56.8453 79.908 57.0267 79.972 57.24C80.0573 57.432 80.068 57.6347 80.004 57.848C79.9613 58.04 79.8653 58.2107 79.716 58.36C79.5667 58.488 79.3853 58.5627 79.172 58.584C78.9587 58.6053 78.7347 58.5413 78.5 58.392C77.86 57.9653 77.2093 57.656 76.548 57.464C75.8867 57.2507 75.236 57.144 74.596 57.144C73.4013 57.144 72.4947 57.3787 71.876 57.848C71.2573 58.3173 70.948 58.936 70.948 59.704C70.948 60.3013 71.14 60.792 71.524 61.176C71.908 61.56 72.5053 61.8373 73.316 62.008L76.228 62.616C77.6147 62.9147 78.6493 63.3947 79.332 64.056C80.036 64.696 80.388 65.5707 80.388 66.68C80.388 68.088 79.8227 69.208 78.692 70.04C77.5613 70.872 76.0573 71.288 74.18 71.288ZM89.4018 71.224C89.0391 71.224 88.7191 71.128 88.4418 70.936C88.1644 70.744 87.9404 70.4347 87.7698 70.008L83.0018 57.048C82.8738 56.6853 82.8311 56.3653 82.8738 56.088C82.9378 55.8107 83.0764 55.5973 83.2898 55.448C83.5031 55.2987 83.7698 55.224 84.0898 55.224C84.4098 55.224 84.6658 55.2987 84.8578 55.448C85.0711 55.5973 85.2418 55.8747 85.3698 56.28L89.8498 69.08H89.0818L93.6898 56.28C93.8391 55.896 94.0204 55.6293 94.2338 55.48C94.4684 55.3093 94.7671 55.224 95.1298 55.224C95.4711 55.224 95.7591 55.3093 95.9938 55.48C96.2284 55.6507 96.4098 55.9173 96.5378 56.28L101.05 69.08H100.314L104.858 56.216C105.007 55.832 105.188 55.576 105.402 55.448C105.615 55.2987 105.871 55.224 106.17 55.224C106.511 55.224 106.767 55.3093 106.938 55.48C107.13 55.6507 107.236 55.8747 107.258 56.152C107.279 56.4293 107.226 56.728 107.098 57.048L102.33 70.008C102.18 70.4133 101.956 70.7227 101.658 70.936C101.38 71.128 101.06 71.224 100.698 71.224C100.335 71.224 100.015 71.128 99.7378 70.936C99.4604 70.7227 99.2471 70.4133 99.0978 70.008L94.3618 57.016H95.7378L91.0338 70.008C90.8844 70.4133 90.6711 70.7227 90.3938 70.936C90.1164 71.128 89.7858 71.224 89.4018 71.224ZM117.721 71.288C116.079 71.288 114.66 70.968 113.465 70.328C112.292 69.6667 111.375 68.7387 110.713 67.544C110.073 66.3493 109.753 64.92 109.753 63.256C109.753 61.6347 110.073 60.2267 110.713 59.032C111.353 57.816 112.228 56.8667 113.337 56.184C114.468 55.5013 115.769 55.16 117.241 55.16C118.287 55.16 119.225 55.3413 120.057 55.704C120.889 56.0453 121.593 56.5467 122.169 57.208C122.767 57.8693 123.215 58.6693 123.513 59.608C123.833 60.5467 123.993 61.6027 123.993 62.776C123.993 63.1173 123.897 63.3733 123.705 63.544C123.513 63.6933 123.236 63.768 122.873 63.768H111.737V62.072H122.265L121.753 62.488C121.753 61.336 121.583 60.3653 121.241 59.576C120.9 58.7653 120.399 58.1467 119.737 57.72C119.097 57.2933 118.287 57.08 117.305 57.08C116.217 57.08 115.289 57.336 114.521 57.848C113.775 58.3387 113.209 59.032 112.825 59.928C112.441 60.8027 112.249 61.8267 112.249 63V63.192C112.249 65.1547 112.719 66.648 113.657 67.672C114.617 68.696 115.972 69.208 117.721 69.208C118.447 69.208 119.161 69.112 119.865 68.92C120.591 68.728 121.295 68.408 121.977 67.96C122.276 67.768 122.543 67.6827 122.777 67.704C123.033 67.704 123.236 67.7787 123.385 67.928C123.535 68.056 123.631 68.2267 123.673 68.44C123.737 68.632 123.716 68.8453 123.609 69.08C123.524 69.3147 123.343 69.5173 123.065 69.688C122.361 70.2 121.529 70.5947 120.569 70.872C119.609 71.1493 118.66 71.288 117.721 71.288ZM129.057 71.224C128.63 71.224 128.299 71.1067 128.065 70.872C127.851 70.6373 127.745 70.3067 127.745 69.88V56.536C127.745 56.1093 127.851 55.7893 128.065 55.576C128.278 55.3413 128.587 55.224 128.993 55.224C129.398 55.224 129.707 55.3413 129.921 55.576C130.155 55.7893 130.273 56.1093 130.273 56.536V59.128H129.953C130.294 57.8693 130.945 56.8987 131.905 56.216C132.865 55.5333 134.049 55.1707 135.457 55.128C135.777 55.1067 136.033 55.1813 136.225 55.352C136.417 55.5013 136.523 55.768 136.545 56.152C136.566 56.5147 136.481 56.8027 136.289 57.016C136.097 57.2293 135.798 57.3573 135.393 57.4L134.881 57.464C133.43 57.592 132.31 58.0613 131.521 58.872C130.753 59.6613 130.369 60.7493 130.369 62.136V69.88C130.369 70.3067 130.251 70.6373 130.016 70.872C129.803 71.1067 129.483 71.224 129.057 71.224ZM157.575 71.288C155.357 71.288 153.458 70.8187 151.879 69.88C150.301 68.9413 149.085 67.608 148.231 65.88C147.399 64.152 146.983 62.0933 146.983 59.704C146.983 57.912 147.218 56.312 147.687 54.904C148.178 53.4747 148.871 52.2693 149.767 51.288C150.685 50.2853 151.805 49.5173 153.127 48.984C154.45 48.4293 155.933 48.152 157.575 48.152C158.898 48.152 160.157 48.344 161.351 48.728C162.546 49.0907 163.581 49.6347 164.455 50.36C164.733 50.5733 164.914 50.8187 164.999 51.096C165.106 51.352 165.117 51.608 165.031 51.864C164.967 52.0987 164.839 52.3013 164.647 52.472C164.477 52.6213 164.263 52.696 164.007 52.696C163.751 52.696 163.463 52.5893 163.143 52.376C162.375 51.7573 161.533 51.2987 160.615 51C159.698 50.7013 158.706 50.552 157.639 50.552C155.954 50.552 154.525 50.9147 153.351 51.64C152.178 52.344 151.293 53.3787 150.695 54.744C150.098 56.1093 149.799 57.7627 149.799 59.704C149.799 61.6453 150.098 63.3093 150.695 64.696C151.293 66.0613 152.178 67.1067 153.351 67.832C154.525 68.536 155.954 68.888 157.639 68.888C158.685 68.888 159.677 68.7387 160.615 68.44C161.554 68.12 162.418 67.6507 163.207 67.032C163.527 66.8187 163.815 66.7227 164.071 66.744C164.327 66.744 164.541 66.8187 164.711 66.968C164.882 67.1173 164.999 67.3093 165.063 67.544C165.149 67.7787 165.149 68.024 165.063 68.28C164.999 68.536 164.839 68.76 164.583 68.952C163.687 69.72 162.631 70.3067 161.415 70.712C160.221 71.096 158.941 71.288 157.575 71.288ZM174.334 71.288C172.819 71.288 171.507 70.9573 170.398 70.296C169.288 69.6347 168.424 68.7067 167.806 67.512C167.208 66.296 166.91 64.8667 166.91 63.224C166.91 61.9867 167.08 60.8773 167.422 59.896C167.763 58.8933 168.264 58.04 168.926 57.336C169.587 56.632 170.366 56.0987 171.262 55.736C172.179 55.352 173.203 55.16 174.334 55.16C175.848 55.16 177.16 55.4907 178.27 56.152C179.379 56.8133 180.232 57.752 180.83 58.968C181.448 60.1627 181.758 61.5813 181.758 63.224C181.758 64.4613 181.587 65.5707 181.246 66.552C180.904 67.5333 180.403 68.3867 179.742 69.112C179.08 69.816 178.291 70.36 177.374 70.744C176.478 71.1067 175.464 71.288 174.334 71.288ZM174.334 69.208C175.294 69.208 176.136 68.9733 176.862 68.504C177.587 68.0347 178.142 67.352 178.526 66.456C178.931 65.56 179.134 64.4827 179.134 63.224C179.134 61.2827 178.696 59.8 177.822 58.776C176.968 57.752 175.806 57.24 174.334 57.24C173.352 57.24 172.499 57.4747 171.774 57.944C171.07 58.392 170.515 59.064 170.11 59.96C169.726 60.8347 169.534 61.9227 169.534 63.224C169.534 65.144 169.971 66.6267 170.846 67.672C171.72 68.696 172.883 69.208 174.334 69.208ZM186.963 71.224C186.536 71.224 186.205 71.1067 185.971 70.872C185.757 70.6373 185.651 70.3067 185.651 69.88V56.536C185.651 56.1093 185.757 55.7893 185.971 55.576C186.184 55.3413 186.493 55.224 186.899 55.224C187.304 55.224 187.613 55.3413 187.827 55.576C188.061 55.7893 188.179 56.1093 188.179 56.536V59.128H187.859C188.2 57.8693 188.851 56.8987 189.811 56.216C190.771 55.5333 191.955 55.1707 193.363 55.128C193.683 55.1067 193.939 55.1813 194.131 55.352C194.323 55.5013 194.429 55.768 194.451 56.152C194.472 56.5147 194.387 56.8027 194.195 57.016C194.003 57.2293 193.704 57.3573 193.299 57.4L192.787 57.464C191.336 57.592 190.216 58.0613 189.427 58.872C188.659 59.6613 188.275 60.7493 188.275 62.136V69.88C188.275 70.3067 188.157 70.6373 187.923 70.872C187.709 71.1067 187.389 71.224 186.963 71.224ZM198.4 76.984C197.973 76.984 197.653 76.8667 197.44 76.632C197.226 76.4187 197.12 76.0987 197.12 75.672V56.536C197.12 56.1093 197.226 55.7893 197.44 55.576C197.653 55.3413 197.962 55.224 198.368 55.224C198.794 55.224 199.114 55.3413 199.328 55.576C199.562 55.7893 199.68 56.1093 199.68 56.536V59.576L199.328 59.128C199.669 57.912 200.341 56.952 201.344 56.248C202.368 55.5227 203.584 55.16 204.992 55.16C206.378 55.16 207.584 55.4907 208.608 56.152C209.653 56.792 210.453 57.72 211.008 58.936C211.584 60.1307 211.872 61.56 211.872 63.224C211.872 64.8667 211.584 66.296 211.008 67.512C210.453 68.7067 209.664 69.6347 208.64 70.296C207.616 70.9573 206.4 71.288 204.992 71.288C203.584 71.288 202.378 70.936 201.376 70.232C200.373 69.5067 199.69 68.5467 199.328 67.352H199.712V75.672C199.712 76.0987 199.594 76.4187 199.36 76.632C199.125 76.8667 198.805 76.984 198.4 76.984ZM204.448 69.208C205.429 69.208 206.272 68.9733 206.976 68.504C207.701 68.0347 208.256 67.352 208.64 66.456C209.045 65.56 209.248 64.4827 209.248 63.224C209.248 61.2827 208.81 59.8 207.936 58.776C207.082 57.752 205.92 57.24 204.448 57.24C203.488 57.24 202.645 57.4747 201.92 57.944C201.194 58.392 200.629 59.064 200.224 59.96C199.84 60.8347 199.648 61.9227 199.648 63.224C199.648 65.144 200.085 66.6267 200.96 67.672C201.834 68.696 202.997 69.208 204.448 69.208ZM216.093 54.744C215.88 55.0213 215.656 55.1813 215.421 55.224C215.186 55.2453 214.984 55.2027 214.813 55.096C214.642 54.968 214.546 54.7867 214.525 54.552C214.525 54.3173 214.632 54.0613 214.845 53.784C215.186 53.336 215.421 52.888 215.549 52.44C215.677 51.9707 215.741 51.5547 215.741 51.192L215.869 51.832C215.314 51.832 214.866 51.672 214.525 51.352C214.205 51.0107 214.045 50.584 214.045 50.072C214.045 49.5387 214.194 49.112 214.493 48.792C214.813 48.472 215.229 48.312 215.741 48.312C216.296 48.312 216.733 48.504 217.053 48.888C217.373 49.2507 217.533 49.784 217.533 50.488C217.533 50.936 217.49 51.4053 217.405 51.896C217.32 52.3653 217.17 52.8453 216.957 53.336C216.744 53.8267 216.456 54.296 216.093 54.744ZM226.149 71.288C225.189 71.288 224.218 71.1707 223.237 70.936C222.277 70.7013 221.381 70.296 220.549 69.72C220.335 69.5707 220.186 69.4 220.101 69.208C220.015 68.9947 219.983 68.792 220.005 68.6C220.047 68.3867 220.133 68.2053 220.261 68.056C220.41 67.9067 220.581 67.8213 220.773 67.8C220.986 67.7573 221.221 67.8 221.477 67.928C222.309 68.44 223.109 68.8027 223.877 69.016C224.666 69.208 225.445 69.304 226.213 69.304C227.429 69.304 228.346 69.08 228.965 68.632C229.583 68.184 229.893 67.576 229.893 66.808C229.893 66.2107 229.69 65.7413 229.285 65.4C228.879 65.0373 228.239 64.76 227.365 64.568L224.453 63.928C223.109 63.6507 222.106 63.1707 221.445 62.488C220.805 61.8053 220.485 60.92 220.485 59.832C220.485 58.872 220.73 58.0507 221.221 57.368C221.733 56.664 222.447 56.12 223.365 55.736C224.282 55.352 225.349 55.16 226.565 55.16C227.503 55.16 228.389 55.288 229.221 55.544C230.074 55.7787 230.842 56.1627 231.525 56.696C231.738 56.8453 231.877 57.0267 231.941 57.24C232.026 57.432 232.037 57.6347 231.973 57.848C231.93 58.04 231.834 58.2107 231.685 58.36C231.535 58.488 231.354 58.5627 231.141 58.584C230.927 58.6053 230.703 58.5413 230.469 58.392C229.829 57.9653 229.178 57.656 228.517 57.464C227.855 57.2507 227.205 57.144 226.565 57.144C225.37 57.144 224.463 57.3787 223.845 57.848C223.226 58.3173 222.917 58.936 222.917 59.704C222.917 60.3013 223.109 60.792 223.493 61.176C223.877 61.56 224.474 61.8373 225.285 62.008L228.197 62.616C229.583 62.9147 230.618 63.3947 231.301 64.056C232.005 64.696 232.357 65.5707 232.357 66.68C232.357 68.088 231.791 69.208 230.661 70.04C229.53 70.872 228.026 71.288 226.149 71.288ZM246.221 71.224C245.794 71.224 245.464 71.1067 245.229 70.872C245.016 70.616 244.909 70.2747 244.909 69.848V49.784C244.909 49.336 245.026 49.0053 245.261 48.792C245.496 48.5573 245.826 48.44 246.253 48.44H253.837C256.248 48.44 258.104 49.0053 259.405 50.136C260.706 51.2667 261.357 52.8773 261.357 54.968C261.357 56.2907 261.058 57.4427 260.461 58.424C259.885 59.384 259.032 60.12 257.901 60.632C256.77 61.1227 255.416 61.368 253.837 61.368L254.157 60.952H254.797C255.629 60.952 256.354 61.1653 256.973 61.592C257.592 62.0187 258.157 62.7013 258.669 63.64L261.741 69.368C261.912 69.6667 261.986 69.9653 261.965 70.264C261.965 70.5413 261.869 70.776 261.677 70.968C261.485 71.1387 261.208 71.224 260.845 71.224C260.482 71.224 260.184 71.1387 259.949 70.968C259.714 70.7973 259.512 70.552 259.341 70.232L255.853 63.768C255.362 62.8507 254.797 62.2427 254.157 61.944C253.517 61.624 252.674 61.464 251.629 61.464H247.533V69.848C247.533 70.2747 247.426 70.616 247.213 70.872C247 71.1067 246.669 71.224 246.221 71.224ZM247.533 59.384H253.453C255.202 59.384 256.525 59.0213 257.421 58.296C258.317 57.5493 258.765 56.44 258.765 54.968C258.765 53.5387 258.317 52.4613 257.421 51.736C256.525 50.9893 255.202 50.616 253.453 50.616H247.533V59.384ZM267.723 71.224C267.275 71.224 266.923 71.1067 266.667 70.872C266.433 70.616 266.315 70.2533 266.315 69.784V49.88C266.315 49.4107 266.433 49.0587 266.667 48.824C266.923 48.568 267.286 48.44 267.755 48.44H279.371C279.734 48.44 280.011 48.536 280.203 48.728C280.395 48.92 280.491 49.1867 280.491 49.528C280.491 49.8907 280.395 50.168 280.203 50.36C280.011 50.552 279.734 50.648 279.371 50.648H268.939V58.52H278.699C279.062 58.52 279.339 58.616 279.531 58.808C279.745 59 279.851 59.2667 279.851 59.608C279.851 59.9707 279.745 60.248 279.531 60.44C279.339 60.632 279.062 60.728 278.699 60.728H268.939V69.784C268.939 70.744 268.534 71.224 267.723 71.224ZM285.159 71.224C284.732 71.224 284.401 71.1067 284.167 70.872C283.953 70.616 283.847 70.2747 283.847 69.848V49.784C283.847 49.336 283.964 49.0053 284.199 48.792C284.433 48.5573 284.764 48.44 285.191 48.44H292.775C295.185 48.44 297.041 49.0373 298.343 50.232C299.644 51.4053 300.295 53.0693 300.295 55.224C300.295 57.3573 299.644 59.0213 298.343 60.216C297.041 61.4107 295.185 62.008 292.775 62.008H286.471V69.848C286.471 70.2747 286.364 70.616 286.151 70.872C285.937 71.1067 285.607 71.224 285.159 71.224ZM286.471 59.8H292.455C294.183 59.8 295.484 59.416 296.359 58.648C297.255 57.8587 297.703 56.7173 297.703 55.224C297.703 53.7093 297.255 52.568 296.359 51.8C295.484 51.0107 294.183 50.616 292.455 50.616H286.471V59.8Z" fill="white"/>
<rect x="25" y="12" width="48" height="23" rx="11.5" fill="#D9D9D9"/>
<path d="M38.0788 28.108C37.7028 28.108 37.3348 28.076 36.9748 28.012C36.6148 27.948 36.2788 27.856 35.9668 27.736C35.6628 27.616 35.3868 27.464 35.1388 27.28C35.0428 27.208 34.9748 27.128 34.9348 27.04C34.9028 26.944 34.8948 26.852 34.9108 26.764C34.9348 26.668 34.9748 26.588 35.0308 26.524C35.0948 26.46 35.1708 26.424 35.2588 26.416C35.3468 26.408 35.4428 26.436 35.5468 26.5C35.9068 26.756 36.2908 26.944 36.6988 27.064C37.1068 27.176 37.5668 27.232 38.0788 27.232C38.7988 27.232 39.3308 27.1 39.6748 26.836C40.0268 26.564 40.2028 26.208 40.2028 25.768C40.2028 25.408 40.0748 25.128 39.8188 24.928C39.5708 24.72 39.1508 24.556 38.5588 24.436L37.3108 24.184C36.5588 24.024 35.9948 23.764 35.6188 23.404C35.2508 23.036 35.0668 22.548 35.0668 21.94C35.0668 21.564 35.1428 21.224 35.2948 20.92C35.4468 20.608 35.6588 20.344 35.9308 20.128C36.2028 19.904 36.5268 19.732 36.9028 19.612C37.2788 19.492 37.6948 19.432 38.1508 19.432C38.6548 19.432 39.1228 19.504 39.5548 19.648C39.9948 19.784 40.3908 19.992 40.7428 20.272C40.8308 20.344 40.8908 20.428 40.9228 20.524C40.9548 20.612 40.9588 20.7 40.9348 20.788C40.9108 20.868 40.8668 20.936 40.8028 20.992C40.7468 21.048 40.6708 21.08 40.5748 21.088C40.4868 21.096 40.3868 21.064 40.2748 20.992C39.9548 20.752 39.6228 20.58 39.2788 20.476C38.9348 20.364 38.5548 20.308 38.1388 20.308C37.7148 20.308 37.3468 20.372 37.0348 20.5C36.7308 20.628 36.4908 20.816 36.3148 21.064C36.1468 21.304 36.0628 21.584 36.0628 21.904C36.0628 22.288 36.1788 22.592 36.4108 22.816C36.6508 23.04 37.0388 23.204 37.5748 23.308L38.8228 23.572C39.6308 23.74 40.2268 23.996 40.6108 24.34C41.0028 24.676 41.1988 25.136 41.1988 25.72C41.1988 26.072 41.1268 26.396 40.9828 26.692C40.8388 26.988 40.6308 27.244 40.3588 27.46C40.0868 27.668 39.7588 27.828 39.3748 27.94C38.9908 28.052 38.5588 28.108 38.0788 28.108ZM44.4296 28.108C44.0296 28.108 43.6696 28.032 43.3496 27.88C43.0376 27.72 42.7896 27.504 42.6056 27.232C42.4216 26.96 42.3296 26.656 42.3296 26.32C42.3296 25.888 42.4376 25.548 42.6536 25.3C42.8776 25.052 43.2416 24.876 43.7456 24.772C44.2576 24.668 44.9536 24.616 45.8336 24.616H46.3736V25.252H45.8456C45.1976 25.252 44.6856 25.284 44.3096 25.348C43.9416 25.404 43.6816 25.504 43.5296 25.648C43.3856 25.792 43.3136 25.996 43.3136 26.26C43.3136 26.588 43.4256 26.856 43.6496 27.064C43.8816 27.272 44.1936 27.376 44.5856 27.376C44.9056 27.376 45.1856 27.3 45.4256 27.148C45.6736 26.996 45.8656 26.788 46.0016 26.524C46.1456 26.26 46.2176 25.956 46.2176 25.612V24.244C46.2176 23.748 46.1176 23.392 45.9176 23.176C45.7176 22.952 45.3896 22.84 44.9336 22.84C44.6536 22.84 44.3736 22.876 44.0936 22.948C43.8136 23.02 43.5176 23.136 43.2056 23.296C43.0936 23.352 42.9976 23.372 42.9176 23.356C42.8376 23.332 42.7736 23.288 42.7256 23.224C42.6776 23.16 42.6496 23.088 42.6416 23.008C42.6336 22.92 42.6496 22.836 42.6896 22.756C42.7376 22.676 42.8096 22.612 42.9056 22.564C43.2576 22.388 43.6056 22.26 43.9496 22.18C44.2936 22.1 44.6216 22.06 44.9336 22.06C45.4376 22.06 45.8536 22.144 46.1816 22.312C46.5096 22.472 46.7536 22.72 46.9136 23.056C47.0736 23.384 47.1536 23.808 47.1536 24.328V27.58C47.1536 27.74 47.1136 27.864 47.0336 27.952C46.9616 28.04 46.8536 28.084 46.7096 28.084C46.5576 28.084 46.4416 28.04 46.3616 27.952C46.2816 27.864 46.2416 27.74 46.2416 27.58V26.644H46.3496C46.2856 26.948 46.1616 27.208 45.9776 27.424C45.8016 27.64 45.5816 27.808 45.3176 27.928C45.0536 28.048 44.7576 28.108 44.4296 28.108ZM50.7329 28.108C50.1569 28.108 49.7169 27.932 49.4129 27.58C49.1089 27.228 48.9569 26.724 48.9569 26.068V19.948C48.9569 19.788 48.9969 19.668 49.0769 19.588C49.1569 19.5 49.2769 19.456 49.4369 19.456C49.5889 19.456 49.7089 19.5 49.7969 19.588C49.8849 19.668 49.9289 19.788 49.9289 19.948V25.996C49.9289 26.428 50.0129 26.752 50.1809 26.968C50.3569 27.176 50.6129 27.28 50.9489 27.28C51.0209 27.28 51.0849 27.276 51.1409 27.268C51.1969 27.26 51.2529 27.256 51.3089 27.256C51.3969 27.248 51.4569 27.268 51.4889 27.316C51.5289 27.364 51.5489 27.46 51.5489 27.604C51.5489 27.748 51.5169 27.856 51.4529 27.928C51.3889 28 51.2849 28.048 51.1409 28.072C51.0769 28.08 51.0089 28.088 50.9369 28.096C50.8649 28.104 50.7969 28.108 50.7329 28.108ZM55.0771 28.108C54.4611 28.108 53.9291 27.988 53.4811 27.748C53.0411 27.5 52.6971 27.152 52.4491 26.704C52.2091 26.256 52.0891 25.72 52.0891 25.096C52.0891 24.488 52.2091 23.96 52.4491 23.512C52.6891 23.056 53.0171 22.7 53.4331 22.444C53.8571 22.188 54.3451 22.06 54.8971 22.06C55.2891 22.06 55.6411 22.128 55.9531 22.264C56.2651 22.392 56.5291 22.58 56.7451 22.828C56.9691 23.076 57.1371 23.376 57.2491 23.728C57.3691 24.08 57.4291 24.476 57.4291 24.916C57.4291 25.044 57.3931 25.14 57.3211 25.204C57.2491 25.26 57.1451 25.288 57.0091 25.288H52.8331V24.652H56.7811L56.5891 24.808C56.5891 24.376 56.5251 24.012 56.3971 23.716C56.2691 23.412 56.0811 23.18 55.8331 23.02C55.5931 22.86 55.2891 22.78 54.9211 22.78C54.5131 22.78 54.1651 22.876 53.8771 23.068C53.5971 23.252 53.3851 23.512 53.2411 23.848C53.0971 24.176 53.0251 24.56 53.0251 25V25.072C53.0251 25.808 53.2011 26.368 53.5531 26.752C53.9131 27.136 54.4211 27.328 55.0771 27.328C55.3491 27.328 55.6171 27.292 55.8811 27.22C56.1531 27.148 56.4171 27.028 56.6731 26.86C56.7851 26.788 56.8851 26.756 56.9731 26.764C57.0691 26.764 57.1451 26.792 57.2011 26.848C57.2571 26.896 57.2931 26.96 57.3091 27.04C57.3331 27.112 57.3251 27.192 57.2851 27.28C57.2531 27.368 57.1851 27.444 57.0811 27.508C56.8171 27.7 56.5051 27.848 56.1451 27.952C55.7851 28.056 55.4291 28.108 55.0771 28.108ZM60.8038 28.108C60.4438 28.108 60.0798 28.064 59.7118 27.976C59.3518 27.888 59.0158 27.736 58.7038 27.52C58.6238 27.464 58.5678 27.4 58.5358 27.328C58.5038 27.248 58.4918 27.172 58.4998 27.1C58.5158 27.02 58.5478 26.952 58.5958 26.896C58.6518 26.84 58.7158 26.808 58.7878 26.8C58.8678 26.784 58.9558 26.8 59.0518 26.848C59.3638 27.04 59.6638 27.176 59.9518 27.256C60.2478 27.328 60.5398 27.364 60.8278 27.364C61.2838 27.364 61.6278 27.28 61.8598 27.112C62.0918 26.944 62.2078 26.716 62.2078 26.428C62.2078 26.204 62.1318 26.028 61.9798 25.9C61.8278 25.764 61.5878 25.66 61.2598 25.588L60.1678 25.348C59.6638 25.244 59.2878 25.064 59.0398 24.808C58.7998 24.552 58.6798 24.22 58.6798 23.812C58.6798 23.452 58.7718 23.144 58.9558 22.888C59.1478 22.624 59.4158 22.42 59.7598 22.276C60.1038 22.132 60.5038 22.06 60.9598 22.06C61.3118 22.06 61.6438 22.108 61.9558 22.204C62.2758 22.292 62.5638 22.436 62.8198 22.636C62.8998 22.692 62.9518 22.76 62.9758 22.84C63.0078 22.912 63.0118 22.988 62.9878 23.068C62.9718 23.14 62.9358 23.204 62.8798 23.26C62.8238 23.308 62.7558 23.336 62.6758 23.344C62.5958 23.352 62.5118 23.328 62.4238 23.272C62.1838 23.112 61.9398 22.996 61.6918 22.924C61.4438 22.844 61.1998 22.804 60.9598 22.804C60.5118 22.804 60.1718 22.892 59.9398 23.068C59.7078 23.244 59.5918 23.476 59.5918 23.764C59.5918 23.988 59.6638 24.172 59.8078 24.316C59.9518 24.46 60.1758 24.564 60.4798 24.628L61.5718 24.856C62.0918 24.968 62.4798 25.148 62.7358 25.396C62.9998 25.636 63.1318 25.964 63.1318 26.38C63.1318 26.908 62.9198 27.328 62.4958 27.64C62.0718 27.952 61.5078 28.108 60.8038 28.108Z" fill="black"/>
<rect x="81" y="12" width="57" height="23" rx="11.5" fill="#FF007F"/>
<path d="M95.1827 28.108C94.6227 28.108 94.1307 28.036 93.7067 27.892C93.2907 27.74 92.9387 27.52 92.6507 27.232C92.3627 26.936 92.1467 26.572 92.0027 26.14C91.8587 25.708 91.7867 25.212 91.7867 24.652V19.96C91.7867 19.792 91.8267 19.668 91.9067 19.588C91.9947 19.5 92.1187 19.456 92.2787 19.456C92.4387 19.456 92.5587 19.5 92.6387 19.588C92.7267 19.668 92.7707 19.792 92.7707 19.96V24.604C92.7707 25.484 92.9747 26.144 93.3827 26.584C93.7907 27.016 94.3907 27.232 95.1827 27.232C95.9747 27.232 96.5707 27.016 96.9707 26.584C97.3707 26.144 97.5707 25.484 97.5707 24.604V19.96C97.5707 19.792 97.6147 19.668 97.7027 19.588C97.7907 19.5 97.9147 19.456 98.0747 19.456C98.2267 19.456 98.3427 19.5 98.4227 19.588C98.5107 19.668 98.5547 19.792 98.5547 19.96V24.652C98.5547 25.396 98.4267 26.028 98.1707 26.548C97.9227 27.068 97.5467 27.46 97.0427 27.724C96.5387 27.98 95.9187 28.108 95.1827 28.108ZM100.937 28.084C100.777 28.084 100.653 28.04 100.565 27.952C100.485 27.864 100.445 27.74 100.445 27.58V22.576C100.445 22.416 100.485 22.296 100.565 22.216C100.645 22.128 100.761 22.084 100.913 22.084C101.065 22.084 101.181 22.128 101.261 22.216C101.349 22.296 101.393 22.416 101.393 22.576V23.548H101.273C101.401 23.076 101.645 22.712 102.005 22.456C102.365 22.2 102.809 22.064 103.337 22.048C103.457 22.04 103.553 22.068 103.625 22.132C103.697 22.188 103.737 22.288 103.745 22.432C103.753 22.568 103.721 22.676 103.649 22.756C103.577 22.836 103.465 22.884 103.313 22.9L103.121 22.924C102.577 22.972 102.157 23.148 101.861 23.452C101.573 23.748 101.429 24.156 101.429 24.676V27.58C101.429 27.74 101.385 27.864 101.297 27.952C101.217 28.04 101.097 28.084 100.937 28.084ZM107.256 30.268C106.832 30.268 106.416 30.216 106.008 30.112C105.608 30.016 105.244 29.86 104.916 29.644C104.82 29.588 104.756 29.52 104.724 29.44C104.7 29.36 104.696 29.28 104.712 29.2C104.728 29.128 104.764 29.06 104.82 28.996C104.876 28.94 104.94 28.904 105.012 28.888C105.092 28.872 105.172 28.884 105.252 28.924C105.604 29.14 105.94 29.288 106.26 29.368C106.58 29.448 106.896 29.488 107.208 29.488C107.776 29.488 108.204 29.336 108.492 29.032C108.788 28.728 108.936 28.288 108.936 27.712V26.356H109.056C108.936 26.82 108.68 27.188 108.288 27.46C107.904 27.732 107.452 27.868 106.932 27.868C106.396 27.868 105.932 27.748 105.54 27.508C105.148 27.26 104.844 26.916 104.628 26.476C104.42 26.036 104.316 25.528 104.316 24.952C104.316 24.52 104.376 24.128 104.496 23.776C104.616 23.416 104.788 23.112 105.012 22.864C105.244 22.608 105.52 22.412 105.84 22.276C106.168 22.132 106.532 22.06 106.932 22.06C107.46 22.06 107.916 22.196 108.3 22.468C108.684 22.732 108.932 23.092 109.044 23.548L108.924 23.692V22.576C108.924 22.416 108.964 22.296 109.044 22.216C109.132 22.128 109.252 22.084 109.404 22.084C109.564 22.084 109.684 22.128 109.764 22.216C109.844 22.296 109.884 22.416 109.884 22.576V27.58C109.884 28.468 109.66 29.136 109.212 29.584C108.772 30.04 108.12 30.268 107.256 30.268ZM107.112 27.076C107.488 27.076 107.812 26.992 108.084 26.824C108.356 26.648 108.564 26.4 108.708 26.08C108.86 25.76 108.936 25.384 108.936 24.952C108.936 24.304 108.772 23.792 108.444 23.416C108.116 23.032 107.672 22.84 107.112 22.84C106.744 22.84 106.424 22.928 106.152 23.104C105.88 23.272 105.668 23.516 105.516 23.836C105.372 24.148 105.3 24.52 105.3 24.952C105.3 25.6 105.464 26.116 105.792 26.5C106.12 26.884 106.56 27.076 107.112 27.076ZM114.335 28.108C113.719 28.108 113.187 27.988 112.739 27.748C112.299 27.5 111.955 27.152 111.707 26.704C111.467 26.256 111.347 25.72 111.347 25.096C111.347 24.488 111.467 23.96 111.707 23.512C111.947 23.056 112.275 22.7 112.691 22.444C113.115 22.188 113.603 22.06 114.155 22.06C114.547 22.06 114.899 22.128 115.211 22.264C115.523 22.392 115.787 22.58 116.003 22.828C116.227 23.076 116.395 23.376 116.507 23.728C116.627 24.08 116.687 24.476 116.687 24.916C116.687 25.044 116.651 25.14 116.579 25.204C116.507 25.26 116.403 25.288 116.267 25.288H112.091V24.652H116.039L115.847 24.808C115.847 24.376 115.783 24.012 115.655 23.716C115.527 23.412 115.339 23.18 115.091 23.02C114.851 22.86 114.547 22.78 114.179 22.78C113.771 22.78 113.423 22.876 113.135 23.068C112.855 23.252 112.643 23.512 112.499 23.848C112.355 24.176 112.283 24.56 112.283 25V25.072C112.283 25.808 112.459 26.368 112.811 26.752C113.171 27.136 113.679 27.328 114.335 27.328C114.607 27.328 114.875 27.292 115.139 27.22C115.411 27.148 115.675 27.028 115.931 26.86C116.043 26.788 116.143 26.756 116.231 26.764C116.327 26.764 116.403 26.792 116.459 26.848C116.515 26.896 116.551 26.96 116.567 27.04C116.591 27.112 116.583 27.192 116.543 27.28C116.511 27.368 116.443 27.444 116.339 27.508C116.075 27.7 115.763 27.848 115.403 27.952C115.043 28.056 114.687 28.108 114.335 28.108ZM118.574 28.084C118.414 28.084 118.294 28.04 118.214 27.952C118.134 27.864 118.094 27.74 118.094 27.58V22.576C118.094 22.416 118.134 22.296 118.214 22.216C118.294 22.128 118.41 22.084 118.562 22.084C118.714 22.084 118.83 22.128 118.91 22.216C118.998 22.296 119.042 22.416 119.042 22.576V23.608L118.91 23.464C119.078 23 119.35 22.652 119.726 22.42C120.11 22.18 120.55 22.06 121.046 22.06C121.51 22.06 121.894 22.144 122.198 22.312C122.51 22.48 122.742 22.736 122.894 23.08C123.046 23.416 123.122 23.844 123.122 24.364V27.58C123.122 27.74 123.078 27.864 122.99 27.952C122.91 28.04 122.794 28.084 122.642 28.084C122.482 28.084 122.358 28.04 122.27 27.952C122.19 27.864 122.15 27.74 122.15 27.58V24.424C122.15 23.88 122.042 23.484 121.826 23.236C121.618 22.98 121.282 22.852 120.818 22.852C120.282 22.852 119.854 23.02 119.534 23.356C119.222 23.684 119.066 24.124 119.066 24.676V27.58C119.066 27.916 118.902 28.084 118.574 28.084ZM127.254 28.108C126.798 28.108 126.414 28.028 126.102 27.868C125.798 27.7 125.57 27.46 125.418 27.148C125.266 26.828 125.19 26.44 125.19 25.984V22.924H124.386C124.25 22.924 124.146 22.892 124.074 22.828C124.002 22.756 123.966 22.66 123.966 22.54C123.966 22.42 124.002 22.328 124.074 22.264C124.146 22.2 124.25 22.168 124.386 22.168H125.19V20.788C125.19 20.628 125.234 20.508 125.322 20.428C125.41 20.34 125.53 20.296 125.682 20.296C125.834 20.296 125.95 20.34 126.03 20.428C126.118 20.508 126.162 20.628 126.162 20.788V22.168H127.674C127.81 22.168 127.914 22.2 127.986 22.264C128.058 22.328 128.094 22.42 128.094 22.54C128.094 22.66 128.058 22.756 127.986 22.828C127.914 22.892 127.81 22.924 127.674 22.924H126.162V25.888C126.162 26.344 126.258 26.692 126.45 26.932C126.642 27.164 126.954 27.28 127.386 27.28C127.538 27.28 127.666 27.264 127.77 27.232C127.882 27.2 127.974 27.184 128.046 27.184C128.118 27.176 128.178 27.2 128.226 27.256C128.274 27.312 128.298 27.408 128.298 27.544C128.298 27.64 128.278 27.728 128.238 27.808C128.206 27.888 128.146 27.944 128.058 27.976C127.962 28.008 127.834 28.036 127.674 28.06C127.522 28.092 127.382 28.108 127.254 28.108Z" fill="white"/>
<defs>
<linearGradient id="paint0_linear_9_36" x1="0" y1="45.5" x2="523" y2="45.5" gradientUnits="userSpaceOnUse">
<stop stop-color="#92F2FF"/>
<stop offset="0.42" stop-color="#FF7EF0"/>
<stop offset="0.78" stop-color="white"/>
</linearGradient>
</defs>
</svg>
