<svg width="523" height="91" viewBox="0 0 523 91" fill="none" xmlns="http://www.w3.org/2000/svg">
<rect x="1" y="1" width="521" height="89" rx="9" fill="black" stroke="url(#paint0_linear_9_37)" stroke-width="2"/>
<path d="M29.096 71.224C28.6693 71.224 28.3387 71.1067 28.104 70.872C27.8907 70.616 27.784 70.2747 27.784 69.848V49.784C27.784 49.336 27.9013 49.0053 28.136 48.792C28.3707 48.5573 28.7013 48.44 29.128 48.44H36.712C39.1227 48.44 40.9787 49.0053 42.28 50.136C43.5813 51.2667 44.232 52.8773 44.232 54.968C44.232 56.2907 43.9333 57.4427 43.336 58.424C42.76 59.384 41.9067 60.12 40.776 60.632C39.6453 61.1227 38.2907 61.368 36.712 61.368L37.032 60.952H37.672C38.504 60.952 39.2293 61.1653 39.848 61.592C40.4667 62.0187 41.032 62.7013 41.544 63.64L44.616 69.368C44.7867 69.6667 44.8613 69.9653 44.84 70.264C44.84 70.5413 44.744 70.776 44.552 70.968C44.36 71.1387 44.0827 71.224 43.72 71.224C43.3573 71.224 43.0587 71.1387 42.824 70.968C42.5893 70.7973 42.3867 70.552 42.216 70.232L38.728 63.768C38.2373 62.8507 37.672 62.2427 37.032 61.944C36.392 61.624 35.5493 61.464 34.504 61.464H30.408V69.848C30.408 70.2747 30.3013 70.616 30.088 70.872C29.8747 71.1067 29.544 71.224 29.096 71.224ZM30.408 59.384H36.328C38.0773 59.384 39.4 59.0213 40.296 58.296C41.192 57.5493 41.64 56.44 41.64 54.968C41.64 53.5387 41.192 52.4613 40.296 51.736C39.4 50.9893 38.0773 50.616 36.328 50.616H30.408V59.384ZM55.5025 71.288C53.8598 71.288 52.4412 70.968 51.2465 70.328C50.0732 69.6667 49.1558 68.7387 48.4945 67.544C47.8545 66.3493 47.5345 64.92 47.5345 63.256C47.5345 61.6347 47.8545 60.2267 48.4945 59.032C49.1345 57.816 50.0092 56.8667 51.1185 56.184C52.2492 55.5013 53.5505 55.16 55.0225 55.16C56.0678 55.16 57.0065 55.3413 57.8385 55.704C58.6705 56.0453 59.3745 56.5467 59.9505 57.208C60.5478 57.8693 60.9958 58.6693 61.2945 59.608C61.6145 60.5467 61.7745 61.6027 61.7745 62.776C61.7745 63.1173 61.6785 63.3733 61.4865 63.544C61.2945 63.6933 61.0172 63.768 60.6545 63.768H49.5185V62.072H60.0465L59.5345 62.488C59.5345 61.336 59.3638 60.3653 59.0225 59.576C58.6812 58.7653 58.1798 58.1467 57.5185 57.72C56.8785 57.2933 56.0678 57.08 55.0865 57.08C53.9985 57.08 53.0705 57.336 52.3025 57.848C51.5558 58.3387 50.9905 59.032 50.6065 59.928C50.2225 60.8027 50.0305 61.8267 50.0305 63V63.192C50.0305 65.1547 50.4998 66.648 51.4385 67.672C52.3985 68.696 53.7532 69.208 55.5025 69.208C56.2278 69.208 56.9425 69.112 57.6465 68.92C58.3718 68.728 59.0758 68.408 59.7585 67.96C60.0572 67.768 60.3238 67.6827 60.5585 67.704C60.8145 67.704 61.0172 67.7787 61.1665 67.928C61.3158 68.056 61.4118 68.2267 61.4545 68.44C61.5185 68.632 61.4972 68.8453 61.3905 69.08C61.3052 69.3147 61.1238 69.5173 60.8465 69.688C60.1425 70.2 59.3105 70.5947 58.3505 70.872C57.3905 71.1493 56.4412 71.288 55.5025 71.288ZM71.1302 71.224C70.7676 71.224 70.4476 71.128 70.1703 70.936C69.8929 70.7227 69.6583 70.4027 69.4663 69.976L63.9303 57.048C63.7809 56.728 63.7276 56.4293 63.7703 56.152C63.8129 55.8747 63.9409 55.6507 64.1543 55.48C64.3676 55.3093 64.6663 55.224 65.0503 55.224C65.3916 55.224 65.6583 55.2987 65.8503 55.448C66.0423 55.5973 66.2129 55.864 66.3623 56.248L71.6103 69.08H70.7463L76.0903 56.248C76.2396 55.864 76.4103 55.5973 76.6023 55.448C76.7943 55.2987 77.0716 55.224 77.4343 55.224C77.7756 55.224 78.0316 55.3093 78.2023 55.48C78.3943 55.6507 78.5009 55.8747 78.5223 56.152C78.5649 56.408 78.5223 56.696 78.3943 57.016L72.7943 69.976C72.6449 70.4027 72.4209 70.7227 72.1223 70.936C71.8449 71.128 71.5143 71.224 71.1302 71.224ZM83.087 71.16C82.6603 71.16 82.3403 71.0427 82.127 70.808C81.9137 70.552 81.807 70.2 81.807 69.752V56.664C81.807 56.216 81.9137 55.8747 82.127 55.64C82.3403 55.4053 82.6603 55.288 83.087 55.288C83.4923 55.288 83.8123 55.4053 84.047 55.64C84.2817 55.8747 84.399 56.216 84.399 56.664V69.752C84.399 70.2 84.2817 70.552 84.047 70.808C83.8337 71.0427 83.5137 71.16 83.087 71.16ZM83.087 51.704C82.5537 51.704 82.1377 51.5653 81.839 51.288C81.5403 50.9893 81.391 50.5947 81.391 50.104C81.391 49.592 81.5403 49.208 81.839 48.952C82.1377 48.6747 82.5537 48.536 83.087 48.536C83.6417 48.536 84.0577 48.6747 84.335 48.952C84.6337 49.208 84.783 49.592 84.783 50.104C84.783 50.5947 84.6337 50.9893 84.335 51.288C84.0577 51.5653 83.6417 51.704 83.087 51.704ZM96.2525 71.288C94.6098 71.288 93.1912 70.968 91.9965 70.328C90.8232 69.6667 89.9058 68.7387 89.2445 67.544C88.6045 66.3493 88.2845 64.92 88.2845 63.256C88.2845 61.6347 88.6045 60.2267 89.2445 59.032C89.8845 57.816 90.7592 56.8667 91.8685 56.184C92.9992 55.5013 94.3005 55.16 95.7725 55.16C96.8178 55.16 97.7565 55.3413 98.5885 55.704C99.4205 56.0453 100.125 56.5467 100.701 57.208C101.298 57.8693 101.746 58.6693 102.045 59.608C102.365 60.5467 102.525 61.6027 102.525 62.776C102.525 63.1173 102.429 63.3733 102.237 63.544C102.045 63.6933 101.767 63.768 101.405 63.768H90.2685V62.072H100.797L100.285 62.488C100.285 61.336 100.114 60.3653 99.7725 59.576C99.4312 58.7653 98.9298 58.1467 98.2685 57.72C97.6285 57.2933 96.8178 57.08 95.8365 57.08C94.7485 57.08 93.8205 57.336 93.0525 57.848C92.3058 58.3387 91.7405 59.032 91.3565 59.928C90.9725 60.8027 90.7805 61.8267 90.7805 63V63.192C90.7805 65.1547 91.2498 66.648 92.1885 67.672C93.1485 68.696 94.5032 69.208 96.2525 69.208C96.9778 69.208 97.6925 69.112 98.3965 68.92C99.1218 68.728 99.8258 68.408 100.509 67.96C100.807 67.768 101.074 67.6827 101.309 67.704C101.565 67.704 101.767 67.7787 101.917 67.928C102.066 68.056 102.162 68.2267 102.205 68.44C102.269 68.632 102.247 68.8453 102.141 69.08C102.055 69.3147 101.874 69.5173 101.597 69.688C100.893 70.2 100.061 70.5947 99.1005 70.872C98.1405 71.1493 97.1912 71.288 96.2525 71.288ZM111.464 71.224C111.102 71.224 110.782 71.128 110.504 70.936C110.227 70.744 110.003 70.4347 109.832 70.008L105.064 57.048C104.936 56.6853 104.894 56.3653 104.936 56.088C105 55.8107 105.139 55.5973 105.352 55.448C105.566 55.2987 105.832 55.224 106.152 55.224C106.472 55.224 106.728 55.2987 106.92 55.448C107.134 55.5973 107.304 55.8747 107.432 56.28L111.912 69.08H111.144L115.752 56.28C115.902 55.896 116.083 55.6293 116.296 55.48C116.531 55.3093 116.83 55.224 117.192 55.224C117.534 55.224 117.822 55.3093 118.056 55.48C118.291 55.6507 118.472 55.9173 118.6 56.28L123.112 69.08H122.376L126.92 56.216C127.07 55.832 127.251 55.576 127.464 55.448C127.678 55.2987 127.934 55.224 128.232 55.224C128.574 55.224 128.83 55.3093 129 55.48C129.192 55.6507 129.299 55.8747 129.32 56.152C129.342 56.4293 129.288 56.728 129.16 57.048L124.392 70.008C124.243 70.4133 124.019 70.7227 123.72 70.936C123.443 71.128 123.123 71.224 122.76 71.224C122.398 71.224 122.078 71.128 121.8 70.936C121.523 70.7227 121.31 70.4133 121.16 70.008L116.424 57.016H117.8L113.096 70.008C112.947 70.4133 112.734 70.7227 112.456 70.936C112.179 71.128 111.848 71.224 111.464 71.224ZM142.877 71.224C142.493 71.224 142.194 71.1173 141.981 70.904C141.767 70.6693 141.661 70.3493 141.661 69.944V49.496C141.661 49.0693 141.767 48.7493 141.981 48.536C142.194 48.3227 142.493 48.216 142.877 48.216C143.218 48.216 143.485 48.2907 143.677 48.44C143.89 48.568 144.082 48.792 144.253 49.112L153.021 65.624H152.061L160.797 49.112C160.967 48.792 161.149 48.568 161.341 48.44C161.533 48.2907 161.81 48.216 162.173 48.216C162.535 48.216 162.823 48.3227 163.037 48.536C163.25 48.7493 163.357 49.0693 163.357 49.496V69.944C163.357 70.3493 163.25 70.6693 163.037 70.904C162.845 71.1173 162.546 71.224 162.141 71.224C161.757 71.224 161.458 71.1173 161.245 70.904C161.031 70.6693 160.925 70.3493 160.925 69.944V51.96H161.693L153.693 66.968C153.543 67.2453 153.383 67.448 153.213 67.576C153.063 67.6827 152.839 67.736 152.541 67.736C152.242 67.736 152.007 67.672 151.837 67.544C151.666 67.416 151.517 67.224 151.389 66.968L143.293 51.928H144.061V69.944C144.061 70.3493 143.954 70.6693 143.741 70.904C143.549 71.1173 143.261 71.224 142.877 71.224ZM173.516 71.288C172.449 71.288 171.489 71.0853 170.636 70.68C169.804 70.2533 169.142 69.6773 168.652 68.952C168.161 68.2267 167.916 67.416 167.916 66.52C167.916 65.368 168.204 64.4613 168.78 63.8C169.377 63.1387 170.348 62.6693 171.692 62.392C173.057 62.1147 174.913 61.976 177.26 61.976H178.7V63.672H177.292C175.564 63.672 174.198 63.7573 173.196 63.928C172.214 64.0773 171.521 64.344 171.116 64.728C170.732 65.112 170.54 65.656 170.54 66.36C170.54 67.2347 170.838 67.9493 171.436 68.504C172.054 69.0587 172.886 69.336 173.932 69.336C174.785 69.336 175.532 69.1333 176.172 68.728C176.833 68.3227 177.345 67.768 177.708 67.064C178.092 66.36 178.284 65.5493 178.284 64.632V60.984C178.284 59.6613 178.017 58.712 177.484 58.136C176.95 57.5387 176.076 57.24 174.86 57.24C174.113 57.24 173.366 57.336 172.62 57.528C171.873 57.72 171.084 58.0293 170.252 58.456C169.953 58.6053 169.697 58.6587 169.484 58.616C169.27 58.552 169.1 58.4347 168.972 58.264C168.844 58.0933 168.769 57.9013 168.748 57.688C168.726 57.4533 168.769 57.2293 168.876 57.016C169.004 56.8027 169.196 56.632 169.452 56.504C170.39 56.0347 171.318 55.6933 172.236 55.48C173.153 55.2667 174.028 55.16 174.86 55.16C176.204 55.16 177.313 55.384 178.188 55.832C179.062 56.2587 179.713 56.92 180.14 57.816C180.566 58.6907 180.78 59.8213 180.78 61.208V69.88C180.78 70.3067 180.673 70.6373 180.46 70.872C180.268 71.1067 179.98 71.224 179.596 71.224C179.19 71.224 178.881 71.1067 178.668 70.872C178.454 70.6373 178.348 70.3067 178.348 69.88V67.384H178.636C178.465 68.1947 178.134 68.888 177.644 69.464C177.174 70.04 176.588 70.488 175.884 70.808C175.18 71.128 174.39 71.288 173.516 71.288ZM191.828 71.288C190.612 71.288 189.588 71.0747 188.756 70.648C187.946 70.2 187.338 69.56 186.932 68.728C186.527 67.8747 186.324 66.84 186.324 65.624V57.464H184.18C183.818 57.464 183.54 57.3787 183.348 57.208C183.156 57.016 183.06 56.76 183.06 56.44C183.06 56.12 183.156 55.8747 183.348 55.704C183.54 55.5333 183.818 55.448 184.18 55.448H186.324V51.768C186.324 51.3413 186.442 51.0213 186.676 50.808C186.911 50.5733 187.231 50.456 187.636 50.456C188.042 50.456 188.351 50.5733 188.564 50.808C188.799 51.0213 188.916 51.3413 188.916 51.768V55.448H192.948C193.311 55.448 193.588 55.5333 193.78 55.704C193.972 55.8747 194.068 56.12 194.068 56.44C194.068 56.76 193.972 57.016 193.78 57.208C193.588 57.3787 193.311 57.464 192.948 57.464H188.916V65.368C188.916 66.584 189.172 67.512 189.684 68.152C190.196 68.7707 191.028 69.08 192.18 69.08C192.586 69.08 192.927 69.0373 193.204 68.952C193.503 68.8667 193.748 68.824 193.94 68.824C194.132 68.8027 194.292 68.8667 194.42 69.016C194.548 69.1653 194.612 69.4213 194.612 69.784C194.612 70.04 194.559 70.2747 194.452 70.488C194.367 70.7013 194.207 70.8507 193.972 70.936C193.716 71.0213 193.375 71.096 192.948 71.16C192.543 71.2453 192.17 71.288 191.828 71.288ZM202.61 71.288C201.394 71.288 200.37 71.0747 199.538 70.648C198.727 70.2 198.119 69.56 197.714 68.728C197.308 67.8747 197.106 66.84 197.106 65.624V57.464H194.962C194.599 57.464 194.322 57.3787 194.13 57.208C193.938 57.016 193.841 56.76 193.841 56.44C193.841 56.12 193.938 55.8747 194.13 55.704C194.322 55.5333 194.599 55.448 194.962 55.448H197.106V51.768C197.106 51.3413 197.223 51.0213 197.458 50.808C197.692 50.5733 198.012 50.456 198.418 50.456C198.823 50.456 199.132 50.5733 199.346 50.808C199.58 51.0213 199.698 51.3413 199.698 51.768V55.448H203.73C204.092 55.448 204.37 55.5333 204.562 55.704C204.754 55.8747 204.85 56.12 204.85 56.44C204.85 56.76 204.754 57.016 204.562 57.208C204.37 57.3787 204.092 57.464 203.73 57.464H199.698V65.368C199.698 66.584 199.954 67.512 200.466 68.152C200.978 68.7707 201.81 69.08 202.962 69.08C203.367 69.08 203.708 69.0373 203.986 68.952C204.284 68.8667 204.53 68.824 204.722 68.824C204.914 68.8027 205.074 68.8667 205.202 69.016C205.33 69.1653 205.394 69.4213 205.394 69.784C205.394 70.04 205.34 70.2747 205.234 70.488C205.148 70.7013 204.988 70.8507 204.754 70.936C204.498 71.0213 204.156 71.096 203.73 71.16C203.324 71.2453 202.951 71.288 202.61 71.288ZM208.937 54.744C208.723 55.0213 208.499 55.1813 208.265 55.224C208.03 55.2453 207.827 55.2027 207.657 55.096C207.486 54.968 207.39 54.7867 207.369 54.552C207.369 54.3173 207.475 54.0613 207.689 53.784C208.03 53.336 208.265 52.888 208.393 52.44C208.521 51.9707 208.585 51.5547 208.585 51.192L208.713 51.832C208.158 51.832 207.71 51.672 207.369 51.352C207.049 51.0107 206.889 50.584 206.889 50.072C206.889 49.5387 207.038 49.112 207.337 48.792C207.657 48.472 208.073 48.312 208.585 48.312C209.139 48.312 209.577 48.504 209.897 48.888C210.217 49.2507 210.377 49.784 210.377 50.488C210.377 50.936 210.334 51.4053 210.249 51.896C210.163 52.3653 210.014 52.8453 209.801 53.336C209.587 53.8267 209.299 54.296 208.937 54.744ZM218.993 71.288C218.033 71.288 217.062 71.1707 216.081 70.936C215.121 70.7013 214.225 70.296 213.393 69.72C213.179 69.5707 213.03 69.4 212.945 69.208C212.859 68.9947 212.827 68.792 212.849 68.6C212.891 68.3867 212.977 68.2053 213.105 68.056C213.254 67.9067 213.425 67.8213 213.617 67.8C213.83 67.7573 214.065 67.8 214.321 67.928C215.153 68.44 215.953 68.8027 216.721 69.016C217.51 69.208 218.289 69.304 219.057 69.304C220.273 69.304 221.19 69.08 221.809 68.632C222.427 68.184 222.737 67.576 222.737 66.808C222.737 66.2107 222.534 65.7413 222.129 65.4C221.723 65.0373 221.083 64.76 220.209 64.568L217.297 63.928C215.953 63.6507 214.95 63.1707 214.289 62.488C213.649 61.8053 213.329 60.92 213.329 59.832C213.329 58.872 213.574 58.0507 214.065 57.368C214.577 56.664 215.291 56.12 216.209 55.736C217.126 55.352 218.193 55.16 219.409 55.16C220.347 55.16 221.233 55.288 222.065 55.544C222.918 55.7787 223.686 56.1627 224.369 56.696C224.582 56.8453 224.721 57.0267 224.785 57.24C224.87 57.432 224.881 57.6347 224.817 57.848C224.774 58.04 224.678 58.2107 224.529 58.36C224.379 58.488 224.198 58.5627 223.985 58.584C223.771 58.6053 223.547 58.5413 223.313 58.392C222.673 57.9653 222.022 57.656 221.361 57.464C220.699 57.2507 220.049 57.144 219.409 57.144C218.214 57.144 217.307 57.3787 216.689 57.848C216.07 58.3173 215.761 58.936 215.761 59.704C215.761 60.3013 215.953 60.792 216.337 61.176C216.721 61.56 217.318 61.8373 218.129 62.008L221.041 62.616C222.427 62.9147 223.462 63.3947 224.145 64.056C224.849 64.696 225.201 65.5707 225.201 66.68C225.201 68.088 224.635 69.208 223.505 70.04C222.374 70.872 220.87 71.288 218.993 71.288ZM238.681 76.984C238.254 76.984 237.934 76.8667 237.721 76.632C237.507 76.4187 237.401 76.0987 237.401 75.672V56.536C237.401 56.1093 237.507 55.7893 237.721 55.576C237.934 55.3413 238.243 55.224 238.649 55.224C239.075 55.224 239.395 55.3413 239.609 55.576C239.843 55.7893 239.961 56.1093 239.961 56.536V59.576L239.609 59.128C239.95 57.912 240.622 56.952 241.625 56.248C242.649 55.5227 243.865 55.16 245.273 55.16C246.659 55.16 247.865 55.4907 248.889 56.152C249.934 56.792 250.734 57.72 251.289 58.936C251.865 60.1307 252.153 61.56 252.153 63.224C252.153 64.8667 251.865 66.296 251.289 67.512C250.734 68.7067 249.945 69.6347 248.921 70.296C247.897 70.9573 246.681 71.288 245.273 71.288C243.865 71.288 242.659 70.936 241.657 70.232C240.654 69.5067 239.971 68.5467 239.609 67.352H239.993V75.672C239.993 76.0987 239.875 76.4187 239.641 76.632C239.406 76.8667 239.086 76.984 238.681 76.984ZM244.729 69.208C245.71 69.208 246.553 68.9733 247.257 68.504C247.982 68.0347 248.537 67.352 248.921 66.456C249.326 65.56 249.529 64.4827 249.529 63.224C249.529 61.2827 249.091 59.8 248.217 58.776C247.363 57.752 246.201 57.24 244.729 57.24C243.769 57.24 242.926 57.4747 242.201 57.944C241.475 58.392 240.91 59.064 240.505 59.96C240.121 60.8347 239.929 61.9227 239.929 63.224C239.929 65.144 240.366 66.6267 241.241 67.672C242.115 68.696 243.278 69.208 244.729 69.208ZM257.337 71.16C256.91 71.16 256.59 71.0427 256.377 70.808C256.164 70.552 256.057 70.2 256.057 69.752V56.664C256.057 56.216 256.164 55.8747 256.377 55.64C256.59 55.4053 256.91 55.288 257.337 55.288C257.742 55.288 258.062 55.4053 258.297 55.64C258.532 55.8747 258.649 56.216 258.649 56.664V69.752C258.649 70.2 258.532 70.552 258.297 70.808C258.084 71.0427 257.764 71.16 257.337 71.16ZM257.337 51.704C256.804 51.704 256.388 51.5653 256.089 51.288C255.79 50.9893 255.641 50.5947 255.641 50.104C255.641 49.592 255.79 49.208 256.089 48.952C256.388 48.6747 256.804 48.536 257.337 48.536C257.892 48.536 258.308 48.6747 258.585 48.952C258.884 49.208 259.033 49.592 259.033 50.104C259.033 50.5947 258.884 50.9893 258.585 51.288C258.308 51.5653 257.892 51.704 257.337 51.704ZM269.735 71.288C268.519 71.288 267.495 71.0747 266.663 70.648C265.852 70.2 265.244 69.56 264.839 68.728C264.433 67.8747 264.231 66.84 264.231 65.624V57.464H262.087C261.724 57.464 261.447 57.3787 261.255 57.208C261.062 57.016 260.966 56.76 260.966 56.44C260.966 56.12 261.062 55.8747 261.255 55.704C261.447 55.5333 261.724 55.448 262.087 55.448H264.231V51.768C264.231 51.3413 264.348 51.0213 264.583 50.808C264.817 50.5733 265.137 50.456 265.543 50.456C265.948 50.456 266.257 50.5733 266.471 50.808C266.705 51.0213 266.823 51.3413 266.823 51.768V55.448H270.855C271.217 55.448 271.495 55.5333 271.687 55.704C271.879 55.8747 271.975 56.12 271.975 56.44C271.975 56.76 271.879 57.016 271.687 57.208C271.495 57.3787 271.217 57.464 270.855 57.464H266.823V65.368C266.823 66.584 267.079 67.512 267.591 68.152C268.103 68.7707 268.935 69.08 270.087 69.08C270.492 69.08 270.833 69.0373 271.111 68.952C271.409 68.8667 271.655 68.824 271.847 68.824C272.039 68.8027 272.199 68.8667 272.327 69.016C272.455 69.1653 272.519 69.4213 272.519 69.784C272.519 70.04 272.465 70.2747 272.359 70.488C272.273 70.7013 272.113 70.8507 271.879 70.936C271.623 71.0213 271.281 71.096 270.855 71.16C270.449 71.2453 270.076 71.288 269.735 71.288ZM281.118 71.288C279.56 71.288 278.216 70.9467 277.086 70.264C275.955 69.5813 275.08 68.632 274.462 67.416C273.864 66.1787 273.566 64.7493 273.566 63.128C273.566 61.8907 273.736 60.7813 274.078 59.8C274.419 58.8187 274.92 57.9867 275.582 57.304C276.243 56.6 277.032 56.0667 277.95 55.704C278.888 55.3413 279.944 55.16 281.118 55.16C281.886 55.16 282.686 55.2773 283.518 55.512C284.35 55.7467 285.107 56.152 285.79 56.728C286.003 56.8773 286.142 57.0587 286.206 57.272C286.27 57.4853 286.27 57.6987 286.206 57.912C286.142 58.104 286.035 58.2747 285.886 58.424C285.736 58.552 285.544 58.6267 285.31 58.648C285.096 58.6693 284.872 58.5947 284.638 58.424C284.083 57.9973 283.518 57.6987 282.942 57.528C282.366 57.3573 281.811 57.272 281.278 57.272C280.446 57.272 279.72 57.4107 279.102 57.688C278.483 57.944 277.96 58.3173 277.534 58.808C277.107 59.2987 276.776 59.9067 276.542 60.632C276.328 61.3573 276.222 62.2 276.222 63.16C276.222 65.016 276.659 66.488 277.534 67.576C278.408 68.6427 279.656 69.176 281.278 69.176C281.811 69.176 282.355 69.0907 282.91 68.92C283.486 68.7493 284.062 68.4507 284.638 68.024C284.872 67.8533 285.096 67.7787 285.31 67.8C285.523 67.8213 285.704 67.9067 285.854 68.056C286.003 68.184 286.099 68.3547 286.142 68.568C286.206 68.7813 286.206 68.9947 286.142 69.208C286.078 69.4 285.939 69.5707 285.726 69.72C285.043 70.2747 284.296 70.68 283.486 70.936C282.675 71.1707 281.886 71.288 281.118 71.288ZM290.618 71.224C290.192 71.224 289.872 71.1067 289.658 70.872C289.445 70.6373 289.338 70.3067 289.338 69.88V49.528C289.338 49.1013 289.445 48.7813 289.658 48.568C289.872 48.3333 290.192 48.216 290.618 48.216C291.024 48.216 291.344 48.3333 291.578 48.568C291.813 48.7813 291.93 49.1013 291.93 49.528V58.904H291.514C291.962 57.6667 292.688 56.7387 293.69 56.12C294.714 55.48 295.888 55.16 297.21 55.16C298.448 55.16 299.472 55.384 300.282 55.832C301.114 56.28 301.733 56.9627 302.138 57.88C302.544 58.776 302.746 59.9173 302.746 61.304V69.88C302.746 70.3067 302.629 70.6373 302.394 70.872C302.181 71.1067 301.872 71.224 301.466 71.224C301.04 71.224 300.709 71.1067 300.474 70.872C300.261 70.6373 300.154 70.3067 300.154 69.88V61.464C300.154 60.0133 299.866 58.9573 299.29 58.296C298.736 57.6133 297.84 57.272 296.602 57.272C295.173 57.272 294.032 57.72 293.178 58.616C292.346 59.4907 291.93 60.664 291.93 62.136V69.88C291.93 70.776 291.493 71.224 290.618 71.224ZM313.446 71.288C312.059 71.288 310.843 70.9573 309.798 70.296C308.774 69.6347 307.974 68.7067 307.398 67.512C306.843 66.296 306.566 64.8667 306.566 63.224C306.566 61.56 306.843 60.1307 307.398 58.936C307.974 57.72 308.774 56.792 309.798 56.152C310.843 55.4907 312.059 55.16 313.446 55.16C314.854 55.16 316.059 55.512 317.062 56.216C318.064 56.92 318.736 57.8693 319.078 59.064H318.726V49.528C318.726 49.1013 318.832 48.7813 319.046 48.568C319.28 48.3333 319.611 48.216 320.038 48.216C320.443 48.216 320.752 48.3333 320.966 48.568C321.2 48.7813 321.318 49.1013 321.318 49.528V69.88C321.318 70.3067 321.211 70.6373 320.998 70.872C320.784 71.1067 320.464 71.224 320.038 71.224C319.632 71.224 319.312 71.1067 319.078 70.872C318.864 70.6373 318.758 70.3067 318.758 69.88V66.84L319.11 67.288C318.768 68.504 318.086 69.4747 317.062 70.2C316.059 70.9253 314.854 71.288 313.446 71.288ZM313.99 69.208C314.95 69.208 315.792 68.9733 316.518 68.504C317.243 68.0347 317.798 67.352 318.182 66.456C318.587 65.56 318.79 64.4827 318.79 63.224C318.79 61.2827 318.352 59.8 317.478 58.776C316.624 57.752 315.462 57.24 313.99 57.24C313.008 57.24 312.155 57.4747 311.43 57.944C310.726 58.392 310.171 59.064 309.766 59.96C309.382 60.8347 309.19 61.9227 309.19 63.224C309.19 65.144 309.627 66.6267 310.502 67.672C311.376 68.696 312.539 69.208 313.99 69.208ZM333.19 71.288C331.547 71.288 330.129 70.968 328.934 70.328C327.761 69.6667 326.843 68.7387 326.182 67.544C325.542 66.3493 325.222 64.92 325.222 63.256C325.222 61.6347 325.542 60.2267 326.182 59.032C326.822 57.816 327.697 56.8667 328.806 56.184C329.937 55.5013 331.238 55.16 332.71 55.16C333.755 55.16 334.694 55.3413 335.526 55.704C336.358 56.0453 337.062 56.5467 337.638 57.208C338.235 57.8693 338.683 58.6693 338.982 59.608C339.302 60.5467 339.462 61.6027 339.462 62.776C339.462 63.1173 339.366 63.3733 339.174 63.544C338.982 63.6933 338.705 63.768 338.342 63.768H327.206V62.072H337.734L337.222 62.488C337.222 61.336 337.051 60.3653 336.71 59.576C336.369 58.7653 335.867 58.1467 335.206 57.72C334.566 57.2933 333.755 57.08 332.774 57.08C331.686 57.08 330.758 57.336 329.99 57.848C329.243 58.3387 328.678 59.032 328.294 59.928C327.91 60.8027 327.718 61.8267 327.718 63V63.192C327.718 65.1547 328.187 66.648 329.126 67.672C330.086 68.696 331.441 69.208 333.19 69.208C333.915 69.208 334.63 69.112 335.334 68.92C336.059 68.728 336.763 68.408 337.446 67.96C337.745 67.768 338.011 67.6827 338.246 67.704C338.502 67.704 338.705 67.7787 338.854 67.928C339.003 68.056 339.099 68.2267 339.142 68.44C339.206 68.632 339.185 68.8453 339.078 69.08C338.993 69.3147 338.811 69.5173 338.534 69.688C337.83 70.2 336.998 70.5947 336.038 70.872C335.078 71.1493 334.129 71.288 333.19 71.288ZM349.805 71.288C348.248 71.288 346.904 70.9467 345.773 70.264C344.643 69.5813 343.768 68.632 343.149 67.416C342.552 66.1787 342.253 64.7493 342.253 63.128C342.253 61.8907 342.424 60.7813 342.765 59.8C343.107 58.8187 343.608 57.9867 344.269 57.304C344.931 56.6 345.72 56.0667 346.637 55.704C347.576 55.3413 348.632 55.16 349.805 55.16C350.573 55.16 351.373 55.2773 352.205 55.512C353.037 55.7467 353.795 56.152 354.477 56.728C354.691 56.8773 354.829 57.0587 354.893 57.272C354.957 57.4853 354.957 57.6987 354.893 57.912C354.829 58.104 354.723 58.2747 354.573 58.424C354.424 58.552 354.232 58.6267 353.997 58.648C353.784 58.6693 353.56 58.5947 353.325 58.424C352.771 57.9973 352.205 57.6987 351.629 57.528C351.053 57.3573 350.499 57.272 349.965 57.272C349.133 57.272 348.408 57.4107 347.789 57.688C347.171 57.944 346.648 58.3173 346.221 58.808C345.795 59.2987 345.464 59.9067 345.229 60.632C345.016 61.3573 344.909 62.2 344.909 63.16C344.909 65.016 345.347 66.488 346.221 67.576C347.096 68.6427 348.344 69.176 349.965 69.176C350.499 69.176 351.043 69.0907 351.597 68.92C352.173 68.7493 352.749 68.4507 353.325 68.024C353.56 67.8533 353.784 67.7787 353.997 67.8C354.211 67.8213 354.392 67.9067 354.541 68.056C354.691 68.184 354.787 68.3547 354.829 68.568C354.893 68.7813 354.893 68.9947 354.829 69.208C354.765 69.4 354.627 69.5707 354.413 69.72C353.731 70.2747 352.984 70.68 352.173 70.936C351.363 71.1707 350.573 71.288 349.805 71.288ZM359.306 71.224C358.879 71.224 358.559 71.1067 358.346 70.872C358.132 70.6373 358.026 70.3067 358.026 69.88V49.528C358.026 49.1013 358.132 48.7813 358.346 48.568C358.559 48.3333 358.879 48.216 359.306 48.216C359.711 48.216 360.031 48.3333 360.266 48.568C360.5 48.7813 360.618 49.1013 360.618 49.528V62.36H360.682L367.242 56.088C367.54 55.8107 367.796 55.5973 368.01 55.448C368.244 55.2987 368.554 55.224 368.938 55.224C369.279 55.224 369.546 55.32 369.738 55.512C369.93 55.6827 370.015 55.9067 369.994 56.184C369.994 56.44 369.866 56.7173 369.61 57.016L362.634 63.64V62.232L370.218 69.368C370.516 69.6667 370.666 69.9547 370.666 70.232C370.666 70.5093 370.559 70.744 370.346 70.936C370.154 71.128 369.898 71.224 369.578 71.224C369.194 71.224 368.884 71.1493 368.65 71C368.415 70.8293 368.127 70.584 367.786 70.264L360.682 63.704H360.618V69.88C360.618 70.776 360.18 71.224 359.306 71.224Z" fill="white"/>
<rect x="25" y="12" width="48" height="23" rx="11.5" fill="#D9D9D9"/>
<path d="M38.0788 28.108C37.7028 28.108 37.3348 28.076 36.9748 28.012C36.6148 27.948 36.2788 27.856 35.9668 27.736C35.6628 27.616 35.3868 27.464 35.1388 27.28C35.0428 27.208 34.9748 27.128 34.9348 27.04C34.9028 26.944 34.8948 26.852 34.9108 26.764C34.9348 26.668 34.9748 26.588 35.0308 26.524C35.0948 26.46 35.1708 26.424 35.2588 26.416C35.3468 26.408 35.4428 26.436 35.5468 26.5C35.9068 26.756 36.2908 26.944 36.6988 27.064C37.1068 27.176 37.5668 27.232 38.0788 27.232C38.7988 27.232 39.3308 27.1 39.6748 26.836C40.0268 26.564 40.2028 26.208 40.2028 25.768C40.2028 25.408 40.0748 25.128 39.8188 24.928C39.5708 24.72 39.1508 24.556 38.5588 24.436L37.3108 24.184C36.5588 24.024 35.9948 23.764 35.6188 23.404C35.2508 23.036 35.0668 22.548 35.0668 21.94C35.0668 21.564 35.1428 21.224 35.2948 20.92C35.4468 20.608 35.6588 20.344 35.9308 20.128C36.2028 19.904 36.5268 19.732 36.9028 19.612C37.2788 19.492 37.6948 19.432 38.1508 19.432C38.6548 19.432 39.1228 19.504 39.5548 19.648C39.9948 19.784 40.3908 19.992 40.7428 20.272C40.8308 20.344 40.8908 20.428 40.9228 20.524C40.9548 20.612 40.9588 20.7 40.9348 20.788C40.9108 20.868 40.8668 20.936 40.8028 20.992C40.7468 21.048 40.6708 21.08 40.5748 21.088C40.4868 21.096 40.3868 21.064 40.2748 20.992C39.9548 20.752 39.6228 20.58 39.2788 20.476C38.9348 20.364 38.5548 20.308 38.1388 20.308C37.7148 20.308 37.3468 20.372 37.0348 20.5C36.7308 20.628 36.4908 20.816 36.3148 21.064C36.1468 21.304 36.0628 21.584 36.0628 21.904C36.0628 22.288 36.1788 22.592 36.4108 22.816C36.6508 23.04 37.0388 23.204 37.5748 23.308L38.8228 23.572C39.6308 23.74 40.2268 23.996 40.6108 24.34C41.0028 24.676 41.1988 25.136 41.1988 25.72C41.1988 26.072 41.1268 26.396 40.9828 26.692C40.8388 26.988 40.6308 27.244 40.3588 27.46C40.0868 27.668 39.7588 27.828 39.3748 27.94C38.9908 28.052 38.5588 28.108 38.0788 28.108ZM44.4296 28.108C44.0296 28.108 43.6696 28.032 43.3496 27.88C43.0376 27.72 42.7896 27.504 42.6056 27.232C42.4216 26.96 42.3296 26.656 42.3296 26.32C42.3296 25.888 42.4376 25.548 42.6536 25.3C42.8776 25.052 43.2416 24.876 43.7456 24.772C44.2576 24.668 44.9536 24.616 45.8336 24.616H46.3736V25.252H45.8456C45.1976 25.252 44.6856 25.284 44.3096 25.348C43.9416 25.404 43.6816 25.504 43.5296 25.648C43.3856 25.792 43.3136 25.996 43.3136 26.26C43.3136 26.588 43.4256 26.856 43.6496 27.064C43.8816 27.272 44.1936 27.376 44.5856 27.376C44.9056 27.376 45.1856 27.3 45.4256 27.148C45.6736 26.996 45.8656 26.788 46.0016 26.524C46.1456 26.26 46.2176 25.956 46.2176 25.612V24.244C46.2176 23.748 46.1176 23.392 45.9176 23.176C45.7176 22.952 45.3896 22.84 44.9336 22.84C44.6536 22.84 44.3736 22.876 44.0936 22.948C43.8136 23.02 43.5176 23.136 43.2056 23.296C43.0936 23.352 42.9976 23.372 42.9176 23.356C42.8376 23.332 42.7736 23.288 42.7256 23.224C42.6776 23.16 42.6496 23.088 42.6416 23.008C42.6336 22.92 42.6496 22.836 42.6896 22.756C42.7376 22.676 42.8096 22.612 42.9056 22.564C43.2576 22.388 43.6056 22.26 43.9496 22.18C44.2936 22.1 44.6216 22.06 44.9336 22.06C45.4376 22.06 45.8536 22.144 46.1816 22.312C46.5096 22.472 46.7536 22.72 46.9136 23.056C47.0736 23.384 47.1536 23.808 47.1536 24.328V27.58C47.1536 27.74 47.1136 27.864 47.0336 27.952C46.9616 28.04 46.8536 28.084 46.7096 28.084C46.5576 28.084 46.4416 28.04 46.3616 27.952C46.2816 27.864 46.2416 27.74 46.2416 27.58V26.644H46.3496C46.2856 26.948 46.1616 27.208 45.9776 27.424C45.8016 27.64 45.5816 27.808 45.3176 27.928C45.0536 28.048 44.7576 28.108 44.4296 28.108ZM50.7329 28.108C50.1569 28.108 49.7169 27.932 49.4129 27.58C49.1089 27.228 48.9569 26.724 48.9569 26.068V19.948C48.9569 19.788 48.9969 19.668 49.0769 19.588C49.1569 19.5 49.2769 19.456 49.4369 19.456C49.5889 19.456 49.7089 19.5 49.7969 19.588C49.8849 19.668 49.9289 19.788 49.9289 19.948V25.996C49.9289 26.428 50.0129 26.752 50.1809 26.968C50.3569 27.176 50.6129 27.28 50.9489 27.28C51.0209 27.28 51.0849 27.276 51.1409 27.268C51.1969 27.26 51.2529 27.256 51.3089 27.256C51.3969 27.248 51.4569 27.268 51.4889 27.316C51.5289 27.364 51.5489 27.46 51.5489 27.604C51.5489 27.748 51.5169 27.856 51.4529 27.928C51.3889 28 51.2849 28.048 51.1409 28.072C51.0769 28.08 51.0089 28.088 50.9369 28.096C50.8649 28.104 50.7969 28.108 50.7329 28.108ZM55.0771 28.108C54.4611 28.108 53.9291 27.988 53.4811 27.748C53.0411 27.5 52.6971 27.152 52.4491 26.704C52.2091 26.256 52.0891 25.72 52.0891 25.096C52.0891 24.488 52.2091 23.96 52.4491 23.512C52.6891 23.056 53.0171 22.7 53.4331 22.444C53.8571 22.188 54.3451 22.06 54.8971 22.06C55.2891 22.06 55.6411 22.128 55.9531 22.264C56.2651 22.392 56.5291 22.58 56.7451 22.828C56.9691 23.076 57.1371 23.376 57.2491 23.728C57.3691 24.08 57.4291 24.476 57.4291 24.916C57.4291 25.044 57.3931 25.14 57.3211 25.204C57.2491 25.26 57.1451 25.288 57.0091 25.288H52.8331V24.652H56.7811L56.5891 24.808C56.5891 24.376 56.5251 24.012 56.3971 23.716C56.2691 23.412 56.0811 23.18 55.8331 23.02C55.5931 22.86 55.2891 22.78 54.9211 22.78C54.5131 22.78 54.1651 22.876 53.8771 23.068C53.5971 23.252 53.3851 23.512 53.2411 23.848C53.0971 24.176 53.0251 24.56 53.0251 25V25.072C53.0251 25.808 53.2011 26.368 53.5531 26.752C53.9131 27.136 54.4211 27.328 55.0771 27.328C55.3491 27.328 55.6171 27.292 55.8811 27.22C56.1531 27.148 56.4171 27.028 56.6731 26.86C56.7851 26.788 56.8851 26.756 56.9731 26.764C57.0691 26.764 57.1451 26.792 57.2011 26.848C57.2571 26.896 57.2931 26.96 57.3091 27.04C57.3331 27.112 57.3251 27.192 57.2851 27.28C57.2531 27.368 57.1851 27.444 57.0811 27.508C56.8171 27.7 56.5051 27.848 56.1451 27.952C55.7851 28.056 55.4291 28.108 55.0771 28.108ZM60.8038 28.108C60.4438 28.108 60.0798 28.064 59.7118 27.976C59.3518 27.888 59.0158 27.736 58.7038 27.52C58.6238 27.464 58.5678 27.4 58.5358 27.328C58.5038 27.248 58.4918 27.172 58.4998 27.1C58.5158 27.02 58.5478 26.952 58.5958 26.896C58.6518 26.84 58.7158 26.808 58.7878 26.8C58.8678 26.784 58.9558 26.8 59.0518 26.848C59.3638 27.04 59.6638 27.176 59.9518 27.256C60.2478 27.328 60.5398 27.364 60.8278 27.364C61.2838 27.364 61.6278 27.28 61.8598 27.112C62.0918 26.944 62.2078 26.716 62.2078 26.428C62.2078 26.204 62.1318 26.028 61.9798 25.9C61.8278 25.764 61.5878 25.66 61.2598 25.588L60.1678 25.348C59.6638 25.244 59.2878 25.064 59.0398 24.808C58.7998 24.552 58.6798 24.22 58.6798 23.812C58.6798 23.452 58.7718 23.144 58.9558 22.888C59.1478 22.624 59.4158 22.42 59.7598 22.276C60.1038 22.132 60.5038 22.06 60.9598 22.06C61.3118 22.06 61.6438 22.108 61.9558 22.204C62.2758 22.292 62.5638 22.436 62.8198 22.636C62.8998 22.692 62.9518 22.76 62.9758 22.84C63.0078 22.912 63.0118 22.988 62.9878 23.068C62.9718 23.14 62.9358 23.204 62.8798 23.26C62.8238 23.308 62.7558 23.336 62.6758 23.344C62.5958 23.352 62.5118 23.328 62.4238 23.272C62.1838 23.112 61.9398 22.996 61.6918 22.924C61.4438 22.844 61.1998 22.804 60.9598 22.804C60.5118 22.804 60.1718 22.892 59.9398 23.068C59.7078 23.244 59.5918 23.476 59.5918 23.764C59.5918 23.988 59.6638 24.172 59.8078 24.316C59.9518 24.46 60.1758 24.564 60.4798 24.628L61.5718 24.856C62.0918 24.968 62.4798 25.148 62.7358 25.396C62.9998 25.636 63.1318 25.964 63.1318 26.38C63.1318 26.908 62.9198 27.328 62.4958 27.64C62.0718 27.952 61.5078 28.108 60.8038 28.108Z" fill="black"/>
<defs>
<linearGradient id="paint0_linear_9_37" x1="0" y1="45.5" x2="523" y2="45.5" gradientUnits="userSpaceOnUse">
<stop stop-color="#92F2FF"/>
<stop offset="0.42" stop-color="#FF7EF0"/>
<stop offset="0.78" stop-color="white"/>
</linearGradient>
</defs>
</svg>
