<svg width="590" height="371" viewBox="0 0 590 371" fill="none" xmlns="http://www.w3.org/2000/svg">
<rect x="28" y="39" width="521" height="89" rx="9" fill="black" stroke="url(#paint0_linear_9_26)" stroke-width="2"/>
<path d="M54.304 109.224C53.9627 109.224 53.6853 109.149 53.472 109C53.28 108.829 53.1627 108.616 53.12 108.36C53.0987 108.083 53.1627 107.773 53.312 107.432L62.112 87.4C62.304 86.9733 62.528 86.6747 62.784 86.504C63.0613 86.312 63.36 86.216 63.68 86.216C64 86.216 64.288 86.312 64.544 86.504C64.8213 86.6747 65.0453 86.9733 65.216 87.4L74.048 107.432C74.2187 107.773 74.2827 108.083 74.24 108.36C74.2187 108.637 74.112 108.851 73.92 109C73.728 109.149 73.4613 109.224 73.12 109.224C72.736 109.224 72.4267 109.128 72.192 108.936C71.9573 108.723 71.7653 108.424 71.616 108.04L69.248 102.568L70.528 103.24H56.768L58.08 102.568L55.744 108.04C55.552 108.445 55.3493 108.744 55.136 108.936C54.9227 109.128 54.6453 109.224 54.304 109.224ZM63.648 89.512L58.496 101.64L57.728 101.032H69.568L68.864 101.64L63.712 89.512H63.648ZM79.0245 109.224C78.5978 109.224 78.2778 109.107 78.0645 108.872C77.8512 108.637 77.7445 108.307 77.7445 107.88V94.536C77.7445 94.1093 77.8512 93.7893 78.0645 93.576C78.2778 93.3413 78.5872 93.224 78.9925 93.224C79.3978 93.224 79.7072 93.3413 79.9205 93.576C80.1552 93.7893 80.2725 94.1093 80.2725 94.536V97.288L79.9205 96.904C80.3685 95.6667 81.0938 94.7387 82.0965 94.12C83.1205 93.48 84.2938 93.16 85.6165 93.16C86.8538 93.16 87.8778 93.384 88.6885 93.832C89.5205 94.28 90.1392 94.9627 90.5445 95.88C90.9498 96.776 91.1525 97.9173 91.1525 99.304V107.88C91.1525 108.307 91.0352 108.637 90.8005 108.872C90.5872 109.107 90.2778 109.224 89.8725 109.224C89.4458 109.224 89.1152 109.107 88.8805 108.872C88.6672 108.637 88.5605 108.307 88.5605 107.88V99.464C88.5605 98.0133 88.2725 96.9573 87.6965 96.296C87.1418 95.6133 86.2458 95.272 85.0085 95.272C83.5792 95.272 82.4378 95.72 81.5845 96.616C80.7525 97.4907 80.3365 98.664 80.3365 100.136V107.88C80.3365 108.776 79.8992 109.224 79.0245 109.224ZM101.18 109.288C100.22 109.288 99.2493 109.171 98.268 108.936C97.308 108.701 96.412 108.296 95.58 107.72C95.3667 107.571 95.2173 107.4 95.132 107.208C95.0467 106.995 95.0147 106.792 95.036 106.6C95.0787 106.387 95.164 106.205 95.292 106.056C95.4413 105.907 95.612 105.821 95.804 105.8C96.0173 105.757 96.252 105.8 96.508 105.928C97.34 106.44 98.14 106.803 98.908 107.016C99.6973 107.208 100.476 107.304 101.244 107.304C102.46 107.304 103.377 107.08 103.996 106.632C104.615 106.184 104.924 105.576 104.924 104.808C104.924 104.211 104.721 103.741 104.316 103.4C103.911 103.037 103.271 102.76 102.396 102.568L99.484 101.928C98.14 101.651 97.1373 101.171 96.476 100.488C95.836 99.8053 95.516 98.92 95.516 97.832C95.516 96.872 95.7613 96.0507 96.252 95.368C96.764 94.664 97.4787 94.12 98.396 93.736C99.3133 93.352 100.38 93.16 101.596 93.16C102.535 93.16 103.42 93.288 104.252 93.544C105.105 93.7787 105.873 94.1627 106.556 94.696C106.769 94.8453 106.908 95.0267 106.972 95.24C107.057 95.432 107.068 95.6347 107.004 95.848C106.961 96.04 106.865 96.2107 106.716 96.36C106.567 96.488 106.385 96.5627 106.172 96.584C105.959 96.6053 105.735 96.5413 105.5 96.392C104.86 95.9653 104.209 95.656 103.548 95.464C102.887 95.2507 102.236 95.144 101.596 95.144C100.401 95.144 99.4947 95.3787 98.876 95.848C98.2573 96.3173 97.948 96.936 97.948 97.704C97.948 98.3013 98.14 98.792 98.524 99.176C98.908 99.56 99.5053 99.8373 100.316 100.008L103.228 100.616C104.615 100.915 105.649 101.395 106.332 102.056C107.036 102.696 107.388 103.571 107.388 104.68C107.388 106.088 106.823 107.208 105.692 108.04C104.561 108.872 103.057 109.288 101.18 109.288ZM116.402 109.224C116.039 109.224 115.719 109.128 115.442 108.936C115.164 108.744 114.94 108.435 114.77 108.008L110.002 95.048C109.874 94.6853 109.831 94.3653 109.874 94.088C109.938 93.8107 110.076 93.5973 110.29 93.448C110.503 93.2987 110.77 93.224 111.09 93.224C111.41 93.224 111.666 93.2987 111.858 93.448C112.071 93.5973 112.242 93.8747 112.37 94.28L116.85 107.08H116.082L120.69 94.28C120.839 93.896 121.02 93.6293 121.234 93.48C121.468 93.3093 121.767 93.224 122.13 93.224C122.471 93.224 122.759 93.3093 122.994 93.48C123.228 93.6507 123.41 93.9173 123.538 94.28L128.05 107.08H127.314L131.858 94.216C132.007 93.832 132.188 93.576 132.402 93.448C132.615 93.2987 132.871 93.224 133.17 93.224C133.511 93.224 133.767 93.3093 133.938 93.48C134.13 93.6507 134.236 93.8747 134.258 94.152C134.279 94.4293 134.226 94.728 134.098 95.048L129.33 108.008C129.18 108.413 128.956 108.723 128.658 108.936C128.38 109.128 128.06 109.224 127.698 109.224C127.335 109.224 127.015 109.128 126.738 108.936C126.46 108.723 126.247 108.413 126.098 108.008L121.362 95.016H122.738L118.034 108.008C117.884 108.413 117.671 108.723 117.394 108.936C117.116 109.128 116.786 109.224 116.402 109.224ZM144.721 109.288C143.079 109.288 141.66 108.968 140.465 108.328C139.292 107.667 138.375 106.739 137.713 105.544C137.073 104.349 136.753 102.92 136.753 101.256C136.753 99.6347 137.073 98.2267 137.713 97.032C138.353 95.816 139.228 94.8667 140.337 94.184C141.468 93.5013 142.769 93.16 144.241 93.16C145.287 93.16 146.225 93.3413 147.057 93.704C147.889 94.0453 148.593 94.5467 149.169 95.208C149.767 95.8693 150.215 96.6693 150.513 97.608C150.833 98.5467 150.993 99.6027 150.993 100.776C150.993 101.117 150.897 101.373 150.705 101.544C150.513 101.693 150.236 101.768 149.873 101.768H138.737V100.072H149.265L148.753 100.488C148.753 99.336 148.583 98.3653 148.241 97.576C147.9 96.7653 147.399 96.1467 146.737 95.72C146.097 95.2933 145.287 95.08 144.305 95.08C143.217 95.08 142.289 95.336 141.521 95.848C140.775 96.3387 140.209 97.032 139.825 97.928C139.441 98.8027 139.249 99.8267 139.249 101V101.192C139.249 103.155 139.719 104.648 140.657 105.672C141.617 106.696 142.972 107.208 144.721 107.208C145.447 107.208 146.161 107.112 146.865 106.92C147.591 106.728 148.295 106.408 148.977 105.96C149.276 105.768 149.543 105.683 149.777 105.704C150.033 105.704 150.236 105.779 150.385 105.928C150.535 106.056 150.631 106.227 150.673 106.44C150.737 106.632 150.716 106.845 150.609 107.08C150.524 107.315 150.343 107.517 150.065 107.688C149.361 108.2 148.529 108.595 147.569 108.872C146.609 109.149 145.66 109.288 144.721 109.288ZM156.057 109.224C155.63 109.224 155.299 109.107 155.065 108.872C154.851 108.637 154.745 108.307 154.745 107.88V94.536C154.745 94.1093 154.851 93.7893 155.065 93.576C155.278 93.3413 155.587 93.224 155.993 93.224C156.398 93.224 156.707 93.3413 156.921 93.576C157.155 93.7893 157.273 94.1093 157.273 94.536V97.128H156.953C157.294 95.8693 157.945 94.8987 158.905 94.216C159.865 93.5333 161.049 93.1707 162.457 93.128C162.777 93.1067 163.033 93.1813 163.225 93.352C163.417 93.5013 163.523 93.768 163.545 94.152C163.566 94.5147 163.481 94.8027 163.289 95.016C163.097 95.2293 162.798 95.3573 162.393 95.4L161.881 95.464C160.43 95.592 159.31 96.0613 158.521 96.872C157.753 97.6613 157.369 98.7493 157.369 100.136V107.88C157.369 108.307 157.251 108.637 157.016 108.872C156.803 109.107 156.483 109.224 156.057 109.224ZM184.575 109.288C182.357 109.288 180.458 108.819 178.879 107.88C177.301 106.941 176.085 105.608 175.231 103.88C174.399 102.152 173.983 100.093 173.983 97.704C173.983 95.912 174.218 94.312 174.687 92.904C175.178 91.4747 175.871 90.2693 176.767 89.288C177.685 88.2853 178.805 87.5173 180.127 86.984C181.45 86.4293 182.933 86.152 184.575 86.152C185.898 86.152 187.157 86.344 188.351 86.728C189.546 87.0907 190.581 87.6347 191.455 88.36C191.733 88.5733 191.914 88.8187 191.999 89.096C192.106 89.352 192.117 89.608 192.031 89.864C191.967 90.0987 191.839 90.3013 191.647 90.472C191.477 90.6213 191.263 90.696 191.007 90.696C190.751 90.696 190.463 90.5893 190.143 90.376C189.375 89.7573 188.533 89.2987 187.615 89C186.698 88.7013 185.706 88.552 184.639 88.552C182.954 88.552 181.525 88.9147 180.351 89.64C179.178 90.344 178.293 91.3787 177.695 92.744C177.098 94.1093 176.799 95.7627 176.799 97.704C176.799 99.6453 177.098 101.309 177.695 102.696C178.293 104.061 179.178 105.107 180.351 105.832C181.525 106.536 182.954 106.888 184.639 106.888C185.685 106.888 186.677 106.739 187.615 106.44C188.554 106.12 189.418 105.651 190.207 105.032C190.527 104.819 190.815 104.723 191.071 104.744C191.327 104.744 191.541 104.819 191.711 104.968C191.882 105.117 191.999 105.309 192.063 105.544C192.149 105.779 192.149 106.024 192.063 106.28C191.999 106.536 191.839 106.76 191.583 106.952C190.687 107.72 189.631 108.307 188.415 108.712C187.221 109.096 185.941 109.288 184.575 109.288ZM201.334 109.288C199.819 109.288 198.507 108.957 197.398 108.296C196.288 107.635 195.424 106.707 194.806 105.512C194.208 104.296 193.91 102.867 193.91 101.224C193.91 99.9867 194.08 98.8773 194.422 97.896C194.763 96.8933 195.264 96.04 195.926 95.336C196.587 94.632 197.366 94.0987 198.262 93.736C199.179 93.352 200.203 93.16 201.334 93.16C202.848 93.16 204.16 93.4907 205.27 94.152C206.379 94.8133 207.232 95.752 207.83 96.968C208.448 98.1627 208.758 99.5813 208.758 101.224C208.758 102.461 208.587 103.571 208.246 104.552C207.904 105.533 207.403 106.387 206.742 107.112C206.08 107.816 205.291 108.36 204.374 108.744C203.478 109.107 202.464 109.288 201.334 109.288ZM201.334 107.208C202.294 107.208 203.136 106.973 203.862 106.504C204.587 106.035 205.142 105.352 205.526 104.456C205.931 103.56 206.134 102.483 206.134 101.224C206.134 99.2827 205.696 97.8 204.822 96.776C203.968 95.752 202.806 95.24 201.334 95.24C200.352 95.24 199.499 95.4747 198.774 95.944C198.07 96.392 197.515 97.064 197.11 97.96C196.726 98.8347 196.534 99.9227 196.534 101.224C196.534 103.144 196.971 104.627 197.846 105.672C198.72 106.696 199.883 107.208 201.334 107.208ZM213.963 109.224C213.536 109.224 213.205 109.107 212.971 108.872C212.757 108.637 212.651 108.307 212.651 107.88V94.536C212.651 94.1093 212.757 93.7893 212.971 93.576C213.184 93.3413 213.493 93.224 213.899 93.224C214.304 93.224 214.613 93.3413 214.827 93.576C215.061 93.7893 215.179 94.1093 215.179 94.536V97.128H214.859C215.2 95.8693 215.851 94.8987 216.811 94.216C217.771 93.5333 218.955 93.1707 220.363 93.128C220.683 93.1067 220.939 93.1813 221.131 93.352C221.323 93.5013 221.429 93.768 221.451 94.152C221.472 94.5147 221.387 94.8027 221.195 95.016C221.003 95.2293 220.704 95.3573 220.299 95.4L219.787 95.464C218.336 95.592 217.216 96.0613 216.427 96.872C215.659 97.6613 215.275 98.7493 215.275 100.136V107.88C215.275 108.307 215.157 108.637 214.923 108.872C214.709 109.107 214.389 109.224 213.963 109.224ZM225.4 114.984C224.973 114.984 224.653 114.867 224.44 114.632C224.226 114.419 224.12 114.099 224.12 113.672V94.536C224.12 94.1093 224.226 93.7893 224.44 93.576C224.653 93.3413 224.962 93.224 225.368 93.224C225.794 93.224 226.114 93.3413 226.328 93.576C226.562 93.7893 226.68 94.1093 226.68 94.536V97.576L226.328 97.128C226.669 95.912 227.341 94.952 228.344 94.248C229.368 93.5227 230.584 93.16 231.992 93.16C233.378 93.16 234.584 93.4907 235.608 94.152C236.653 94.792 237.453 95.72 238.008 96.936C238.584 98.1307 238.872 99.56 238.872 101.224C238.872 102.867 238.584 104.296 238.008 105.512C237.453 106.707 236.664 107.635 235.64 108.296C234.616 108.957 233.4 109.288 231.992 109.288C230.584 109.288 229.378 108.936 228.376 108.232C227.373 107.507 226.69 106.547 226.328 105.352H226.712V113.672C226.712 114.099 226.594 114.419 226.36 114.632C226.125 114.867 225.805 114.984 225.4 114.984ZM231.448 107.208C232.429 107.208 233.272 106.973 233.976 106.504C234.701 106.035 235.256 105.352 235.64 104.456C236.045 103.56 236.248 102.483 236.248 101.224C236.248 99.2827 235.81 97.8 234.936 96.776C234.082 95.752 232.92 95.24 231.448 95.24C230.488 95.24 229.645 95.4747 228.92 95.944C228.194 96.392 227.629 97.064 227.224 97.96C226.84 98.8347 226.648 99.9227 226.648 101.224C226.648 103.144 227.085 104.627 227.96 105.672C228.834 106.696 229.997 107.208 231.448 107.208ZM243.093 92.744C242.88 93.0213 242.656 93.1813 242.421 93.224C242.186 93.2453 241.984 93.2027 241.813 93.096C241.642 92.968 241.546 92.7867 241.525 92.552C241.525 92.3173 241.632 92.0613 241.845 91.784C242.186 91.336 242.421 90.888 242.549 90.44C242.677 89.9707 242.741 89.5547 242.741 89.192L242.869 89.832C242.314 89.832 241.866 89.672 241.525 89.352C241.205 89.0107 241.045 88.584 241.045 88.072C241.045 87.5387 241.194 87.112 241.493 86.792C241.813 86.472 242.229 86.312 242.741 86.312C243.296 86.312 243.733 86.504 244.053 86.888C244.373 87.2507 244.533 87.784 244.533 88.488C244.533 88.936 244.49 89.4053 244.405 89.896C244.32 90.3653 244.17 90.8453 243.957 91.336C243.744 91.8267 243.456 92.296 243.093 92.744ZM253.149 109.288C252.189 109.288 251.218 109.171 250.237 108.936C249.277 108.701 248.381 108.296 247.549 107.72C247.335 107.571 247.186 107.4 247.101 107.208C247.015 106.995 246.983 106.792 247.005 106.6C247.047 106.387 247.133 106.205 247.261 106.056C247.41 105.907 247.581 105.821 247.773 105.8C247.986 105.757 248.221 105.8 248.477 105.928C249.309 106.44 250.109 106.803 250.877 107.016C251.666 107.208 252.445 107.304 253.213 107.304C254.429 107.304 255.346 107.08 255.965 106.632C256.583 106.184 256.893 105.576 256.893 104.808C256.893 104.211 256.69 103.741 256.285 103.4C255.879 103.037 255.239 102.76 254.365 102.568L251.453 101.928C250.109 101.651 249.106 101.171 248.445 100.488C247.805 99.8053 247.485 98.92 247.485 97.832C247.485 96.872 247.73 96.0507 248.221 95.368C248.733 94.664 249.447 94.12 250.365 93.736C251.282 93.352 252.349 93.16 253.565 93.16C254.503 93.16 255.389 93.288 256.221 93.544C257.074 93.7787 257.842 94.1627 258.525 94.696C258.738 94.8453 258.877 95.0267 258.941 95.24C259.026 95.432 259.037 95.6347 258.973 95.848C258.93 96.04 258.834 96.2107 258.685 96.36C258.535 96.488 258.354 96.5627 258.141 96.584C257.927 96.6053 257.703 96.5413 257.469 96.392C256.829 95.9653 256.178 95.656 255.517 95.464C254.855 95.2507 254.205 95.144 253.565 95.144C252.37 95.144 251.463 95.3787 250.845 95.848C250.226 96.3173 249.917 96.936 249.917 97.704C249.917 98.3013 250.109 98.792 250.493 99.176C250.877 99.56 251.474 99.8373 252.285 100.008L255.197 100.616C256.583 100.915 257.618 101.395 258.301 102.056C259.005 102.696 259.357 103.571 259.357 104.68C259.357 106.088 258.791 107.208 257.661 108.04C256.53 108.872 255.026 109.288 253.149 109.288ZM273.221 109.224C272.794 109.224 272.464 109.107 272.229 108.872C272.016 108.616 271.909 108.275 271.909 107.848V87.784C271.909 87.336 272.026 87.0053 272.261 86.792C272.496 86.5573 272.826 86.44 273.253 86.44H280.837C283.248 86.44 285.104 87.0053 286.405 88.136C287.706 89.2667 288.357 90.8773 288.357 92.968C288.357 94.2907 288.058 95.4427 287.461 96.424C286.885 97.384 286.032 98.12 284.901 98.632C283.77 99.1227 282.416 99.368 280.837 99.368L281.157 98.952H281.797C282.629 98.952 283.354 99.1653 283.973 99.592C284.592 100.019 285.157 100.701 285.669 101.64L288.741 107.368C288.912 107.667 288.986 107.965 288.965 108.264C288.965 108.541 288.869 108.776 288.677 108.968C288.485 109.139 288.208 109.224 287.845 109.224C287.482 109.224 287.184 109.139 286.949 108.968C286.714 108.797 286.512 108.552 286.341 108.232L282.853 101.768C282.362 100.851 281.797 100.243 281.157 99.944C280.517 99.624 279.674 99.464 278.629 99.464H274.533V107.848C274.533 108.275 274.426 108.616 274.213 108.872C274 109.107 273.669 109.224 273.221 109.224ZM274.533 97.384H280.453C282.202 97.384 283.525 97.0213 284.421 96.296C285.317 95.5493 285.765 94.44 285.765 92.968C285.765 91.5387 285.317 90.4613 284.421 89.736C283.525 88.9893 282.202 88.616 280.453 88.616H274.533V97.384ZM294.723 109.224C294.275 109.224 293.923 109.107 293.667 108.872C293.433 108.616 293.315 108.253 293.315 107.784V87.88C293.315 87.4107 293.433 87.0587 293.667 86.824C293.923 86.568 294.286 86.44 294.755 86.44H306.371C306.734 86.44 307.011 86.536 307.203 86.728C307.395 86.92 307.491 87.1867 307.491 87.528C307.491 87.8907 307.395 88.168 307.203 88.36C307.011 88.552 306.734 88.648 306.371 88.648H295.939V96.52H305.699C306.062 96.52 306.339 96.616 306.531 96.808C306.745 97 306.851 97.2667 306.851 97.608C306.851 97.9707 306.745 98.248 306.531 98.44C306.339 98.632 306.062 98.728 305.699 98.728H295.939V107.784C295.939 108.744 295.534 109.224 294.723 109.224ZM312.159 109.224C311.732 109.224 311.401 109.107 311.167 108.872C310.953 108.616 310.847 108.275 310.847 107.848V87.784C310.847 87.336 310.964 87.0053 311.199 86.792C311.433 86.5573 311.764 86.44 312.191 86.44H319.775C322.185 86.44 324.041 87.0373 325.343 88.232C326.644 89.4053 327.295 91.0693 327.295 93.224C327.295 95.3573 326.644 97.0213 325.343 98.216C324.041 99.4107 322.185 100.008 319.775 100.008H313.471V107.848C313.471 108.275 313.364 108.616 313.151 108.872C312.937 109.107 312.607 109.224 312.159 109.224ZM313.471 97.8H319.455C321.183 97.8 322.484 97.416 323.359 96.648C324.255 95.8587 324.703 94.7173 324.703 93.224C324.703 91.7093 324.255 90.568 323.359 89.8C322.484 89.0107 321.183 88.616 319.455 88.616H313.471V97.8Z" fill="white"/>
<rect x="52" y="50" width="48" height="23" rx="11.5" fill="#D9D9D9"/>
<path d="M65.0788 66.108C64.7028 66.108 64.3348 66.076 63.9748 66.012C63.6148 65.948 63.2788 65.856 62.9668 65.736C62.6628 65.616 62.3868 65.464 62.1388 65.28C62.0428 65.208 61.9748 65.128 61.9348 65.04C61.9028 64.944 61.8948 64.852 61.9108 64.764C61.9348 64.668 61.9748 64.588 62.0308 64.524C62.0948 64.46 62.1708 64.424 62.2588 64.416C62.3468 64.408 62.4428 64.436 62.5468 64.5C62.9068 64.756 63.2908 64.944 63.6988 65.064C64.1068 65.176 64.5668 65.232 65.0788 65.232C65.7988 65.232 66.3308 65.1 66.6748 64.836C67.0268 64.564 67.2028 64.208 67.2028 63.768C67.2028 63.408 67.0748 63.128 66.8188 62.928C66.5708 62.72 66.1508 62.556 65.5588 62.436L64.3108 62.184C63.5588 62.024 62.9948 61.764 62.6188 61.404C62.2508 61.036 62.0668 60.548 62.0668 59.94C62.0668 59.564 62.1428 59.224 62.2948 58.92C62.4468 58.608 62.6588 58.344 62.9308 58.128C63.2028 57.904 63.5268 57.732 63.9028 57.612C64.2788 57.492 64.6948 57.432 65.1508 57.432C65.6548 57.432 66.1228 57.504 66.5548 57.648C66.9948 57.784 67.3908 57.992 67.7428 58.272C67.8308 58.344 67.8908 58.428 67.9228 58.524C67.9548 58.612 67.9588 58.7 67.9348 58.788C67.9108 58.868 67.8668 58.936 67.8028 58.992C67.7468 59.048 67.6708 59.08 67.5748 59.088C67.4868 59.096 67.3868 59.064 67.2748 58.992C66.9548 58.752 66.6228 58.58 66.2788 58.476C65.9348 58.364 65.5548 58.308 65.1388 58.308C64.7148 58.308 64.3468 58.372 64.0348 58.5C63.7308 58.628 63.4908 58.816 63.3148 59.064C63.1468 59.304 63.0628 59.584 63.0628 59.904C63.0628 60.288 63.1788 60.592 63.4108 60.816C63.6508 61.04 64.0388 61.204 64.5748 61.308L65.8228 61.572C66.6308 61.74 67.2268 61.996 67.6108 62.34C68.0028 62.676 68.1988 63.136 68.1988 63.72C68.1988 64.072 68.1268 64.396 67.9828 64.692C67.8388 64.988 67.6308 65.244 67.3588 65.46C67.0868 65.668 66.7588 65.828 66.3748 65.94C65.9908 66.052 65.5588 66.108 65.0788 66.108ZM71.4296 66.108C71.0296 66.108 70.6696 66.032 70.3496 65.88C70.0376 65.72 69.7896 65.504 69.6056 65.232C69.4216 64.96 69.3296 64.656 69.3296 64.32C69.3296 63.888 69.4376 63.548 69.6536 63.3C69.8776 63.052 70.2416 62.876 70.7456 62.772C71.2576 62.668 71.9536 62.616 72.8336 62.616H73.3736V63.252H72.8456C72.1976 63.252 71.6856 63.284 71.3096 63.348C70.9416 63.404 70.6816 63.504 70.5296 63.648C70.3856 63.792 70.3136 63.996 70.3136 64.26C70.3136 64.588 70.4256 64.856 70.6496 65.064C70.8816 65.272 71.1936 65.376 71.5856 65.376C71.9056 65.376 72.1856 65.3 72.4256 65.148C72.6736 64.996 72.8656 64.788 73.0016 64.524C73.1456 64.26 73.2176 63.956 73.2176 63.612V62.244C73.2176 61.748 73.1176 61.392 72.9176 61.176C72.7176 60.952 72.3896 60.84 71.9336 60.84C71.6536 60.84 71.3736 60.876 71.0936 60.948C70.8136 61.02 70.5176 61.136 70.2056 61.296C70.0936 61.352 69.9976 61.372 69.9176 61.356C69.8376 61.332 69.7736 61.288 69.7256 61.224C69.6776 61.16 69.6496 61.088 69.6416 61.008C69.6336 60.92 69.6496 60.836 69.6896 60.756C69.7376 60.676 69.8096 60.612 69.9056 60.564C70.2576 60.388 70.6056 60.26 70.9496 60.18C71.2936 60.1 71.6216 60.06 71.9336 60.06C72.4376 60.06 72.8536 60.144 73.1816 60.312C73.5096 60.472 73.7536 60.72 73.9136 61.056C74.0736 61.384 74.1536 61.808 74.1536 62.328V65.58C74.1536 65.74 74.1136 65.864 74.0336 65.952C73.9616 66.04 73.8536 66.084 73.7096 66.084C73.5576 66.084 73.4416 66.04 73.3616 65.952C73.2816 65.864 73.2416 65.74 73.2416 65.58V64.644H73.3496C73.2856 64.948 73.1616 65.208 72.9776 65.424C72.8016 65.64 72.5816 65.808 72.3176 65.928C72.0536 66.048 71.7576 66.108 71.4296 66.108ZM77.7329 66.108C77.1569 66.108 76.7169 65.932 76.4129 65.58C76.1089 65.228 75.9569 64.724 75.9569 64.068V57.948C75.9569 57.788 75.9969 57.668 76.0769 57.588C76.1569 57.5 76.2769 57.456 76.4369 57.456C76.5889 57.456 76.7089 57.5 76.7969 57.588C76.8849 57.668 76.9289 57.788 76.9289 57.948V63.996C76.9289 64.428 77.0129 64.752 77.1809 64.968C77.3569 65.176 77.6129 65.28 77.9489 65.28C78.0209 65.28 78.0849 65.276 78.1409 65.268C78.1969 65.26 78.2529 65.256 78.3089 65.256C78.3969 65.248 78.4569 65.268 78.4889 65.316C78.5289 65.364 78.5489 65.46 78.5489 65.604C78.5489 65.748 78.5169 65.856 78.4529 65.928C78.3889 66 78.2849 66.048 78.1409 66.072C78.0769 66.08 78.0089 66.088 77.9369 66.096C77.8649 66.104 77.7969 66.108 77.7329 66.108ZM82.0771 66.108C81.4611 66.108 80.9291 65.988 80.4811 65.748C80.0411 65.5 79.6971 65.152 79.4491 64.704C79.2091 64.256 79.0891 63.72 79.0891 63.096C79.0891 62.488 79.2091 61.96 79.4491 61.512C79.6891 61.056 80.0171 60.7 80.4331 60.444C80.8571 60.188 81.3451 60.06 81.8971 60.06C82.2891 60.06 82.6411 60.128 82.9531 60.264C83.2651 60.392 83.5291 60.58 83.7451 60.828C83.9691 61.076 84.1371 61.376 84.2491 61.728C84.3691 62.08 84.4291 62.476 84.4291 62.916C84.4291 63.044 84.3931 63.14 84.3211 63.204C84.2491 63.26 84.1451 63.288 84.0091 63.288H79.8331V62.652H83.7811L83.5891 62.808C83.5891 62.376 83.5251 62.012 83.3971 61.716C83.2691 61.412 83.0811 61.18 82.8331 61.02C82.5931 60.86 82.2891 60.78 81.9211 60.78C81.5131 60.78 81.1651 60.876 80.8771 61.068C80.5971 61.252 80.3851 61.512 80.2411 61.848C80.0971 62.176 80.0251 62.56 80.0251 63V63.072C80.0251 63.808 80.2011 64.368 80.5531 64.752C80.9131 65.136 81.4211 65.328 82.0771 65.328C82.3491 65.328 82.6171 65.292 82.8811 65.22C83.1531 65.148 83.4171 65.028 83.6731 64.86C83.7851 64.788 83.8851 64.756 83.9731 64.764C84.0691 64.764 84.1451 64.792 84.2011 64.848C84.2571 64.896 84.2931 64.96 84.3091 65.04C84.3331 65.112 84.3251 65.192 84.2851 65.28C84.2531 65.368 84.1851 65.444 84.0811 65.508C83.8171 65.7 83.5051 65.848 83.1451 65.952C82.7851 66.056 82.4291 66.108 82.0771 66.108ZM87.8038 66.108C87.4438 66.108 87.0798 66.064 86.7118 65.976C86.3518 65.888 86.0158 65.736 85.7038 65.52C85.6238 65.464 85.5678 65.4 85.5358 65.328C85.5038 65.248 85.4918 65.172 85.4998 65.1C85.5158 65.02 85.5478 64.952 85.5958 64.896C85.6518 64.84 85.7158 64.808 85.7878 64.8C85.8678 64.784 85.9558 64.8 86.0518 64.848C86.3638 65.04 86.6638 65.176 86.9518 65.256C87.2478 65.328 87.5398 65.364 87.8278 65.364C88.2838 65.364 88.6278 65.28 88.8598 65.112C89.0918 64.944 89.2078 64.716 89.2078 64.428C89.2078 64.204 89.1318 64.028 88.9798 63.9C88.8278 63.764 88.5878 63.66 88.2598 63.588L87.1678 63.348C86.6638 63.244 86.2878 63.064 86.0398 62.808C85.7998 62.552 85.6798 62.22 85.6798 61.812C85.6798 61.452 85.7718 61.144 85.9558 60.888C86.1478 60.624 86.4158 60.42 86.7598 60.276C87.1038 60.132 87.5038 60.06 87.9598 60.06C88.3118 60.06 88.6438 60.108 88.9558 60.204C89.2758 60.292 89.5638 60.436 89.8198 60.636C89.8998 60.692 89.9518 60.76 89.9758 60.84C90.0078 60.912 90.0118 60.988 89.9878 61.068C89.9718 61.14 89.9358 61.204 89.8798 61.26C89.8238 61.308 89.7558 61.336 89.6758 61.344C89.5958 61.352 89.5118 61.328 89.4238 61.272C89.1838 61.112 88.9398 60.996 88.6918 60.924C88.4438 60.844 88.1998 60.804 87.9598 60.804C87.5118 60.804 87.1718 60.892 86.9398 61.068C86.7078 61.244 86.5918 61.476 86.5918 61.764C86.5918 61.988 86.6638 62.172 86.8078 62.316C86.9518 62.46 87.1758 62.564 87.4798 62.628L88.5718 62.856C89.0918 62.968 89.4798 63.148 89.7358 63.396C89.9998 63.636 90.1318 63.964 90.1318 64.38C90.1318 64.908 89.9198 65.328 89.4958 65.64C89.0718 65.952 88.5078 66.108 87.8038 66.108Z" fill="black"/>
<rect x="108" y="50" width="57" height="23" rx="11.5" fill="#FF007F"/>
<path d="M122.183 66.108C121.623 66.108 121.131 66.036 120.707 65.892C120.291 65.74 119.939 65.52 119.651 65.232C119.363 64.936 119.147 64.572 119.003 64.14C118.859 63.708 118.787 63.212 118.787 62.652V57.96C118.787 57.792 118.827 57.668 118.907 57.588C118.995 57.5 119.119 57.456 119.279 57.456C119.439 57.456 119.559 57.5 119.639 57.588C119.727 57.668 119.771 57.792 119.771 57.96V62.604C119.771 63.484 119.975 64.144 120.383 64.584C120.791 65.016 121.391 65.232 122.183 65.232C122.975 65.232 123.571 65.016 123.971 64.584C124.371 64.144 124.571 63.484 124.571 62.604V57.96C124.571 57.792 124.615 57.668 124.703 57.588C124.791 57.5 124.915 57.456 125.075 57.456C125.227 57.456 125.343 57.5 125.423 57.588C125.511 57.668 125.555 57.792 125.555 57.96V62.652C125.555 63.396 125.427 64.028 125.171 64.548C124.923 65.068 124.547 65.46 124.043 65.724C123.539 65.98 122.919 66.108 122.183 66.108ZM127.937 66.084C127.777 66.084 127.653 66.04 127.565 65.952C127.485 65.864 127.445 65.74 127.445 65.58V60.576C127.445 60.416 127.485 60.296 127.565 60.216C127.645 60.128 127.761 60.084 127.913 60.084C128.065 60.084 128.181 60.128 128.261 60.216C128.349 60.296 128.393 60.416 128.393 60.576V61.548H128.273C128.401 61.076 128.645 60.712 129.005 60.456C129.365 60.2 129.809 60.064 130.337 60.048C130.457 60.04 130.553 60.068 130.625 60.132C130.697 60.188 130.737 60.288 130.745 60.432C130.753 60.568 130.721 60.676 130.649 60.756C130.577 60.836 130.465 60.884 130.313 60.9L130.121 60.924C129.577 60.972 129.157 61.148 128.861 61.452C128.573 61.748 128.429 62.156 128.429 62.676V65.58C128.429 65.74 128.385 65.864 128.297 65.952C128.217 66.04 128.097 66.084 127.937 66.084ZM134.256 68.268C133.832 68.268 133.416 68.216 133.008 68.112C132.608 68.016 132.244 67.86 131.916 67.644C131.82 67.588 131.756 67.52 131.724 67.44C131.7 67.36 131.696 67.28 131.712 67.2C131.728 67.128 131.764 67.06 131.82 66.996C131.876 66.94 131.94 66.904 132.012 66.888C132.092 66.872 132.172 66.884 132.252 66.924C132.604 67.14 132.94 67.288 133.26 67.368C133.58 67.448 133.896 67.488 134.208 67.488C134.776 67.488 135.204 67.336 135.492 67.032C135.788 66.728 135.936 66.288 135.936 65.712V64.356H136.056C135.936 64.82 135.68 65.188 135.288 65.46C134.904 65.732 134.452 65.868 133.932 65.868C133.396 65.868 132.932 65.748 132.54 65.508C132.148 65.26 131.844 64.916 131.628 64.476C131.42 64.036 131.316 63.528 131.316 62.952C131.316 62.52 131.376 62.128 131.496 61.776C131.616 61.416 131.788 61.112 132.012 60.864C132.244 60.608 132.52 60.412 132.84 60.276C133.168 60.132 133.532 60.06 133.932 60.06C134.46 60.06 134.916 60.196 135.3 60.468C135.684 60.732 135.932 61.092 136.044 61.548L135.924 61.692V60.576C135.924 60.416 135.964 60.296 136.044 60.216C136.132 60.128 136.252 60.084 136.404 60.084C136.564 60.084 136.684 60.128 136.764 60.216C136.844 60.296 136.884 60.416 136.884 60.576V65.58C136.884 66.468 136.66 67.136 136.212 67.584C135.772 68.04 135.12 68.268 134.256 68.268ZM134.112 65.076C134.488 65.076 134.812 64.992 135.084 64.824C135.356 64.648 135.564 64.4 135.708 64.08C135.86 63.76 135.936 63.384 135.936 62.952C135.936 62.304 135.772 61.792 135.444 61.416C135.116 61.032 134.672 60.84 134.112 60.84C133.744 60.84 133.424 60.928 133.152 61.104C132.88 61.272 132.668 61.516 132.516 61.836C132.372 62.148 132.3 62.52 132.3 62.952C132.3 63.6 132.464 64.116 132.792 64.5C133.12 64.884 133.56 65.076 134.112 65.076ZM141.335 66.108C140.719 66.108 140.187 65.988 139.739 65.748C139.299 65.5 138.955 65.152 138.707 64.704C138.467 64.256 138.347 63.72 138.347 63.096C138.347 62.488 138.467 61.96 138.707 61.512C138.947 61.056 139.275 60.7 139.691 60.444C140.115 60.188 140.603 60.06 141.155 60.06C141.547 60.06 141.899 60.128 142.211 60.264C142.523 60.392 142.787 60.58 143.003 60.828C143.227 61.076 143.395 61.376 143.507 61.728C143.627 62.08 143.687 62.476 143.687 62.916C143.687 63.044 143.651 63.14 143.579 63.204C143.507 63.26 143.403 63.288 143.267 63.288H139.091V62.652H143.039L142.847 62.808C142.847 62.376 142.783 62.012 142.655 61.716C142.527 61.412 142.339 61.18 142.091 61.02C141.851 60.86 141.547 60.78 141.179 60.78C140.771 60.78 140.423 60.876 140.135 61.068C139.855 61.252 139.643 61.512 139.499 61.848C139.355 62.176 139.283 62.56 139.283 63V63.072C139.283 63.808 139.459 64.368 139.811 64.752C140.171 65.136 140.679 65.328 141.335 65.328C141.607 65.328 141.875 65.292 142.139 65.22C142.411 65.148 142.675 65.028 142.931 64.86C143.043 64.788 143.143 64.756 143.231 64.764C143.327 64.764 143.403 64.792 143.459 64.848C143.515 64.896 143.551 64.96 143.567 65.04C143.591 65.112 143.583 65.192 143.543 65.28C143.511 65.368 143.443 65.444 143.339 65.508C143.075 65.7 142.763 65.848 142.403 65.952C142.043 66.056 141.687 66.108 141.335 66.108ZM145.574 66.084C145.414 66.084 145.294 66.04 145.214 65.952C145.134 65.864 145.094 65.74 145.094 65.58V60.576C145.094 60.416 145.134 60.296 145.214 60.216C145.294 60.128 145.41 60.084 145.562 60.084C145.714 60.084 145.83 60.128 145.91 60.216C145.998 60.296 146.042 60.416 146.042 60.576V61.608L145.91 61.464C146.078 61 146.35 60.652 146.726 60.42C147.11 60.18 147.55 60.06 148.046 60.06C148.51 60.06 148.894 60.144 149.198 60.312C149.51 60.48 149.742 60.736 149.894 61.08C150.046 61.416 150.122 61.844 150.122 62.364V65.58C150.122 65.74 150.078 65.864 149.99 65.952C149.91 66.04 149.794 66.084 149.642 66.084C149.482 66.084 149.358 66.04 149.27 65.952C149.19 65.864 149.15 65.74 149.15 65.58V62.424C149.15 61.88 149.042 61.484 148.826 61.236C148.618 60.98 148.282 60.852 147.818 60.852C147.282 60.852 146.854 61.02 146.534 61.356C146.222 61.684 146.066 62.124 146.066 62.676V65.58C146.066 65.916 145.902 66.084 145.574 66.084ZM154.254 66.108C153.798 66.108 153.414 66.028 153.102 65.868C152.798 65.7 152.57 65.46 152.418 65.148C152.266 64.828 152.19 64.44 152.19 63.984V60.924H151.386C151.25 60.924 151.146 60.892 151.074 60.828C151.002 60.756 150.966 60.66 150.966 60.54C150.966 60.42 151.002 60.328 151.074 60.264C151.146 60.2 151.25 60.168 151.386 60.168H152.19V58.788C152.19 58.628 152.234 58.508 152.322 58.428C152.41 58.34 152.53 58.296 152.682 58.296C152.834 58.296 152.95 58.34 153.03 58.428C153.118 58.508 153.162 58.628 153.162 58.788V60.168H154.674C154.81 60.168 154.914 60.2 154.986 60.264C155.058 60.328 155.094 60.42 155.094 60.54C155.094 60.66 155.058 60.756 154.986 60.828C154.914 60.892 154.81 60.924 154.674 60.924H153.162V63.888C153.162 64.344 153.258 64.692 153.45 64.932C153.642 65.164 153.954 65.28 154.386 65.28C154.538 65.28 154.666 65.264 154.77 65.232C154.882 65.2 154.974 65.184 155.046 65.184C155.118 65.176 155.178 65.2 155.226 65.256C155.274 65.312 155.298 65.408 155.298 65.544C155.298 65.64 155.278 65.728 155.238 65.808C155.206 65.888 155.146 65.944 155.058 65.976C154.962 66.008 154.834 66.036 154.674 66.06C154.522 66.092 154.382 66.108 154.254 66.108Z" fill="white"/>
<rect x="28" y="141" width="521" height="89" rx="9" fill="black" stroke="url(#paint1_linear_9_26)" stroke-width="2"/>
<path d="M56.096 211.224C55.6693 211.224 55.3387 211.107 55.104 210.872C54.8907 210.616 54.784 210.275 54.784 209.848V189.784C54.784 189.336 54.9013 189.005 55.136 188.792C55.3707 188.557 55.7013 188.44 56.128 188.44H63.712C66.1227 188.44 67.9787 189.005 69.28 190.136C70.5813 191.267 71.232 192.877 71.232 194.968C71.232 196.291 70.9333 197.443 70.336 198.424C69.76 199.384 68.9067 200.12 67.776 200.632C66.6453 201.123 65.2907 201.368 63.712 201.368L64.032 200.952H64.672C65.504 200.952 66.2293 201.165 66.848 201.592C67.4667 202.019 68.032 202.701 68.544 203.64L71.616 209.368C71.7867 209.667 71.8613 209.965 71.84 210.264C71.84 210.541 71.744 210.776 71.552 210.968C71.36 211.139 71.0827 211.224 70.72 211.224C70.3573 211.224 70.0587 211.139 69.824 210.968C69.5893 210.797 69.3867 210.552 69.216 210.232L65.728 203.768C65.2373 202.851 64.672 202.243 64.032 201.944C63.392 201.624 62.5493 201.464 61.504 201.464H57.408V209.848C57.408 210.275 57.3013 210.616 57.088 210.872C56.8747 211.107 56.544 211.224 56.096 211.224ZM57.408 199.384H63.328C65.0773 199.384 66.4 199.021 67.296 198.296C68.192 197.549 68.64 196.44 68.64 194.968C68.64 193.539 68.192 192.461 67.296 191.736C66.4 190.989 65.0773 190.616 63.328 190.616H57.408V199.384ZM82.5025 211.288C80.8598 211.288 79.4412 210.968 78.2465 210.328C77.0732 209.667 76.1558 208.739 75.4945 207.544C74.8545 206.349 74.5345 204.92 74.5345 203.256C74.5345 201.635 74.8545 200.227 75.4945 199.032C76.1345 197.816 77.0092 196.867 78.1185 196.184C79.2492 195.501 80.5505 195.16 82.0225 195.16C83.0678 195.16 84.0065 195.341 84.8385 195.704C85.6705 196.045 86.3745 196.547 86.9505 197.208C87.5478 197.869 87.9958 198.669 88.2945 199.608C88.6145 200.547 88.7745 201.603 88.7745 202.776C88.7745 203.117 88.6785 203.373 88.4865 203.544C88.2945 203.693 88.0172 203.768 87.6545 203.768H76.5185V202.072H87.0465L86.5345 202.488C86.5345 201.336 86.3638 200.365 86.0225 199.576C85.6812 198.765 85.1798 198.147 84.5185 197.72C83.8785 197.293 83.0678 197.08 82.0865 197.08C80.9985 197.08 80.0705 197.336 79.3025 197.848C78.5558 198.339 77.9905 199.032 77.6065 199.928C77.2225 200.803 77.0305 201.827 77.0305 203V203.192C77.0305 205.155 77.4998 206.648 78.4385 207.672C79.3985 208.696 80.7532 209.208 82.5025 209.208C83.2278 209.208 83.9425 209.112 84.6465 208.92C85.3718 208.728 86.0758 208.408 86.7585 207.96C87.0572 207.768 87.3238 207.683 87.5585 207.704C87.8145 207.704 88.0172 207.779 88.1665 207.928C88.3158 208.056 88.4118 208.227 88.4545 208.44C88.5185 208.632 88.4972 208.845 88.3905 209.08C88.3052 209.315 88.1238 209.517 87.8465 209.688C87.1425 210.2 86.3105 210.595 85.3505 210.872C84.3905 211.149 83.4412 211.288 82.5025 211.288ZM98.1302 211.224C97.7676 211.224 97.4476 211.128 97.1703 210.936C96.8929 210.723 96.6583 210.403 96.4663 209.976L90.9303 197.048C90.7809 196.728 90.7276 196.429 90.7703 196.152C90.8129 195.875 90.9409 195.651 91.1543 195.48C91.3676 195.309 91.6663 195.224 92.0503 195.224C92.3916 195.224 92.6583 195.299 92.8503 195.448C93.0423 195.597 93.2129 195.864 93.3623 196.248L98.6103 209.08H97.7463L103.09 196.248C103.24 195.864 103.41 195.597 103.602 195.448C103.794 195.299 104.072 195.224 104.434 195.224C104.776 195.224 105.032 195.309 105.202 195.48C105.394 195.651 105.501 195.875 105.522 196.152C105.565 196.408 105.522 196.696 105.394 197.016L99.7943 209.976C99.6449 210.403 99.4209 210.723 99.1223 210.936C98.8449 211.128 98.5143 211.224 98.1302 211.224ZM110.087 211.16C109.66 211.16 109.34 211.043 109.127 210.808C108.914 210.552 108.807 210.2 108.807 209.752V196.664C108.807 196.216 108.914 195.875 109.127 195.64C109.34 195.405 109.66 195.288 110.087 195.288C110.492 195.288 110.812 195.405 111.047 195.64C111.282 195.875 111.399 196.216 111.399 196.664V209.752C111.399 210.2 111.282 210.552 111.047 210.808C110.834 211.043 110.514 211.16 110.087 211.16ZM110.087 191.704C109.554 191.704 109.138 191.565 108.839 191.288C108.54 190.989 108.391 190.595 108.391 190.104C108.391 189.592 108.54 189.208 108.839 188.952C109.138 188.675 109.554 188.536 110.087 188.536C110.642 188.536 111.058 188.675 111.335 188.952C111.634 189.208 111.783 189.592 111.783 190.104C111.783 190.595 111.634 190.989 111.335 191.288C111.058 191.565 110.642 191.704 110.087 191.704ZM123.253 211.288C121.61 211.288 120.191 210.968 118.997 210.328C117.823 209.667 116.906 208.739 116.245 207.544C115.605 206.349 115.285 204.92 115.285 203.256C115.285 201.635 115.605 200.227 116.245 199.032C116.885 197.816 117.759 196.867 118.869 196.184C119.999 195.501 121.301 195.16 122.773 195.16C123.818 195.16 124.757 195.341 125.589 195.704C126.421 196.045 127.125 196.547 127.701 197.208C128.298 197.869 128.746 198.669 129.045 199.608C129.365 200.547 129.525 201.603 129.525 202.776C129.525 203.117 129.429 203.373 129.237 203.544C129.045 203.693 128.767 203.768 128.405 203.768H117.269V202.072H127.797L127.285 202.488C127.285 201.336 127.114 200.365 126.773 199.576C126.431 198.765 125.93 198.147 125.269 197.72C124.629 197.293 123.818 197.08 122.837 197.08C121.749 197.08 120.821 197.336 120.053 197.848C119.306 198.339 118.741 199.032 118.357 199.928C117.973 200.803 117.781 201.827 117.781 203V203.192C117.781 205.155 118.25 206.648 119.189 207.672C120.149 208.696 121.503 209.208 123.253 209.208C123.978 209.208 124.693 209.112 125.397 208.92C126.122 208.728 126.826 208.408 127.509 207.96C127.807 207.768 128.074 207.683 128.309 207.704C128.565 207.704 128.767 207.779 128.917 207.928C129.066 208.056 129.162 208.227 129.205 208.44C129.269 208.632 129.247 208.845 129.141 209.08C129.055 209.315 128.874 209.517 128.597 209.688C127.893 210.2 127.061 210.595 126.101 210.872C125.141 211.149 124.191 211.288 123.253 211.288ZM138.464 211.224C138.102 211.224 137.782 211.128 137.504 210.936C137.227 210.744 137.003 210.435 136.832 210.008L132.064 197.048C131.936 196.685 131.894 196.365 131.936 196.088C132 195.811 132.139 195.597 132.352 195.448C132.566 195.299 132.832 195.224 133.152 195.224C133.472 195.224 133.728 195.299 133.92 195.448C134.134 195.597 134.304 195.875 134.432 196.28L138.912 209.08H138.144L142.752 196.28C142.902 195.896 143.083 195.629 143.296 195.48C143.531 195.309 143.83 195.224 144.192 195.224C144.534 195.224 144.822 195.309 145.056 195.48C145.291 195.651 145.472 195.917 145.6 196.28L150.112 209.08H149.376L153.92 196.216C154.07 195.832 154.251 195.576 154.464 195.448C154.678 195.299 154.934 195.224 155.232 195.224C155.574 195.224 155.83 195.309 156 195.48C156.192 195.651 156.299 195.875 156.32 196.152C156.342 196.429 156.288 196.728 156.16 197.048L151.392 210.008C151.243 210.413 151.019 210.723 150.72 210.936C150.443 211.128 150.123 211.224 149.76 211.224C149.398 211.224 149.078 211.128 148.8 210.936C148.523 210.723 148.31 210.413 148.16 210.008L143.424 197.016H144.8L140.096 210.008C139.947 210.413 139.734 210.723 139.456 210.936C139.179 211.128 138.848 211.224 138.464 211.224ZM169.877 211.224C169.493 211.224 169.194 211.117 168.981 210.904C168.767 210.669 168.661 210.349 168.661 209.944V189.496C168.661 189.069 168.767 188.749 168.981 188.536C169.194 188.323 169.493 188.216 169.877 188.216C170.218 188.216 170.485 188.291 170.677 188.44C170.89 188.568 171.082 188.792 171.253 189.112L180.021 205.624H179.061L187.797 189.112C187.967 188.792 188.149 188.568 188.341 188.44C188.533 188.291 188.81 188.216 189.173 188.216C189.535 188.216 189.823 188.323 190.037 188.536C190.25 188.749 190.357 189.069 190.357 189.496V209.944C190.357 210.349 190.25 210.669 190.037 210.904C189.845 211.117 189.546 211.224 189.141 211.224C188.757 211.224 188.458 211.117 188.245 210.904C188.031 210.669 187.925 210.349 187.925 209.944V191.96H188.693L180.693 206.968C180.543 207.245 180.383 207.448 180.213 207.576C180.063 207.683 179.839 207.736 179.541 207.736C179.242 207.736 179.007 207.672 178.837 207.544C178.666 207.416 178.517 207.224 178.389 206.968L170.293 191.928H171.061V209.944C171.061 210.349 170.954 210.669 170.741 210.904C170.549 211.117 170.261 211.224 169.877 211.224ZM200.516 211.288C199.449 211.288 198.489 211.085 197.636 210.68C196.804 210.253 196.142 209.677 195.652 208.952C195.161 208.227 194.916 207.416 194.916 206.52C194.916 205.368 195.204 204.461 195.78 203.8C196.377 203.139 197.348 202.669 198.692 202.392C200.057 202.115 201.913 201.976 204.26 201.976H205.7V203.672H204.292C202.564 203.672 201.198 203.757 200.196 203.928C199.214 204.077 198.521 204.344 198.116 204.728C197.732 205.112 197.54 205.656 197.54 206.36C197.54 207.235 197.838 207.949 198.436 208.504C199.054 209.059 199.886 209.336 200.932 209.336C201.785 209.336 202.532 209.133 203.172 208.728C203.833 208.323 204.345 207.768 204.708 207.064C205.092 206.36 205.284 205.549 205.284 204.632V200.984C205.284 199.661 205.017 198.712 204.484 198.136C203.95 197.539 203.076 197.24 201.86 197.24C201.113 197.24 200.366 197.336 199.62 197.528C198.873 197.72 198.084 198.029 197.252 198.456C196.953 198.605 196.697 198.659 196.484 198.616C196.27 198.552 196.1 198.435 195.972 198.264C195.844 198.093 195.769 197.901 195.748 197.688C195.726 197.453 195.769 197.229 195.876 197.016C196.004 196.803 196.196 196.632 196.452 196.504C197.39 196.035 198.318 195.693 199.236 195.48C200.153 195.267 201.028 195.16 201.86 195.16C203.204 195.16 204.313 195.384 205.188 195.832C206.062 196.259 206.713 196.92 207.14 197.816C207.566 198.691 207.78 199.821 207.78 201.208V209.88C207.78 210.307 207.673 210.637 207.46 210.872C207.268 211.107 206.98 211.224 206.596 211.224C206.19 211.224 205.881 211.107 205.668 210.872C205.454 210.637 205.348 210.307 205.348 209.88V207.384H205.636C205.465 208.195 205.134 208.888 204.644 209.464C204.174 210.04 203.588 210.488 202.884 210.808C202.18 211.128 201.39 211.288 200.516 211.288ZM218.828 211.288C217.612 211.288 216.588 211.075 215.756 210.648C214.946 210.2 214.338 209.56 213.932 208.728C213.527 207.875 213.324 206.84 213.324 205.624V197.464H211.18C210.818 197.464 210.54 197.379 210.348 197.208C210.156 197.016 210.06 196.76 210.06 196.44C210.06 196.12 210.156 195.875 210.348 195.704C210.54 195.533 210.818 195.448 211.18 195.448H213.324V191.768C213.324 191.341 213.442 191.021 213.676 190.808C213.911 190.573 214.231 190.456 214.636 190.456C215.042 190.456 215.351 190.573 215.564 190.808C215.799 191.021 215.916 191.341 215.916 191.768V195.448H219.948C220.311 195.448 220.588 195.533 220.78 195.704C220.972 195.875 221.068 196.12 221.068 196.44C221.068 196.76 220.972 197.016 220.78 197.208C220.588 197.379 220.311 197.464 219.948 197.464H215.916V205.368C215.916 206.584 216.172 207.512 216.684 208.152C217.196 208.771 218.028 209.08 219.18 209.08C219.586 209.08 219.927 209.037 220.204 208.952C220.503 208.867 220.748 208.824 220.94 208.824C221.132 208.803 221.292 208.867 221.42 209.016C221.548 209.165 221.612 209.421 221.612 209.784C221.612 210.04 221.559 210.275 221.452 210.488C221.367 210.701 221.207 210.851 220.972 210.936C220.716 211.021 220.375 211.096 219.948 211.16C219.543 211.245 219.17 211.288 218.828 211.288ZM229.61 211.288C228.394 211.288 227.37 211.075 226.538 210.648C225.727 210.2 225.119 209.56 224.714 208.728C224.308 207.875 224.106 206.84 224.106 205.624V197.464H221.962C221.599 197.464 221.322 197.379 221.13 197.208C220.938 197.016 220.841 196.76 220.841 196.44C220.841 196.12 220.938 195.875 221.13 195.704C221.322 195.533 221.599 195.448 221.962 195.448H224.106V191.768C224.106 191.341 224.223 191.021 224.458 190.808C224.692 190.573 225.012 190.456 225.418 190.456C225.823 190.456 226.132 190.573 226.346 190.808C226.58 191.021 226.698 191.341 226.698 191.768V195.448H230.73C231.092 195.448 231.37 195.533 231.562 195.704C231.754 195.875 231.85 196.12 231.85 196.44C231.85 196.76 231.754 197.016 231.562 197.208C231.37 197.379 231.092 197.464 230.73 197.464H226.698V205.368C226.698 206.584 226.954 207.512 227.466 208.152C227.978 208.771 228.81 209.08 229.962 209.08C230.367 209.08 230.708 209.037 230.986 208.952C231.284 208.867 231.53 208.824 231.722 208.824C231.914 208.803 232.074 208.867 232.202 209.016C232.33 209.165 232.394 209.421 232.394 209.784C232.394 210.04 232.34 210.275 232.234 210.488C232.148 210.701 231.988 210.851 231.754 210.936C231.498 211.021 231.156 211.096 230.73 211.16C230.324 211.245 229.951 211.288 229.61 211.288ZM235.937 194.744C235.723 195.021 235.499 195.181 235.265 195.224C235.03 195.245 234.827 195.203 234.657 195.096C234.486 194.968 234.39 194.787 234.369 194.552C234.369 194.317 234.475 194.061 234.689 193.784C235.03 193.336 235.265 192.888 235.393 192.44C235.521 191.971 235.585 191.555 235.585 191.192L235.713 191.832C235.158 191.832 234.71 191.672 234.369 191.352C234.049 191.011 233.889 190.584 233.889 190.072C233.889 189.539 234.038 189.112 234.337 188.792C234.657 188.472 235.073 188.312 235.585 188.312C236.139 188.312 236.577 188.504 236.897 188.888C237.217 189.251 237.377 189.784 237.377 190.488C237.377 190.936 237.334 191.405 237.249 191.896C237.163 192.365 237.014 192.845 236.801 193.336C236.587 193.827 236.299 194.296 235.937 194.744ZM245.993 211.288C245.033 211.288 244.062 211.171 243.081 210.936C242.121 210.701 241.225 210.296 240.393 209.72C240.179 209.571 240.03 209.4 239.945 209.208C239.859 208.995 239.827 208.792 239.849 208.6C239.891 208.387 239.977 208.205 240.105 208.056C240.254 207.907 240.425 207.821 240.617 207.8C240.83 207.757 241.065 207.8 241.321 207.928C242.153 208.44 242.953 208.803 243.721 209.016C244.51 209.208 245.289 209.304 246.057 209.304C247.273 209.304 248.19 209.08 248.809 208.632C249.427 208.184 249.737 207.576 249.737 206.808C249.737 206.211 249.534 205.741 249.129 205.4C248.723 205.037 248.083 204.76 247.209 204.568L244.297 203.928C242.953 203.651 241.95 203.171 241.289 202.488C240.649 201.805 240.329 200.92 240.329 199.832C240.329 198.872 240.574 198.051 241.065 197.368C241.577 196.664 242.291 196.12 243.209 195.736C244.126 195.352 245.193 195.16 246.409 195.16C247.347 195.16 248.233 195.288 249.065 195.544C249.918 195.779 250.686 196.163 251.369 196.696C251.582 196.845 251.721 197.027 251.785 197.24C251.87 197.432 251.881 197.635 251.817 197.848C251.774 198.04 251.678 198.211 251.529 198.36C251.379 198.488 251.198 198.563 250.985 198.584C250.771 198.605 250.547 198.541 250.313 198.392C249.673 197.965 249.022 197.656 248.361 197.464C247.699 197.251 247.049 197.144 246.409 197.144C245.214 197.144 244.307 197.379 243.689 197.848C243.07 198.317 242.761 198.936 242.761 199.704C242.761 200.301 242.953 200.792 243.337 201.176C243.721 201.56 244.318 201.837 245.129 202.008L248.041 202.616C249.427 202.915 250.462 203.395 251.145 204.056C251.849 204.696 252.201 205.571 252.201 206.68C252.201 208.088 251.635 209.208 250.505 210.04C249.374 210.872 247.87 211.288 245.993 211.288ZM265.681 216.984C265.254 216.984 264.934 216.867 264.721 216.632C264.507 216.419 264.401 216.099 264.401 215.672V196.536C264.401 196.109 264.507 195.789 264.721 195.576C264.934 195.341 265.243 195.224 265.649 195.224C266.075 195.224 266.395 195.341 266.609 195.576C266.843 195.789 266.961 196.109 266.961 196.536V199.576L266.609 199.128C266.95 197.912 267.622 196.952 268.625 196.248C269.649 195.523 270.865 195.16 272.273 195.16C273.659 195.16 274.865 195.491 275.889 196.152C276.934 196.792 277.734 197.72 278.289 198.936C278.865 200.131 279.153 201.56 279.153 203.224C279.153 204.867 278.865 206.296 278.289 207.512C277.734 208.707 276.945 209.635 275.921 210.296C274.897 210.957 273.681 211.288 272.273 211.288C270.865 211.288 269.659 210.936 268.657 210.232C267.654 209.507 266.971 208.547 266.609 207.352H266.993V215.672C266.993 216.099 266.875 216.419 266.641 216.632C266.406 216.867 266.086 216.984 265.681 216.984ZM271.729 209.208C272.71 209.208 273.553 208.973 274.257 208.504C274.982 208.035 275.537 207.352 275.921 206.456C276.326 205.56 276.529 204.483 276.529 203.224C276.529 201.283 276.091 199.8 275.217 198.776C274.363 197.752 273.201 197.24 271.729 197.24C270.769 197.24 269.926 197.475 269.201 197.944C268.475 198.392 267.91 199.064 267.505 199.96C267.121 200.835 266.929 201.923 266.929 203.224C266.929 205.144 267.366 206.627 268.241 207.672C269.115 208.696 270.278 209.208 271.729 209.208ZM284.337 211.16C283.91 211.16 283.59 211.043 283.377 210.808C283.164 210.552 283.057 210.2 283.057 209.752V196.664C283.057 196.216 283.164 195.875 283.377 195.64C283.59 195.405 283.91 195.288 284.337 195.288C284.742 195.288 285.062 195.405 285.297 195.64C285.532 195.875 285.649 196.216 285.649 196.664V209.752C285.649 210.2 285.532 210.552 285.297 210.808C285.084 211.043 284.764 211.16 284.337 211.16ZM284.337 191.704C283.804 191.704 283.388 191.565 283.089 191.288C282.79 190.989 282.641 190.595 282.641 190.104C282.641 189.592 282.79 189.208 283.089 188.952C283.388 188.675 283.804 188.536 284.337 188.536C284.892 188.536 285.308 188.675 285.585 188.952C285.884 189.208 286.033 189.592 286.033 190.104C286.033 190.595 285.884 190.989 285.585 191.288C285.308 191.565 284.892 191.704 284.337 191.704ZM296.735 211.288C295.519 211.288 294.495 211.075 293.663 210.648C292.852 210.2 292.244 209.56 291.839 208.728C291.433 207.875 291.231 206.84 291.231 205.624V197.464H289.087C288.724 197.464 288.447 197.379 288.255 197.208C288.062 197.016 287.966 196.76 287.966 196.44C287.966 196.12 288.062 195.875 288.255 195.704C288.447 195.533 288.724 195.448 289.087 195.448H291.231V191.768C291.231 191.341 291.348 191.021 291.583 190.808C291.817 190.573 292.137 190.456 292.543 190.456C292.948 190.456 293.257 190.573 293.471 190.808C293.705 191.021 293.823 191.341 293.823 191.768V195.448H297.855C298.217 195.448 298.495 195.533 298.687 195.704C298.879 195.875 298.975 196.12 298.975 196.44C298.975 196.76 298.879 197.016 298.687 197.208C298.495 197.379 298.217 197.464 297.855 197.464H293.823V205.368C293.823 206.584 294.079 207.512 294.591 208.152C295.103 208.771 295.935 209.08 297.087 209.08C297.492 209.08 297.833 209.037 298.111 208.952C298.409 208.867 298.655 208.824 298.847 208.824C299.039 208.803 299.199 208.867 299.327 209.016C299.455 209.165 299.519 209.421 299.519 209.784C299.519 210.04 299.465 210.275 299.359 210.488C299.273 210.701 299.113 210.851 298.879 210.936C298.623 211.021 298.281 211.096 297.855 211.16C297.449 211.245 297.076 211.288 296.735 211.288ZM308.118 211.288C306.56 211.288 305.216 210.947 304.086 210.264C302.955 209.581 302.08 208.632 301.462 207.416C300.864 206.179 300.566 204.749 300.566 203.128C300.566 201.891 300.736 200.781 301.078 199.8C301.419 198.819 301.92 197.987 302.582 197.304C303.243 196.6 304.032 196.067 304.95 195.704C305.888 195.341 306.944 195.16 308.118 195.16C308.886 195.16 309.686 195.277 310.518 195.512C311.35 195.747 312.107 196.152 312.79 196.728C313.003 196.877 313.142 197.059 313.206 197.272C313.27 197.485 313.27 197.699 313.206 197.912C313.142 198.104 313.035 198.275 312.886 198.424C312.736 198.552 312.544 198.627 312.31 198.648C312.096 198.669 311.872 198.595 311.638 198.424C311.083 197.997 310.518 197.699 309.942 197.528C309.366 197.357 308.811 197.272 308.278 197.272C307.446 197.272 306.72 197.411 306.102 197.688C305.483 197.944 304.96 198.317 304.534 198.808C304.107 199.299 303.776 199.907 303.542 200.632C303.328 201.357 303.222 202.2 303.222 203.16C303.222 205.016 303.659 206.488 304.534 207.576C305.408 208.643 306.656 209.176 308.278 209.176C308.811 209.176 309.355 209.091 309.91 208.92C310.486 208.749 311.062 208.451 311.638 208.024C311.872 207.853 312.096 207.779 312.31 207.8C312.523 207.821 312.704 207.907 312.854 208.056C313.003 208.184 313.099 208.355 313.142 208.568C313.206 208.781 313.206 208.995 313.142 209.208C313.078 209.4 312.939 209.571 312.726 209.72C312.043 210.275 311.296 210.68 310.486 210.936C309.675 211.171 308.886 211.288 308.118 211.288ZM317.618 211.224C317.192 211.224 316.872 211.107 316.658 210.872C316.445 210.637 316.338 210.307 316.338 209.88V189.528C316.338 189.101 316.445 188.781 316.658 188.568C316.872 188.333 317.192 188.216 317.618 188.216C318.024 188.216 318.344 188.333 318.578 188.568C318.813 188.781 318.93 189.101 318.93 189.528V198.904H318.514C318.962 197.667 319.688 196.739 320.69 196.12C321.714 195.48 322.888 195.16 324.21 195.16C325.448 195.16 326.472 195.384 327.282 195.832C328.114 196.28 328.733 196.963 329.138 197.88C329.544 198.776 329.746 199.917 329.746 201.304V209.88C329.746 210.307 329.629 210.637 329.394 210.872C329.181 211.107 328.872 211.224 328.466 211.224C328.04 211.224 327.709 211.107 327.474 210.872C327.261 210.637 327.154 210.307 327.154 209.88V201.464C327.154 200.013 326.866 198.957 326.29 198.296C325.736 197.613 324.84 197.272 323.602 197.272C322.173 197.272 321.032 197.72 320.178 198.616C319.346 199.491 318.93 200.664 318.93 202.136V209.88C318.93 210.776 318.493 211.224 317.618 211.224ZM340.446 211.288C339.059 211.288 337.843 210.957 336.798 210.296C335.774 209.635 334.974 208.707 334.398 207.512C333.843 206.296 333.566 204.867 333.566 203.224C333.566 201.56 333.843 200.131 334.398 198.936C334.974 197.72 335.774 196.792 336.798 196.152C337.843 195.491 339.059 195.16 340.446 195.16C341.854 195.16 343.059 195.512 344.062 196.216C345.064 196.92 345.736 197.869 346.078 199.064H345.726V189.528C345.726 189.101 345.832 188.781 346.046 188.568C346.28 188.333 346.611 188.216 347.038 188.216C347.443 188.216 347.752 188.333 347.966 188.568C348.2 188.781 348.318 189.101 348.318 189.528V209.88C348.318 210.307 348.211 210.637 347.998 210.872C347.784 211.107 347.464 211.224 347.038 211.224C346.632 211.224 346.312 211.107 346.078 210.872C345.864 210.637 345.758 210.307 345.758 209.88V206.84L346.11 207.288C345.768 208.504 345.086 209.475 344.062 210.2C343.059 210.925 341.854 211.288 340.446 211.288ZM340.99 209.208C341.95 209.208 342.792 208.973 343.518 208.504C344.243 208.035 344.798 207.352 345.182 206.456C345.587 205.56 345.79 204.483 345.79 203.224C345.79 201.283 345.352 199.8 344.478 198.776C343.624 197.752 342.462 197.24 340.99 197.24C340.008 197.24 339.155 197.475 338.43 197.944C337.726 198.392 337.171 199.064 336.766 199.96C336.382 200.835 336.19 201.923 336.19 203.224C336.19 205.144 336.627 206.627 337.502 207.672C338.376 208.696 339.539 209.208 340.99 209.208ZM360.19 211.288C358.547 211.288 357.129 210.968 355.934 210.328C354.761 209.667 353.843 208.739 353.182 207.544C352.542 206.349 352.222 204.92 352.222 203.256C352.222 201.635 352.542 200.227 353.182 199.032C353.822 197.816 354.697 196.867 355.806 196.184C356.937 195.501 358.238 195.16 359.71 195.16C360.755 195.16 361.694 195.341 362.526 195.704C363.358 196.045 364.062 196.547 364.638 197.208C365.235 197.869 365.683 198.669 365.982 199.608C366.302 200.547 366.462 201.603 366.462 202.776C366.462 203.117 366.366 203.373 366.174 203.544C365.982 203.693 365.705 203.768 365.342 203.768H354.206V202.072H364.734L364.222 202.488C364.222 201.336 364.051 200.365 363.71 199.576C363.369 198.765 362.867 198.147 362.206 197.72C361.566 197.293 360.755 197.08 359.774 197.08C358.686 197.08 357.758 197.336 356.99 197.848C356.243 198.339 355.678 199.032 355.294 199.928C354.91 200.803 354.718 201.827 354.718 203V203.192C354.718 205.155 355.187 206.648 356.126 207.672C357.086 208.696 358.441 209.208 360.19 209.208C360.915 209.208 361.63 209.112 362.334 208.92C363.059 208.728 363.763 208.408 364.446 207.96C364.745 207.768 365.011 207.683 365.246 207.704C365.502 207.704 365.705 207.779 365.854 207.928C366.003 208.056 366.099 208.227 366.142 208.44C366.206 208.632 366.185 208.845 366.078 209.08C365.993 209.315 365.811 209.517 365.534 209.688C364.83 210.2 363.998 210.595 363.038 210.872C362.078 211.149 361.129 211.288 360.19 211.288ZM376.805 211.288C375.248 211.288 373.904 210.947 372.773 210.264C371.643 209.581 370.768 208.632 370.149 207.416C369.552 206.179 369.253 204.749 369.253 203.128C369.253 201.891 369.424 200.781 369.765 199.8C370.107 198.819 370.608 197.987 371.269 197.304C371.931 196.6 372.72 196.067 373.637 195.704C374.576 195.341 375.632 195.16 376.805 195.16C377.573 195.16 378.373 195.277 379.205 195.512C380.037 195.747 380.795 196.152 381.477 196.728C381.691 196.877 381.829 197.059 381.893 197.272C381.957 197.485 381.957 197.699 381.893 197.912C381.829 198.104 381.723 198.275 381.573 198.424C381.424 198.552 381.232 198.627 380.997 198.648C380.784 198.669 380.56 198.595 380.325 198.424C379.771 197.997 379.205 197.699 378.629 197.528C378.053 197.357 377.499 197.272 376.965 197.272C376.133 197.272 375.408 197.411 374.789 197.688C374.171 197.944 373.648 198.317 373.221 198.808C372.795 199.299 372.464 199.907 372.229 200.632C372.016 201.357 371.909 202.2 371.909 203.16C371.909 205.016 372.347 206.488 373.221 207.576C374.096 208.643 375.344 209.176 376.965 209.176C377.499 209.176 378.043 209.091 378.597 208.92C379.173 208.749 379.749 208.451 380.325 208.024C380.56 207.853 380.784 207.779 380.997 207.8C381.211 207.821 381.392 207.907 381.541 208.056C381.691 208.184 381.787 208.355 381.829 208.568C381.893 208.781 381.893 208.995 381.829 209.208C381.765 209.4 381.627 209.571 381.413 209.72C380.731 210.275 379.984 210.68 379.173 210.936C378.363 211.171 377.573 211.288 376.805 211.288ZM386.306 211.224C385.879 211.224 385.559 211.107 385.346 210.872C385.132 210.637 385.026 210.307 385.026 209.88V189.528C385.026 189.101 385.132 188.781 385.346 188.568C385.559 188.333 385.879 188.216 386.306 188.216C386.711 188.216 387.031 188.333 387.266 188.568C387.5 188.781 387.618 189.101 387.618 189.528V202.36H387.682L394.242 196.088C394.54 195.811 394.796 195.597 395.01 195.448C395.244 195.299 395.554 195.224 395.938 195.224C396.279 195.224 396.546 195.32 396.738 195.512C396.93 195.683 397.015 195.907 396.994 196.184C396.994 196.44 396.866 196.717 396.61 197.016L389.634 203.64V202.232L397.218 209.368C397.516 209.667 397.666 209.955 397.666 210.232C397.666 210.509 397.559 210.744 397.346 210.936C397.154 211.128 396.898 211.224 396.578 211.224C396.194 211.224 395.884 211.149 395.65 211C395.415 210.829 395.127 210.584 394.786 210.264L387.682 203.704H387.618V209.88C387.618 210.776 387.18 211.224 386.306 211.224Z" fill="white"/>
<rect x="52" y="152" width="48" height="23" rx="11.5" fill="#D9D9D9"/>
<path d="M65.0788 168.108C64.7028 168.108 64.3348 168.076 63.9748 168.012C63.6148 167.948 63.2788 167.856 62.9668 167.736C62.6628 167.616 62.3868 167.464 62.1388 167.28C62.0428 167.208 61.9748 167.128 61.9348 167.04C61.9028 166.944 61.8948 166.852 61.9108 166.764C61.9348 166.668 61.9748 166.588 62.0308 166.524C62.0948 166.46 62.1708 166.424 62.2588 166.416C62.3468 166.408 62.4428 166.436 62.5468 166.5C62.9068 166.756 63.2908 166.944 63.6988 167.064C64.1068 167.176 64.5668 167.232 65.0788 167.232C65.7988 167.232 66.3308 167.1 66.6748 166.836C67.0268 166.564 67.2028 166.208 67.2028 165.768C67.2028 165.408 67.0748 165.128 66.8188 164.928C66.5708 164.72 66.1508 164.556 65.5588 164.436L64.3108 164.184C63.5588 164.024 62.9948 163.764 62.6188 163.404C62.2508 163.036 62.0668 162.548 62.0668 161.94C62.0668 161.564 62.1428 161.224 62.2948 160.92C62.4468 160.608 62.6588 160.344 62.9308 160.128C63.2028 159.904 63.5268 159.732 63.9028 159.612C64.2788 159.492 64.6948 159.432 65.1508 159.432C65.6548 159.432 66.1228 159.504 66.5548 159.648C66.9948 159.784 67.3908 159.992 67.7428 160.272C67.8308 160.344 67.8908 160.428 67.9228 160.524C67.9548 160.612 67.9588 160.7 67.9348 160.788C67.9108 160.868 67.8668 160.936 67.8028 160.992C67.7468 161.048 67.6708 161.08 67.5748 161.088C67.4868 161.096 67.3868 161.064 67.2748 160.992C66.9548 160.752 66.6228 160.58 66.2788 160.476C65.9348 160.364 65.5548 160.308 65.1388 160.308C64.7148 160.308 64.3468 160.372 64.0348 160.5C63.7308 160.628 63.4908 160.816 63.3148 161.064C63.1468 161.304 63.0628 161.584 63.0628 161.904C63.0628 162.288 63.1788 162.592 63.4108 162.816C63.6508 163.04 64.0388 163.204 64.5748 163.308L65.8228 163.572C66.6308 163.74 67.2268 163.996 67.6108 164.34C68.0028 164.676 68.1988 165.136 68.1988 165.72C68.1988 166.072 68.1268 166.396 67.9828 166.692C67.8388 166.988 67.6308 167.244 67.3588 167.46C67.0868 167.668 66.7588 167.828 66.3748 167.94C65.9908 168.052 65.5588 168.108 65.0788 168.108ZM71.4296 168.108C71.0296 168.108 70.6696 168.032 70.3496 167.88C70.0376 167.72 69.7896 167.504 69.6056 167.232C69.4216 166.96 69.3296 166.656 69.3296 166.32C69.3296 165.888 69.4376 165.548 69.6536 165.3C69.8776 165.052 70.2416 164.876 70.7456 164.772C71.2576 164.668 71.9536 164.616 72.8336 164.616H73.3736V165.252H72.8456C72.1976 165.252 71.6856 165.284 71.3096 165.348C70.9416 165.404 70.6816 165.504 70.5296 165.648C70.3856 165.792 70.3136 165.996 70.3136 166.26C70.3136 166.588 70.4256 166.856 70.6496 167.064C70.8816 167.272 71.1936 167.376 71.5856 167.376C71.9056 167.376 72.1856 167.3 72.4256 167.148C72.6736 166.996 72.8656 166.788 73.0016 166.524C73.1456 166.26 73.2176 165.956 73.2176 165.612V164.244C73.2176 163.748 73.1176 163.392 72.9176 163.176C72.7176 162.952 72.3896 162.84 71.9336 162.84C71.6536 162.84 71.3736 162.876 71.0936 162.948C70.8136 163.02 70.5176 163.136 70.2056 163.296C70.0936 163.352 69.9976 163.372 69.9176 163.356C69.8376 163.332 69.7736 163.288 69.7256 163.224C69.6776 163.16 69.6496 163.088 69.6416 163.008C69.6336 162.92 69.6496 162.836 69.6896 162.756C69.7376 162.676 69.8096 162.612 69.9056 162.564C70.2576 162.388 70.6056 162.26 70.9496 162.18C71.2936 162.1 71.6216 162.06 71.9336 162.06C72.4376 162.06 72.8536 162.144 73.1816 162.312C73.5096 162.472 73.7536 162.72 73.9136 163.056C74.0736 163.384 74.1536 163.808 74.1536 164.328V167.58C74.1536 167.74 74.1136 167.864 74.0336 167.952C73.9616 168.04 73.8536 168.084 73.7096 168.084C73.5576 168.084 73.4416 168.04 73.3616 167.952C73.2816 167.864 73.2416 167.74 73.2416 167.58V166.644H73.3496C73.2856 166.948 73.1616 167.208 72.9776 167.424C72.8016 167.64 72.5816 167.808 72.3176 167.928C72.0536 168.048 71.7576 168.108 71.4296 168.108ZM77.7329 168.108C77.1569 168.108 76.7169 167.932 76.4129 167.58C76.1089 167.228 75.9569 166.724 75.9569 166.068V159.948C75.9569 159.788 75.9969 159.668 76.0769 159.588C76.1569 159.5 76.2769 159.456 76.4369 159.456C76.5889 159.456 76.7089 159.5 76.7969 159.588C76.8849 159.668 76.9289 159.788 76.9289 159.948V165.996C76.9289 166.428 77.0129 166.752 77.1809 166.968C77.3569 167.176 77.6129 167.28 77.9489 167.28C78.0209 167.28 78.0849 167.276 78.1409 167.268C78.1969 167.26 78.2529 167.256 78.3089 167.256C78.3969 167.248 78.4569 167.268 78.4889 167.316C78.5289 167.364 78.5489 167.46 78.5489 167.604C78.5489 167.748 78.5169 167.856 78.4529 167.928C78.3889 168 78.2849 168.048 78.1409 168.072C78.0769 168.08 78.0089 168.088 77.9369 168.096C77.8649 168.104 77.7969 168.108 77.7329 168.108ZM82.0771 168.108C81.4611 168.108 80.9291 167.988 80.4811 167.748C80.0411 167.5 79.6971 167.152 79.4491 166.704C79.2091 166.256 79.0891 165.72 79.0891 165.096C79.0891 164.488 79.2091 163.96 79.4491 163.512C79.6891 163.056 80.0171 162.7 80.4331 162.444C80.8571 162.188 81.3451 162.06 81.8971 162.06C82.2891 162.06 82.6411 162.128 82.9531 162.264C83.2651 162.392 83.5291 162.58 83.7451 162.828C83.9691 163.076 84.1371 163.376 84.2491 163.728C84.3691 164.08 84.4291 164.476 84.4291 164.916C84.4291 165.044 84.3931 165.14 84.3211 165.204C84.2491 165.26 84.1451 165.288 84.0091 165.288H79.8331V164.652H83.7811L83.5891 164.808C83.5891 164.376 83.5251 164.012 83.3971 163.716C83.2691 163.412 83.0811 163.18 82.8331 163.02C82.5931 162.86 82.2891 162.78 81.9211 162.78C81.5131 162.78 81.1651 162.876 80.8771 163.068C80.5971 163.252 80.3851 163.512 80.2411 163.848C80.0971 164.176 80.0251 164.56 80.0251 165V165.072C80.0251 165.808 80.2011 166.368 80.5531 166.752C80.9131 167.136 81.4211 167.328 82.0771 167.328C82.3491 167.328 82.6171 167.292 82.8811 167.22C83.1531 167.148 83.4171 167.028 83.6731 166.86C83.7851 166.788 83.8851 166.756 83.9731 166.764C84.0691 166.764 84.1451 166.792 84.2011 166.848C84.2571 166.896 84.2931 166.96 84.3091 167.04C84.3331 167.112 84.3251 167.192 84.2851 167.28C84.2531 167.368 84.1851 167.444 84.0811 167.508C83.8171 167.7 83.5051 167.848 83.1451 167.952C82.7851 168.056 82.4291 168.108 82.0771 168.108ZM87.8038 168.108C87.4438 168.108 87.0798 168.064 86.7118 167.976C86.3518 167.888 86.0158 167.736 85.7038 167.52C85.6238 167.464 85.5678 167.4 85.5358 167.328C85.5038 167.248 85.4918 167.172 85.4998 167.1C85.5158 167.02 85.5478 166.952 85.5958 166.896C85.6518 166.84 85.7158 166.808 85.7878 166.8C85.8678 166.784 85.9558 166.8 86.0518 166.848C86.3638 167.04 86.6638 167.176 86.9518 167.256C87.2478 167.328 87.5398 167.364 87.8278 167.364C88.2838 167.364 88.6278 167.28 88.8598 167.112C89.0918 166.944 89.2078 166.716 89.2078 166.428C89.2078 166.204 89.1318 166.028 88.9798 165.9C88.8278 165.764 88.5878 165.66 88.2598 165.588L87.1678 165.348C86.6638 165.244 86.2878 165.064 86.0398 164.808C85.7998 164.552 85.6798 164.22 85.6798 163.812C85.6798 163.452 85.7718 163.144 85.9558 162.888C86.1478 162.624 86.4158 162.42 86.7598 162.276C87.1038 162.132 87.5038 162.06 87.9598 162.06C88.3118 162.06 88.6438 162.108 88.9558 162.204C89.2758 162.292 89.5638 162.436 89.8198 162.636C89.8998 162.692 89.9518 162.76 89.9758 162.84C90.0078 162.912 90.0118 162.988 89.9878 163.068C89.9718 163.14 89.9358 163.204 89.8798 163.26C89.8238 163.308 89.7558 163.336 89.6758 163.344C89.5958 163.352 89.5118 163.328 89.4238 163.272C89.1838 163.112 88.9398 162.996 88.6918 162.924C88.4438 162.844 88.1998 162.804 87.9598 162.804C87.5118 162.804 87.1718 162.892 86.9398 163.068C86.7078 163.244 86.5918 163.476 86.5918 163.764C86.5918 163.988 86.6638 164.172 86.8078 164.316C86.9518 164.46 87.1758 164.564 87.4798 164.628L88.5718 164.856C89.0918 164.968 89.4798 165.148 89.7358 165.396C89.9998 165.636 90.1318 165.964 90.1318 166.38C90.1318 166.908 89.9198 167.328 89.4958 167.64C89.0718 167.952 88.5078 168.108 87.8038 168.108Z" fill="black"/>
<rect x="28" y="243" width="521" height="89" rx="9" fill="black" stroke="url(#paint2_linear_9_26)" stroke-width="2"/>
<path d="M56.096 313.224C55.6693 313.224 55.3387 313.107 55.104 312.872C54.8907 312.616 54.784 312.275 54.784 311.848V291.784C54.784 291.336 54.9013 291.005 55.136 290.792C55.3707 290.557 55.7013 290.44 56.128 290.44H63.712C66.1227 290.44 67.9787 291.037 69.28 292.232C70.5813 293.405 71.232 295.069 71.232 297.224C71.232 299.357 70.5813 301.021 69.28 302.216C67.9787 303.411 66.1227 304.008 63.712 304.008H57.408V311.848C57.408 312.275 57.3013 312.616 57.088 312.872C56.8747 313.107 56.544 313.224 56.096 313.224ZM57.408 301.8H63.392C65.12 301.8 66.4213 301.416 67.296 300.648C68.192 299.859 68.64 298.717 68.64 297.224C68.64 295.709 68.192 294.568 67.296 293.8C66.4213 293.011 65.12 292.616 63.392 292.616H57.408V301.8ZM75.6815 313.224C75.2548 313.224 74.9242 313.107 74.6895 312.872C74.4762 312.637 74.3695 312.307 74.3695 311.88V298.536C74.3695 298.109 74.4762 297.789 74.6895 297.576C74.9028 297.341 75.2122 297.224 75.6175 297.224C76.0228 297.224 76.3322 297.341 76.5455 297.576C76.7802 297.789 76.8975 298.109 76.8975 298.536V301.128H76.5775C76.9188 299.869 77.5695 298.899 78.5295 298.216C79.4895 297.533 80.6735 297.171 82.0815 297.128C82.4015 297.107 82.6575 297.181 82.8495 297.352C83.0415 297.501 83.1482 297.768 83.1695 298.152C83.1908 298.515 83.1055 298.803 82.9135 299.016C82.7215 299.229 82.4228 299.357 82.0175 299.4L81.5055 299.464C80.0548 299.592 78.9348 300.061 78.1455 300.872C77.3775 301.661 76.9935 302.749 76.9935 304.136V311.88C76.9935 312.307 76.8762 312.637 76.6415 312.872C76.4282 313.107 76.1082 313.224 75.6815 313.224ZM92.6588 313.288C91.0161 313.288 89.5974 312.968 88.4028 312.328C87.2294 311.667 86.3121 310.739 85.6508 309.544C85.0108 308.349 84.6908 306.92 84.6908 305.256C84.6908 303.635 85.0108 302.227 85.6508 301.032C86.2908 299.816 87.1654 298.867 88.2748 298.184C89.4054 297.501 90.7068 297.16 92.1788 297.16C93.2241 297.16 94.1628 297.341 94.9948 297.704C95.8268 298.045 96.5308 298.547 97.1068 299.208C97.7041 299.869 98.1521 300.669 98.4508 301.608C98.7708 302.547 98.9308 303.603 98.9308 304.776C98.9308 305.117 98.8348 305.373 98.6428 305.544C98.4508 305.693 98.1734 305.768 97.8108 305.768H86.6748V304.072H97.2028L96.6908 304.488C96.6908 303.336 96.5201 302.365 96.1788 301.576C95.8374 300.765 95.3361 300.147 94.6748 299.72C94.0348 299.293 93.2241 299.08 92.2428 299.08C91.1548 299.08 90.2268 299.336 89.4588 299.848C88.7121 300.339 88.1468 301.032 87.7628 301.928C87.3788 302.803 87.1868 303.827 87.1868 305V305.192C87.1868 307.155 87.6561 308.648 88.5948 309.672C89.5548 310.696 90.9094 311.208 92.6588 311.208C93.3841 311.208 94.0988 311.112 94.8028 310.92C95.5281 310.728 96.2321 310.408 96.9148 309.96C97.2134 309.768 97.4801 309.683 97.7148 309.704C97.9708 309.704 98.1734 309.779 98.3228 309.928C98.4721 310.056 98.5681 310.227 98.6108 310.44C98.6748 310.632 98.6534 310.845 98.5468 311.08C98.4614 311.315 98.2801 311.517 98.0028 311.688C97.2988 312.2 96.4668 312.595 95.5068 312.872C94.5468 313.149 93.5974 313.288 92.6588 313.288ZM103.962 318.984C103.535 318.984 103.215 318.867 103.002 318.632C102.789 318.419 102.682 318.099 102.682 317.672V298.536C102.682 298.109 102.789 297.789 103.002 297.576C103.215 297.341 103.525 297.224 103.93 297.224C104.357 297.224 104.677 297.341 104.89 297.576C105.125 297.789 105.242 298.109 105.242 298.536V301.576L104.89 301.128C105.231 299.912 105.903 298.952 106.906 298.248C107.93 297.523 109.146 297.16 110.554 297.16C111.941 297.16 113.146 297.491 114.17 298.152C115.215 298.792 116.015 299.72 116.57 300.936C117.146 302.131 117.434 303.56 117.434 305.224C117.434 306.867 117.146 308.296 116.57 309.512C116.015 310.707 115.226 311.635 114.202 312.296C113.178 312.957 111.962 313.288 110.554 313.288C109.146 313.288 107.941 312.936 106.938 312.232C105.935 311.507 105.253 310.547 104.89 309.352H105.274V317.672C105.274 318.099 105.157 318.419 104.922 318.632C104.687 318.867 104.367 318.984 103.962 318.984ZM110.01 311.208C110.991 311.208 111.834 310.973 112.538 310.504C113.263 310.035 113.818 309.352 114.202 308.456C114.607 307.56 114.81 306.483 114.81 305.224C114.81 303.283 114.373 301.8 113.498 300.776C112.645 299.752 111.482 299.24 110.01 299.24C109.05 299.24 108.207 299.475 107.482 299.944C106.757 300.392 106.191 301.064 105.786 301.96C105.402 302.835 105.21 303.923 105.21 305.224C105.21 307.144 105.647 308.627 106.522 309.672C107.397 310.696 108.559 311.208 110.01 311.208ZM126.234 313.288C125.168 313.288 124.208 313.085 123.354 312.68C122.522 312.253 121.861 311.677 121.37 310.952C120.88 310.227 120.634 309.416 120.634 308.52C120.634 307.368 120.922 306.461 121.498 305.8C122.096 305.139 123.066 304.669 124.41 304.392C125.776 304.115 127.632 303.976 129.978 303.976H131.418V305.672H130.01C128.282 305.672 126.917 305.757 125.914 305.928C124.933 306.077 124.24 306.344 123.834 306.728C123.45 307.112 123.258 307.656 123.258 308.36C123.258 309.235 123.557 309.949 124.154 310.504C124.773 311.059 125.605 311.336 126.65 311.336C127.504 311.336 128.25 311.133 128.89 310.728C129.552 310.323 130.064 309.768 130.426 309.064C130.81 308.36 131.002 307.549 131.002 306.632V302.984C131.002 301.661 130.736 300.712 130.202 300.136C129.669 299.539 128.794 299.24 127.578 299.24C126.832 299.24 126.085 299.336 125.338 299.528C124.592 299.72 123.802 300.029 122.97 300.456C122.672 300.605 122.416 300.659 122.202 300.616C121.989 300.552 121.818 300.435 121.69 300.264C121.562 300.093 121.488 299.901 121.466 299.688C121.445 299.453 121.488 299.229 121.594 299.016C121.722 298.803 121.914 298.632 122.17 298.504C123.109 298.035 124.037 297.693 124.954 297.48C125.872 297.267 126.746 297.16 127.578 297.16C128.922 297.16 130.032 297.384 130.906 297.832C131.781 298.259 132.432 298.92 132.858 299.816C133.285 300.691 133.498 301.821 133.498 303.208V311.88C133.498 312.307 133.392 312.637 133.178 312.872C132.986 313.107 132.698 313.224 132.314 313.224C131.909 313.224 131.6 313.107 131.386 312.872C131.173 312.637 131.066 312.307 131.066 311.88V309.384H131.354C131.184 310.195 130.853 310.888 130.362 311.464C129.893 312.04 129.306 312.488 128.602 312.808C127.898 313.128 127.109 313.288 126.234 313.288ZM139.619 313.224C139.192 313.224 138.862 313.107 138.627 312.872C138.414 312.637 138.307 312.307 138.307 311.88V298.536C138.307 298.109 138.414 297.789 138.627 297.576C138.84 297.341 139.15 297.224 139.555 297.224C139.96 297.224 140.27 297.341 140.483 297.576C140.718 297.789 140.835 298.109 140.835 298.536V301.128H140.515C140.856 299.869 141.507 298.899 142.467 298.216C143.427 297.533 144.611 297.171 146.019 297.128C146.339 297.107 146.595 297.181 146.787 297.352C146.979 297.501 147.086 297.768 147.107 298.152C147.128 298.515 147.043 298.803 146.851 299.016C146.659 299.229 146.36 299.357 145.955 299.4L145.443 299.464C143.992 299.592 142.872 300.061 142.083 300.872C141.315 301.661 140.931 302.749 140.931 304.136V311.88C140.931 312.307 140.814 312.637 140.579 312.872C140.366 313.107 140.046 313.224 139.619 313.224ZM156.596 313.288C154.954 313.288 153.535 312.968 152.34 312.328C151.167 311.667 150.25 310.739 149.588 309.544C148.948 308.349 148.628 306.92 148.628 305.256C148.628 303.635 148.948 302.227 149.588 301.032C150.228 299.816 151.103 298.867 152.212 298.184C153.343 297.501 154.644 297.16 156.116 297.16C157.162 297.16 158.1 297.341 158.932 297.704C159.764 298.045 160.468 298.547 161.044 299.208C161.642 299.869 162.09 300.669 162.388 301.608C162.708 302.547 162.868 303.603 162.868 304.776C162.868 305.117 162.772 305.373 162.58 305.544C162.388 305.693 162.111 305.768 161.748 305.768H150.612V304.072H161.14L160.628 304.488C160.628 303.336 160.458 302.365 160.116 301.576C159.775 300.765 159.274 300.147 158.612 299.72C157.972 299.293 157.162 299.08 156.18 299.08C155.092 299.08 154.164 299.336 153.396 299.848C152.65 300.339 152.084 301.032 151.7 301.928C151.316 302.803 151.124 303.827 151.124 305V305.192C151.124 307.155 151.594 308.648 152.532 309.672C153.492 310.696 154.847 311.208 156.596 311.208C157.322 311.208 158.036 311.112 158.74 310.92C159.466 310.728 160.17 310.408 160.852 309.96C161.151 309.768 161.418 309.683 161.652 309.704C161.908 309.704 162.111 309.779 162.26 309.928C162.41 310.056 162.506 310.227 162.548 310.44C162.612 310.632 162.591 310.845 162.484 311.08C162.399 311.315 162.218 311.517 161.94 311.688C161.236 312.2 160.404 312.595 159.444 312.872C158.484 313.149 157.535 313.288 156.596 313.288ZM182.07 313.224C181.664 313.224 181.344 313.107 181.11 312.872C180.875 312.616 180.758 312.275 180.758 311.848V292.712H173.558C173.174 292.712 172.875 292.605 172.662 292.392C172.448 292.179 172.341 291.901 172.341 291.56C172.341 291.197 172.448 290.92 172.662 290.728C172.875 290.536 173.174 290.44 173.558 290.44H190.614C190.998 290.44 191.296 290.536 191.51 290.728C191.723 290.92 191.83 291.197 191.83 291.56C191.83 291.923 191.723 292.211 191.51 292.424C191.296 292.616 190.998 292.712 190.614 292.712H183.414V311.848C183.414 312.275 183.296 312.616 183.062 312.872C182.848 313.107 182.518 313.224 182.07 313.224ZM198.146 313.288C196.631 313.288 195.319 312.957 194.21 312.296C193.101 311.635 192.237 310.707 191.618 309.512C191.021 308.296 190.722 306.867 190.722 305.224C190.722 303.987 190.893 302.877 191.234 301.896C191.575 300.893 192.077 300.04 192.738 299.336C193.399 298.632 194.178 298.099 195.074 297.736C195.991 297.352 197.015 297.16 198.146 297.16C199.661 297.16 200.973 297.491 202.082 298.152C203.191 298.813 204.045 299.752 204.642 300.968C205.261 302.163 205.57 303.581 205.57 305.224C205.57 306.461 205.399 307.571 205.058 308.552C204.717 309.533 204.215 310.387 203.554 311.112C202.893 311.816 202.103 312.36 201.186 312.744C200.29 313.107 199.277 313.288 198.146 313.288ZM198.146 311.208C199.106 311.208 199.949 310.973 200.674 310.504C201.399 310.035 201.954 309.352 202.338 308.456C202.743 307.56 202.946 306.483 202.946 305.224C202.946 303.283 202.509 301.8 201.634 300.776C200.781 299.752 199.618 299.24 198.146 299.24C197.165 299.24 196.311 299.475 195.586 299.944C194.882 300.392 194.327 301.064 193.922 301.96C193.538 302.835 193.346 303.923 193.346 305.224C193.346 307.144 193.783 308.627 194.658 309.672C195.533 310.696 196.695 311.208 198.146 311.208ZM210.807 313.224C210.381 313.224 210.061 313.107 209.847 312.872C209.634 312.637 209.527 312.307 209.527 311.88V298.536C209.527 298.109 209.634 297.789 209.847 297.576C210.061 297.341 210.37 297.224 210.775 297.224C211.181 297.224 211.49 297.341 211.703 297.576C211.938 297.789 212.055 298.109 212.055 298.536V301.352L211.703 300.904C212.109 299.709 212.759 298.792 213.655 298.152C214.573 297.491 215.661 297.16 216.919 297.16C218.242 297.16 219.309 297.48 220.119 298.12C220.951 298.739 221.506 299.709 221.783 301.032H221.303C221.687 299.837 222.37 298.899 223.351 298.216C224.354 297.512 225.517 297.16 226.839 297.16C228.013 297.16 228.973 297.384 229.719 297.832C230.487 298.28 231.063 298.963 231.447 299.88C231.831 300.776 232.023 301.917 232.023 303.304V311.88C232.023 312.307 231.906 312.637 231.671 312.872C231.458 313.107 231.138 313.224 230.711 313.224C230.306 313.224 229.986 313.107 229.751 312.872C229.538 312.637 229.431 312.307 229.431 311.88V303.432C229.431 302.003 229.186 300.957 228.695 300.296C228.205 299.613 227.373 299.272 226.199 299.272C224.919 299.272 223.906 299.72 223.159 300.616C222.434 301.491 222.071 302.685 222.071 304.2V311.88C222.071 312.307 221.954 312.637 221.719 312.872C221.506 313.107 221.186 313.224 220.759 313.224C220.354 313.224 220.034 313.107 219.799 312.872C219.586 312.637 219.479 312.307 219.479 311.88V303.432C219.479 302.003 219.223 300.957 218.711 300.296C218.221 299.613 217.399 299.272 216.247 299.272C214.967 299.272 213.954 299.72 213.207 300.616C212.482 301.491 212.119 302.685 212.119 304.2V311.88C212.119 312.776 211.682 313.224 210.807 313.224ZM237.812 296.744C237.598 297.021 237.374 297.181 237.14 297.224C236.905 297.245 236.702 297.203 236.532 297.096C236.361 296.968 236.265 296.787 236.244 296.552C236.244 296.317 236.35 296.061 236.564 295.784C236.905 295.336 237.14 294.888 237.268 294.44C237.396 293.971 237.46 293.555 237.46 293.192L237.588 293.832C237.033 293.832 236.585 293.672 236.244 293.352C235.924 293.011 235.764 292.584 235.764 292.072C235.764 291.539 235.913 291.112 236.212 290.792C236.532 290.472 236.948 290.312 237.46 290.312C238.014 290.312 238.452 290.504 238.772 290.888C239.092 291.251 239.252 291.784 239.252 292.488C239.252 292.936 239.209 293.405 239.124 293.896C239.038 294.365 238.889 294.845 238.676 295.336C238.462 295.827 238.174 296.296 237.812 296.744ZM247.868 313.288C246.908 313.288 245.937 313.171 244.956 312.936C243.996 312.701 243.1 312.296 242.268 311.72C242.054 311.571 241.905 311.4 241.82 311.208C241.734 310.995 241.702 310.792 241.724 310.6C241.766 310.387 241.852 310.205 241.98 310.056C242.129 309.907 242.3 309.821 242.492 309.8C242.705 309.757 242.94 309.8 243.196 309.928C244.028 310.44 244.828 310.803 245.596 311.016C246.385 311.208 247.164 311.304 247.932 311.304C249.148 311.304 250.065 311.08 250.684 310.632C251.302 310.184 251.612 309.576 251.612 308.808C251.612 308.211 251.409 307.741 251.004 307.4C250.598 307.037 249.958 306.76 249.084 306.568L246.172 305.928C244.828 305.651 243.825 305.171 243.164 304.488C242.524 303.805 242.204 302.92 242.204 301.832C242.204 300.872 242.449 300.051 242.94 299.368C243.452 298.664 244.166 298.12 245.084 297.736C246.001 297.352 247.068 297.16 248.284 297.16C249.222 297.16 250.108 297.288 250.94 297.544C251.793 297.779 252.561 298.163 253.244 298.696C253.457 298.845 253.596 299.027 253.66 299.24C253.745 299.432 253.756 299.635 253.692 299.848C253.649 300.04 253.553 300.211 253.404 300.36C253.254 300.488 253.073 300.563 252.86 300.584C252.646 300.605 252.422 300.541 252.188 300.392C251.548 299.965 250.897 299.656 250.236 299.464C249.574 299.251 248.924 299.144 248.284 299.144C247.089 299.144 246.182 299.379 245.564 299.848C244.945 300.317 244.636 300.936 244.636 301.704C244.636 302.301 244.828 302.792 245.212 303.176C245.596 303.56 246.193 303.837 247.004 304.008L249.916 304.616C251.302 304.915 252.337 305.395 253.02 306.056C253.724 306.696 254.076 307.571 254.076 308.68C254.076 310.088 253.51 311.208 252.38 312.04C251.249 312.872 249.745 313.288 247.868 313.288ZM271.652 313.224C271.289 313.224 270.969 313.128 270.692 312.936C270.414 312.744 270.19 312.435 270.02 312.008L265.252 299.048C265.124 298.685 265.081 298.365 265.124 298.088C265.188 297.811 265.326 297.597 265.54 297.448C265.753 297.299 266.02 297.224 266.34 297.224C266.66 297.224 266.916 297.299 267.108 297.448C267.321 297.597 267.492 297.875 267.62 298.28L272.1 311.08H271.332L275.94 298.28C276.089 297.896 276.27 297.629 276.484 297.48C276.718 297.309 277.017 297.224 277.38 297.224C277.721 297.224 278.009 297.309 278.244 297.48C278.478 297.651 278.66 297.917 278.788 298.28L283.3 311.08H282.564L287.108 298.216C287.257 297.832 287.438 297.576 287.652 297.448C287.865 297.299 288.121 297.224 288.42 297.224C288.761 297.224 289.017 297.309 289.188 297.48C289.38 297.651 289.486 297.875 289.508 298.152C289.529 298.429 289.476 298.728 289.348 299.048L284.58 312.008C284.43 312.413 284.206 312.723 283.908 312.936C283.63 313.128 283.31 313.224 282.948 313.224C282.585 313.224 282.265 313.128 281.988 312.936C281.71 312.723 281.497 312.413 281.348 312.008L276.612 299.016H277.988L273.284 312.008C273.134 312.413 272.921 312.723 272.644 312.936C272.366 313.128 272.036 313.224 271.652 313.224ZM299.971 313.288C298.329 313.288 296.91 312.968 295.715 312.328C294.542 311.667 293.625 310.739 292.963 309.544C292.323 308.349 292.003 306.92 292.003 305.256C292.003 303.635 292.323 302.227 292.963 301.032C293.603 299.816 294.478 298.867 295.587 298.184C296.718 297.501 298.019 297.16 299.491 297.16C300.537 297.16 301.475 297.341 302.307 297.704C303.139 298.045 303.843 298.547 304.419 299.208C305.017 299.869 305.465 300.669 305.763 301.608C306.083 302.547 306.243 303.603 306.243 304.776C306.243 305.117 306.147 305.373 305.955 305.544C305.763 305.693 305.486 305.768 305.123 305.768H293.987V304.072H304.515L304.003 304.488C304.003 303.336 303.833 302.365 303.491 301.576C303.15 300.765 302.649 300.147 301.987 299.72C301.347 299.293 300.537 299.08 299.555 299.08C298.467 299.08 297.539 299.336 296.771 299.848C296.025 300.339 295.459 301.032 295.075 301.928C294.691 302.803 294.499 303.827 294.499 305V305.192C294.499 307.155 294.969 308.648 295.907 309.672C296.867 310.696 298.222 311.208 299.971 311.208C300.697 311.208 301.411 311.112 302.115 310.92C302.841 310.728 303.545 310.408 304.227 309.96C304.526 309.768 304.793 309.683 305.027 309.704C305.283 309.704 305.486 309.779 305.635 309.928C305.785 310.056 305.881 310.227 305.923 310.44C305.987 310.632 305.966 310.845 305.859 311.08C305.774 311.315 305.593 311.517 305.315 311.688C304.611 312.2 303.779 312.595 302.819 312.872C301.859 313.149 300.91 313.288 299.971 313.288ZM317.003 313.288C315.36 313.288 313.941 312.968 312.747 312.328C311.573 311.667 310.656 310.739 309.995 309.544C309.355 308.349 309.035 306.92 309.035 305.256C309.035 303.635 309.355 302.227 309.995 301.032C310.635 299.816 311.509 298.867 312.619 298.184C313.749 297.501 315.051 297.16 316.523 297.16C317.568 297.16 318.507 297.341 319.339 297.704C320.171 298.045 320.875 298.547 321.451 299.208C322.048 299.869 322.496 300.669 322.795 301.608C323.115 302.547 323.275 303.603 323.275 304.776C323.275 305.117 323.179 305.373 322.987 305.544C322.795 305.693 322.517 305.768 322.155 305.768H311.019V304.072H321.547L321.035 304.488C321.035 303.336 320.864 302.365 320.523 301.576C320.181 300.765 319.68 300.147 319.019 299.72C318.379 299.293 317.568 299.08 316.587 299.08C315.499 299.08 314.571 299.336 313.803 299.848C313.056 300.339 312.491 301.032 312.107 301.928C311.723 302.803 311.531 303.827 311.531 305V305.192C311.531 307.155 312 308.648 312.939 309.672C313.899 310.696 315.253 311.208 317.003 311.208C317.728 311.208 318.443 311.112 319.147 310.92C319.872 310.728 320.576 310.408 321.259 309.96C321.557 309.768 321.824 309.683 322.059 309.704C322.315 309.704 322.517 309.779 322.667 309.928C322.816 310.056 322.912 310.227 322.955 310.44C323.019 310.632 322.997 310.845 322.891 311.08C322.805 311.315 322.624 311.517 322.347 311.688C321.643 312.2 320.811 312.595 319.851 312.872C318.891 313.149 317.941 313.288 317.003 313.288ZM328.306 313.224C327.879 313.224 327.559 313.107 327.346 312.872C327.132 312.637 327.026 312.307 327.026 311.88V291.528C327.026 291.101 327.132 290.781 327.346 290.568C327.559 290.333 327.879 290.216 328.306 290.216C328.711 290.216 329.031 290.333 329.266 290.568C329.5 290.781 329.618 291.101 329.618 291.528V304.36H329.682L336.242 298.088C336.54 297.811 336.796 297.597 337.01 297.448C337.244 297.299 337.554 297.224 337.938 297.224C338.279 297.224 338.546 297.32 338.738 297.512C338.93 297.683 339.015 297.907 338.994 298.184C338.994 298.44 338.866 298.717 338.61 299.016L331.634 305.64V304.232L339.218 311.368C339.516 311.667 339.666 311.955 339.666 312.232C339.666 312.509 339.559 312.744 339.346 312.936C339.154 313.128 338.898 313.224 338.578 313.224C338.194 313.224 337.884 313.149 337.65 313C337.415 312.829 337.127 312.584 336.786 312.264L329.682 305.704H329.618V311.88C329.618 312.776 329.18 313.224 328.306 313.224ZM347.762 313.288C346.226 313.288 345.052 312.819 344.242 311.88C343.431 310.941 343.026 309.597 343.026 307.848V291.528C343.026 291.101 343.132 290.781 343.346 290.568C343.559 290.333 343.879 290.216 344.306 290.216C344.711 290.216 345.031 290.333 345.266 290.568C345.5 290.781 345.618 291.101 345.618 291.528V307.656C345.618 308.808 345.842 309.672 346.29 310.248C346.759 310.803 347.442 311.08 348.338 311.08C348.53 311.08 348.7 311.069 348.85 311.048C348.999 311.027 349.148 311.016 349.298 311.016C349.532 310.995 349.692 311.048 349.778 311.176C349.884 311.304 349.938 311.56 349.938 311.944C349.938 312.328 349.852 312.616 349.682 312.808C349.511 313 349.234 313.128 348.85 313.192C348.679 313.213 348.498 313.235 348.306 313.256C348.114 313.277 347.932 313.288 347.762 313.288ZM355.607 318.984C355.287 318.984 355.031 318.899 354.839 318.728C354.647 318.557 354.529 318.323 354.487 318.024C354.465 317.747 354.519 317.459 354.647 317.16L356.855 312.2V313.32L350.711 299.048C350.583 298.728 350.54 298.429 350.583 298.152C350.625 297.875 350.753 297.651 350.967 297.48C351.18 297.309 351.479 297.224 351.863 297.224C352.204 297.224 352.471 297.299 352.663 297.448C352.855 297.597 353.025 297.864 353.175 298.248L358.423 311.112H357.559L362.871 298.248C363.041 297.864 363.223 297.597 363.415 297.448C363.607 297.299 363.884 297.224 364.247 297.224C364.588 297.224 364.844 297.309 365.015 297.48C365.207 297.651 365.313 297.875 365.335 298.152C365.377 298.408 365.335 298.696 365.207 299.016L357.015 317.96C356.844 318.344 356.652 318.611 356.439 318.76C356.247 318.909 355.969 318.984 355.607 318.984ZM378.182 313.224C377.756 313.224 377.436 313.107 377.222 312.872C377.009 312.637 376.902 312.307 376.902 311.88V298.536C376.902 298.109 377.009 297.789 377.222 297.576C377.436 297.341 377.745 297.224 378.15 297.224C378.556 297.224 378.865 297.341 379.078 297.576C379.313 297.789 379.43 298.109 379.43 298.536V301.352L379.078 300.904C379.484 299.709 380.134 298.792 381.03 298.152C381.948 297.491 383.036 297.16 384.294 297.16C385.617 297.16 386.684 297.48 387.494 298.12C388.326 298.739 388.881 299.709 389.158 301.032H388.678C389.062 299.837 389.745 298.899 390.726 298.216C391.729 297.512 392.892 297.16 394.214 297.16C395.388 297.16 396.348 297.384 397.094 297.832C397.862 298.28 398.438 298.963 398.822 299.88C399.206 300.776 399.398 301.917 399.398 303.304V311.88C399.398 312.307 399.281 312.637 399.046 312.872C398.833 313.107 398.513 313.224 398.086 313.224C397.681 313.224 397.361 313.107 397.126 312.872C396.913 312.637 396.806 312.307 396.806 311.88V303.432C396.806 302.003 396.561 300.957 396.07 300.296C395.58 299.613 394.748 299.272 393.574 299.272C392.294 299.272 391.281 299.72 390.534 300.616C389.809 301.491 389.446 302.685 389.446 304.2V311.88C389.446 312.307 389.329 312.637 389.094 312.872C388.881 313.107 388.561 313.224 388.134 313.224C387.729 313.224 387.409 313.107 387.174 312.872C386.961 312.637 386.854 312.307 386.854 311.88V303.432C386.854 302.003 386.598 300.957 386.086 300.296C385.596 299.613 384.774 299.272 383.622 299.272C382.342 299.272 381.329 299.72 380.582 300.616C379.857 301.491 379.494 302.685 379.494 304.2V311.88C379.494 312.776 379.057 313.224 378.182 313.224ZM411.253 313.288C409.61 313.288 408.191 312.968 406.997 312.328C405.823 311.667 404.906 310.739 404.245 309.544C403.605 308.349 403.285 306.92 403.285 305.256C403.285 303.635 403.605 302.227 404.245 301.032C404.885 299.816 405.759 298.867 406.869 298.184C407.999 297.501 409.301 297.16 410.773 297.16C411.818 297.16 412.757 297.341 413.589 297.704C414.421 298.045 415.125 298.547 415.701 299.208C416.298 299.869 416.746 300.669 417.045 301.608C417.365 302.547 417.525 303.603 417.525 304.776C417.525 305.117 417.429 305.373 417.237 305.544C417.045 305.693 416.767 305.768 416.405 305.768H405.269V304.072H415.797L415.285 304.488C415.285 303.336 415.114 302.365 414.773 301.576C414.431 300.765 413.93 300.147 413.269 299.72C412.629 299.293 411.818 299.08 410.837 299.08C409.749 299.08 408.821 299.336 408.053 299.848C407.306 300.339 406.741 301.032 406.357 301.928C405.973 302.803 405.781 303.827 405.781 305V305.192C405.781 307.155 406.25 308.648 407.189 309.672C408.149 310.696 409.503 311.208 411.253 311.208C411.978 311.208 412.693 311.112 413.397 310.92C414.122 310.728 414.826 310.408 415.509 309.96C415.807 309.768 416.074 309.683 416.309 309.704C416.565 309.704 416.767 309.779 416.917 309.928C417.066 310.056 417.162 310.227 417.205 310.44C417.269 310.632 417.247 310.845 417.141 311.08C417.055 311.315 416.874 311.517 416.597 311.688C415.893 312.2 415.061 312.595 414.101 312.872C413.141 313.149 412.191 313.288 411.253 313.288ZM428.284 313.288C426.641 313.288 425.222 312.968 424.028 312.328C422.854 311.667 421.937 310.739 421.276 309.544C420.636 308.349 420.316 306.92 420.316 305.256C420.316 303.635 420.636 302.227 421.276 301.032C421.916 299.816 422.79 298.867 423.9 298.184C425.03 297.501 426.332 297.16 427.804 297.16C428.849 297.16 429.788 297.341 430.62 297.704C431.452 298.045 432.156 298.547 432.732 299.208C433.329 299.869 433.777 300.669 434.076 301.608C434.396 302.547 434.556 303.603 434.556 304.776C434.556 305.117 434.46 305.373 434.268 305.544C434.076 305.693 433.798 305.768 433.436 305.768H422.3V304.072H432.828L432.316 304.488C432.316 303.336 432.145 302.365 431.804 301.576C431.462 300.765 430.961 300.147 430.3 299.72C429.66 299.293 428.849 299.08 427.868 299.08C426.78 299.08 425.852 299.336 425.084 299.848C424.337 300.339 423.772 301.032 423.388 301.928C423.004 302.803 422.812 303.827 422.812 305V305.192C422.812 307.155 423.281 308.648 424.22 309.672C425.18 310.696 426.534 311.208 428.284 311.208C429.009 311.208 429.724 311.112 430.428 310.92C431.153 310.728 431.857 310.408 432.54 309.96C432.838 309.768 433.105 309.683 433.34 309.704C433.596 309.704 433.798 309.779 433.948 309.928C434.097 310.056 434.193 310.227 434.236 310.44C434.3 310.632 434.278 310.845 434.172 311.08C434.086 311.315 433.905 311.517 433.628 311.688C432.924 312.2 432.092 312.595 431.132 312.872C430.172 313.149 429.222 313.288 428.284 313.288ZM444.547 313.288C443.331 313.288 442.307 313.075 441.475 312.648C440.664 312.2 440.056 311.56 439.651 310.728C439.246 309.875 439.043 308.84 439.043 307.624V299.464H436.899C436.536 299.464 436.259 299.379 436.067 299.208C435.875 299.016 435.779 298.76 435.779 298.44C435.779 298.12 435.875 297.875 436.067 297.704C436.259 297.533 436.536 297.448 436.899 297.448H439.043V293.768C439.043 293.341 439.16 293.021 439.395 292.808C439.63 292.573 439.95 292.456 440.355 292.456C440.76 292.456 441.07 292.573 441.283 292.808C441.518 293.021 441.635 293.341 441.635 293.768V297.448H445.667C446.03 297.448 446.307 297.533 446.499 297.704C446.691 297.875 446.787 298.12 446.787 298.44C446.787 298.76 446.691 299.016 446.499 299.208C446.307 299.379 446.03 299.464 445.667 299.464H441.635V307.368C441.635 308.584 441.891 309.512 442.403 310.152C442.915 310.771 443.747 311.08 444.899 311.08C445.304 311.08 445.646 311.037 445.923 310.952C446.222 310.867 446.467 310.824 446.659 310.824C446.851 310.803 447.011 310.867 447.139 311.016C447.267 311.165 447.331 311.421 447.331 311.784C447.331 312.04 447.278 312.275 447.171 312.488C447.086 312.701 446.926 312.851 446.691 312.936C446.435 313.021 446.094 313.096 445.667 313.16C445.262 313.245 444.888 313.288 444.547 313.288ZM450.962 313.16C450.535 313.16 450.215 313.043 450.002 312.808C449.789 312.552 449.682 312.2 449.682 311.752V298.664C449.682 298.216 449.789 297.875 450.002 297.64C450.215 297.405 450.535 297.288 450.962 297.288C451.367 297.288 451.687 297.405 451.922 297.64C452.157 297.875 452.274 298.216 452.274 298.664V311.752C452.274 312.2 452.157 312.552 451.922 312.808C451.709 313.043 451.389 313.16 450.962 313.16ZM450.962 293.704C450.429 293.704 450.013 293.565 449.714 293.288C449.415 292.989 449.266 292.595 449.266 292.104C449.266 291.592 449.415 291.208 449.714 290.952C450.013 290.675 450.429 290.536 450.962 290.536C451.517 290.536 451.933 290.675 452.21 290.952C452.509 291.208 452.658 291.592 452.658 292.104C452.658 292.595 452.509 292.989 452.21 293.288C451.933 293.565 451.517 293.704 450.962 293.704ZM458.4 313.224C457.973 313.224 457.653 313.107 457.44 312.872C457.226 312.637 457.12 312.307 457.12 311.88V298.536C457.12 298.109 457.226 297.789 457.44 297.576C457.653 297.341 457.962 297.224 458.368 297.224C458.773 297.224 459.082 297.341 459.296 297.576C459.53 297.789 459.648 298.109 459.648 298.536V301.288L459.296 300.904C459.744 299.667 460.469 298.739 461.472 298.12C462.496 297.48 463.669 297.16 464.992 297.16C466.229 297.16 467.253 297.384 468.064 297.832C468.896 298.28 469.514 298.963 469.92 299.88C470.325 300.776 470.528 301.917 470.528 303.304V311.88C470.528 312.307 470.41 312.637 470.176 312.872C469.962 313.107 469.653 313.224 469.248 313.224C468.821 313.224 468.49 313.107 468.256 312.872C468.042 312.637 467.936 312.307 467.936 311.88V303.464C467.936 302.013 467.648 300.957 467.072 300.296C466.517 299.613 465.621 299.272 464.384 299.272C462.954 299.272 461.813 299.72 460.96 300.616C460.128 301.491 459.712 302.664 459.712 304.136V311.88C459.712 312.776 459.274 313.224 458.4 313.224ZM482.187 319.048C481.056 319.048 479.947 318.909 478.859 318.632C477.792 318.376 476.822 317.96 475.947 317.384C475.691 317.235 475.52 317.053 475.435 316.84C475.371 316.627 475.36 316.413 475.403 316.2C475.446 316.008 475.542 315.827 475.691 315.656C475.84 315.507 476.011 315.411 476.203 315.368C476.416 315.325 476.63 315.357 476.843 315.464C477.782 316.04 478.678 316.435 479.531 316.648C480.384 316.861 481.227 316.968 482.059 316.968C483.574 316.968 484.715 316.563 485.483 315.752C486.272 314.941 486.667 313.768 486.667 312.232V308.616H486.987C486.667 309.853 485.984 310.835 484.939 311.56C483.915 312.285 482.71 312.648 481.323 312.648C479.894 312.648 478.656 312.328 477.611 311.688C476.566 311.027 475.755 310.109 475.179 308.936C474.624 307.763 474.347 306.408 474.347 304.872C474.347 303.72 474.507 302.675 474.827 301.736C475.147 300.776 475.606 299.965 476.203 299.304C476.822 298.621 477.558 298.099 478.411 297.736C479.286 297.352 480.256 297.16 481.323 297.16C482.731 297.16 483.947 297.523 484.971 298.248C485.995 298.952 486.656 299.912 486.955 301.128L486.635 301.512V298.536C486.635 298.109 486.742 297.789 486.955 297.576C487.19 297.341 487.51 297.224 487.915 297.224C488.342 297.224 488.662 297.341 488.875 297.576C489.088 297.789 489.195 298.109 489.195 298.536V311.88C489.195 314.248 488.598 316.029 487.403 317.224C486.23 318.44 484.491 319.048 482.187 319.048ZM481.803 310.536C482.806 310.536 483.67 310.312 484.395 309.864C485.12 309.395 485.675 308.733 486.059 307.88C486.464 307.027 486.667 306.024 486.667 304.872C486.667 303.144 486.23 301.779 485.355 300.776C484.48 299.752 483.296 299.24 481.803 299.24C480.822 299.24 479.968 299.475 479.243 299.944C478.518 300.392 477.952 301.043 477.547 301.896C477.163 302.728 476.971 303.72 476.971 304.872C476.971 306.6 477.408 307.976 478.283 309C479.158 310.024 480.331 310.536 481.803 310.536Z" fill="white"/>
<rect x="52" y="254" width="48" height="23" rx="11.5" fill="#92F2FF"/>
<path d="M68.9579 270.084C68.7979 270.084 68.6739 270.04 68.5859 269.952C68.5059 269.856 68.4659 269.728 68.4659 269.568V261.972C68.4659 261.804 68.5059 261.676 68.5859 261.588C68.6739 261.5 68.7979 261.456 68.9579 261.456C69.1179 261.456 69.2379 261.5 69.3179 261.588C69.4059 261.676 69.4499 261.804 69.4499 261.972V265.284H74.5259V261.972C74.5259 261.804 74.5659 261.676 74.6459 261.588C74.7339 261.5 74.8579 261.456 75.0179 261.456C75.1779 261.456 75.2979 261.5 75.3779 261.588C75.4659 261.676 75.5099 261.804 75.5099 261.972V269.568C75.5099 269.728 75.4659 269.856 75.3779 269.952C75.2979 270.04 75.1779 270.084 75.0179 270.084C74.8579 270.084 74.7339 270.04 74.6459 269.952C74.5659 269.856 74.5259 269.728 74.5259 269.568V266.136H69.4499V269.568C69.4499 269.728 69.4099 269.856 69.3299 269.952C69.2499 270.04 69.1259 270.084 68.9579 270.084ZM78.0868 270.084C77.9268 270.084 77.8028 270.04 77.7148 269.952C77.6348 269.856 77.5948 269.728 77.5948 269.568V262.044C77.5948 261.876 77.6388 261.752 77.7268 261.672C77.8148 261.584 77.9388 261.54 78.0988 261.54H80.9428C81.8468 261.54 82.5428 261.752 83.0308 262.176C83.5188 262.6 83.7628 263.204 83.7628 263.988C83.7628 264.484 83.6508 264.916 83.4268 265.284C83.2108 265.644 82.8908 265.92 82.4668 266.112C82.0428 266.296 81.5348 266.388 80.9428 266.388L81.0628 266.232H81.3028C81.6148 266.232 81.8868 266.312 82.1188 266.472C82.3508 266.632 82.5628 266.888 82.7548 267.24L83.9068 269.388C83.9708 269.5 83.9988 269.612 83.9908 269.724C83.9908 269.828 83.9548 269.916 83.8828 269.988C83.8108 270.052 83.7068 270.084 83.5708 270.084C83.4348 270.084 83.3228 270.052 83.2348 269.988C83.1468 269.924 83.0708 269.832 83.0068 269.712L81.6988 267.288C81.5148 266.944 81.3028 266.716 81.0628 266.604C80.8228 266.484 80.5068 266.424 80.1148 266.424H78.5788V269.568C78.5788 269.728 78.5388 269.856 78.4588 269.952C78.3788 270.04 78.2548 270.084 78.0868 270.084ZM78.5788 265.644H80.7988C81.4548 265.644 81.9508 265.508 82.2868 265.236C82.6228 264.956 82.7908 264.54 82.7908 263.988C82.7908 263.452 82.6228 263.048 82.2868 262.776C81.9508 262.496 81.4548 262.356 80.7988 262.356H78.5788V265.644Z" fill="black"/>
<defs>
<linearGradient id="paint0_linear_9_26" x1="27" y1="83.5" x2="550" y2="83.5" gradientUnits="userSpaceOnUse">
<stop stop-color="#92F2FF"/>
<stop offset="0.42" stop-color="#FF7EF0"/>
<stop offset="0.78" stop-color="white"/>
</linearGradient>
<linearGradient id="paint1_linear_9_26" x1="27" y1="185.5" x2="550" y2="185.5" gradientUnits="userSpaceOnUse">
<stop stop-color="#92F2FF"/>
<stop offset="0.42" stop-color="#FF7EF0"/>
<stop offset="0.78" stop-color="white"/>
</linearGradient>
<linearGradient id="paint2_linear_9_26" x1="27" y1="287.5" x2="550" y2="287.5" gradientUnits="userSpaceOnUse">
<stop stop-color="#92F2FF"/>
<stop offset="0.42" stop-color="#FF7EF0"/>
<stop offset="0.78" stop-color="white"/>
</linearGradient>
</defs>
</svg>
