<svg width="475" height="117" viewBox="0 0 475 117" fill="none" xmlns="http://www.w3.org/2000/svg">
<g clip-path="url(#clip0_7_13)">
<path d="M36.5627 25.7196C42.6834 14.8637 58.3166 14.8637 64.4373 25.7196L91.1749 73.1419C97.1885 83.8077 89.4819 97 77.2376 97H23.7624C11.5181 97 3.81148 83.8077 9.82508 73.1419L36.5627 25.7196Z" fill="#92F2FF"/>
<path d="M47.5627 19.7196C53.6834 8.86374 69.3166 8.86374 75.4373 19.7196L102.175 67.1419C108.189 77.8077 100.482 91 88.2376 91H34.7624C22.5181 91 14.8115 77.8077 20.8251 67.1419L47.5627 19.7196Z" fill="#FF7EF0"/>
<path d="M58.5627 13.7196C64.6834 2.86374 80.3166 2.86374 86.4373 13.7196L113.175 61.1419C119.189 71.8077 111.482 85 99.2376 85H45.7624C33.5181 85 25.8115 71.8077 31.8251 61.1419L58.5627 13.7196Z" fill="black"/>
<mask id="path-4-outside-1_7_13" maskUnits="userSpaceOnUse" x="127" y="26" width="335" height="67" fill="black">
<rect fill="white" x="127" y="26" width="335" height="67"/>
<path d="M150.524 91C146.26 91 142.488 90.18 139.208 88.54C135.982 86.9 133.44 84.6587 131.582 81.816C129.778 78.9733 128.876 75.748 128.876 72.14C128.876 71.812 129.04 71.648 129.368 71.648C129.696 71.648 129.86 71.812 129.86 72.14C129.86 75.6387 130.734 78.7273 132.484 81.406C134.233 84.0847 136.666 86.1893 139.782 87.72C142.898 89.2507 146.478 90.016 150.524 90.016H165.202C169.028 90.016 172.363 89.196 175.206 87.556C178.048 85.8613 180.262 83.62 181.848 80.832C183.488 77.9893 184.308 74.8187 184.308 71.32C184.308 67.4387 183.46 63.9947 181.766 60.988C180.071 57.9267 177.802 55.576 174.96 53.936C172.226 52.3507 169.192 51.558 165.858 51.558C165.53 51.558 165.366 51.394 165.366 51.066C165.366 50.738 165.53 50.574 165.858 50.574C167.552 50.574 169.165 50.7927 170.696 51.23C172.281 51.6127 173.757 52.1867 175.124 52.952C177.201 51.968 178.814 50.492 179.962 48.524C181.11 46.556 181.684 44.342 181.684 41.882C181.684 39.422 181 37.1533 179.634 35.076C178.267 32.9987 176.408 31.3313 174.058 30.074C171.707 28.8167 169.028 28.188 166.022 28.188H148.638C145.194 28.188 142.132 29.0353 139.454 30.73C136.83 32.37 134.752 34.6113 133.222 37.454C131.746 40.242 131.008 43.358 131.008 46.802C131.008 50.5193 131.828 53.772 133.468 56.56C135.162 59.348 137.404 61.5073 140.192 63.038C143.034 64.5687 146.178 65.334 149.622 65.334C149.95 65.334 150.114 65.498 150.114 65.826C150.114 66.154 149.95 66.318 149.622 66.318C145.959 66.318 142.652 65.498 139.7 63.858C136.748 62.218 134.397 59.922 132.648 56.97C130.898 54.018 130.024 50.6287 130.024 46.802C130.024 43.1393 130.816 39.832 132.402 36.88C134.042 33.928 136.256 31.5773 139.044 29.828C141.886 28.0787 145.084 27.204 148.638 27.204H166.022C169.247 27.204 172.117 27.8873 174.632 29.254C177.146 30.6207 179.114 32.4247 180.536 34.666C181.957 36.8527 182.668 39.258 182.668 41.882C182.668 44.342 182.066 46.6107 180.864 48.688C179.716 50.7653 178.103 52.378 176.026 53.526C178.814 55.2207 181.055 57.626 182.75 60.742C184.444 63.8033 185.292 67.3293 185.292 71.32C185.292 74.928 184.444 78.2353 182.75 81.242C181.11 84.194 178.786 86.572 175.78 88.376C172.773 90.1253 169.247 91 165.202 91H150.524ZM199.279 91C197.256 91 195.507 90.262 194.031 88.786C192.555 87.2553 191.817 85.3693 191.817 83.128V35.158C191.817 32.9167 192.582 31.0307 194.113 29.5C195.644 27.9693 197.639 27.204 200.099 27.204H204.527C206.987 27.204 208.955 27.9693 210.431 29.5C211.962 31.0307 212.727 32.9167 212.727 35.158V58.856C213.82 56.068 215.597 53.936 218.057 52.46C220.517 50.9293 223.25 50.164 226.257 50.164C228.99 50.164 231.423 50.7927 233.555 52.05C235.742 53.2527 237.464 54.92 238.721 57.052C239.978 59.184 240.607 61.6167 240.607 64.35V82.636C240.607 84.9867 239.787 86.982 238.147 88.622C236.507 90.2073 234.512 91 232.161 91H230.521C230.138 91 229.947 90.836 229.947 90.508C229.947 90.18 230.138 90.016 230.521 90.016H232.161C234.238 90.016 235.988 89.3327 237.409 87.966C238.885 86.5447 239.623 84.768 239.623 82.636V64.35C239.623 61.7807 239.022 59.512 237.819 57.544C236.671 55.576 235.086 54.018 233.063 52.87C231.095 51.722 228.826 51.148 226.257 51.148C223.852 51.148 221.61 51.6673 219.533 52.706C217.456 53.69 215.788 55.1387 214.531 57.052C213.328 58.9107 212.727 61.2067 212.727 63.94C212.727 64.268 212.563 64.432 212.235 64.432C211.907 64.432 211.743 64.2407 211.743 63.858V35.158C211.743 33.2447 211.087 31.6047 209.775 30.238C208.518 28.8713 206.768 28.188 204.527 28.188H200.099C197.912 28.188 196.136 28.8713 194.769 30.238C193.457 31.6047 192.801 33.2447 192.801 35.158V83.128C192.801 85.096 193.43 86.736 194.687 88.048C195.944 89.36 197.475 90.016 199.279 90.016H205.511C207.315 90.016 208.846 89.4693 210.103 88.376C211.36 87.228 211.989 85.67 211.989 83.702C211.989 83.374 212.153 83.21 212.481 83.21C212.809 83.21 212.973 83.374 212.973 83.702C212.973 85.8887 212.262 87.6653 210.841 89.032C209.42 90.344 207.643 91 205.511 91H199.279ZM263.479 91.82C260.308 91.82 257.383 91.1093 254.705 89.688C252.026 88.212 249.894 86.0253 248.309 83.128C246.723 80.176 245.931 76.4587 245.931 71.976V70.254C245.931 65.99 246.669 62.382 248.145 59.43C249.621 56.4233 251.671 54.1273 254.295 52.542C256.919 50.9567 259.898 50.164 263.233 50.164C266.458 50.164 269.027 50.738 270.941 51.886C272.854 53.034 274.439 54.6467 275.697 56.724C276.134 54.9747 277.118 53.5807 278.649 52.542C280.179 51.5033 281.874 50.984 283.733 50.984H288.161C290.566 50.984 292.561 51.7493 294.147 53.28C295.787 54.8107 296.607 56.7787 296.607 59.184V83.21C296.607 85.5607 295.759 87.4467 294.065 88.868C292.425 90.2893 290.457 91 288.161 91H284.307C281.136 91 278.867 90.016 277.501 88.048C277.391 87.884 277.364 87.72 277.419 87.556C277.528 87.392 277.692 87.31 277.911 87.31C278.129 87.31 278.266 87.392 278.321 87.556C279.414 89.196 281.409 90.016 284.307 90.016H288.161C290.238 90.016 291.987 89.4147 293.409 88.212C294.885 87.0093 295.623 85.342 295.623 83.21V59.184C295.623 57.052 294.885 55.33 293.409 54.018C291.987 52.6513 290.238 51.968 288.161 51.968H283.733C281.874 51.968 280.261 52.4873 278.895 53.526C277.528 54.5647 276.708 56.0407 276.435 57.954C276.981 59.0473 277.255 60.3047 277.255 61.726C277.255 62.054 277.091 62.218 276.763 62.218C276.435 62.218 276.271 62.054 276.271 61.726C276.271 60.5233 276.025 59.43 275.533 58.446C274.494 56.2047 273.018 54.428 271.105 53.116C269.246 51.804 266.622 51.148 263.233 51.148C258.422 51.148 254.486 52.8153 251.425 56.15C248.418 59.4847 246.915 64.186 246.915 70.254V71.976C246.915 76.2947 247.653 79.848 249.129 82.636C250.605 85.424 252.6 87.5013 255.115 88.868C257.629 90.18 260.417 90.836 263.479 90.836C266.868 90.836 269.683 90.098 271.925 88.622C274.166 87.146 275.287 85.3147 275.287 83.128C275.287 82.8547 275.451 82.718 275.779 82.718C276.107 82.718 276.271 82.882 276.271 83.21C276.271 84.7953 275.697 86.244 274.549 87.556C273.455 88.868 271.925 89.9067 269.957 90.672C268.043 91.4373 265.884 91.82 263.479 91.82ZM318.467 91.82C314.805 91.82 311.88 91.1913 309.693 89.934C307.507 88.622 305.839 86.9547 304.691 84.932C303.598 82.8547 302.86 80.6407 302.477 78.29C302.149 75.9393 301.985 73.6707 301.985 71.484V68.45C301.985 65.2247 302.559 62.218 303.707 59.43C304.855 56.642 306.659 54.4007 309.119 52.706C311.579 51.0113 314.75 50.164 318.631 50.164C321.583 50.164 324.071 50.7653 326.093 51.968C328.116 53.1707 329.647 54.7013 330.685 56.56C331.724 58.4187 332.243 60.3593 332.243 62.382C332.243 62.71 332.079 62.874 331.751 62.874C331.423 62.874 331.259 62.71 331.259 62.382C331.259 60.4687 330.767 58.6647 329.783 56.97C328.854 55.2753 327.433 53.8813 325.519 52.788C323.661 51.6947 321.337 51.148 318.549 51.148C314.887 51.148 311.907 51.968 309.611 53.608C307.315 55.1933 305.621 57.298 304.527 59.922C303.489 62.546 302.969 65.3887 302.969 68.45V71.484C302.969 73.616 303.133 75.83 303.461 78.126C303.789 80.3673 304.473 82.472 305.511 84.44C306.55 86.3533 308.108 87.9113 310.185 89.114C312.263 90.262 315.023 90.836 318.467 90.836C320.107 90.836 321.72 90.5627 323.305 90.016C324.891 89.4147 326.257 88.4853 327.405 87.228C328.608 85.9707 329.346 84.358 329.619 82.39C329.619 82.062 329.783 81.898 330.111 81.898C330.439 81.898 330.603 82.062 330.603 82.39V83.456C330.603 85.424 331.232 87.0093 332.489 88.212C333.747 89.4147 335.277 90.016 337.081 90.016H343.313C345.172 90.016 346.73 89.36 347.987 88.048C349.245 86.736 349.873 85.096 349.873 83.128V35.158C349.873 33.2447 349.19 31.6047 347.823 30.238C346.511 28.8713 344.735 28.188 342.493 28.188H338.065C335.879 28.188 334.102 28.8713 332.735 30.238C331.423 31.6047 330.767 33.2447 330.767 35.158V45.162C330.767 45.4353 330.603 45.572 330.275 45.572C329.947 45.572 329.783 45.4353 329.783 45.162V35.158C329.783 32.9713 330.521 31.1127 331.997 29.582C333.528 27.9967 335.551 27.204 338.065 27.204H342.493C345.063 27.204 347.085 27.9967 348.561 29.582C350.092 31.1673 350.857 33.026 350.857 35.158V83.128C350.857 85.3147 350.147 87.1733 348.725 88.704C347.359 90.2347 345.555 91 343.313 91H337.081C335.277 91 333.692 90.4533 332.325 89.36C331.013 88.2667 330.166 86.818 329.783 85.014C328.909 87.4193 327.351 89.1687 325.109 90.262C322.868 91.3007 320.654 91.82 318.467 91.82ZM377.837 91.82C373.901 91.82 370.32 90.9453 367.095 89.196C363.924 87.392 361.382 84.9593 359.469 81.898C357.555 78.782 356.599 75.3107 356.599 71.484V70.664C356.599 66.6733 357.555 63.1473 359.469 60.086C361.382 57.0247 363.924 54.6193 367.095 52.87C370.32 51.066 373.901 50.164 377.837 50.164H378.329C382.319 50.164 385.9 51.066 389.071 52.87C392.296 54.6193 394.865 57.0247 396.779 60.086C398.692 63.1473 399.649 66.6733 399.649 70.664V71.484C399.649 75.3107 398.692 78.782 396.779 81.898C394.865 84.9593 392.296 87.392 389.071 89.196C385.9 90.9453 382.319 91.82 378.329 91.82H377.837ZM357.583 71.484C357.583 75.1467 358.485 78.454 360.289 81.406C362.093 84.3033 364.525 86.5993 367.587 88.294C370.648 89.9887 374.065 90.836 377.837 90.836H378.329C382.155 90.836 385.599 89.9887 388.661 88.294C391.722 86.5993 394.155 84.3033 395.959 81.406C397.763 78.454 398.665 75.1467 398.665 71.484V70.664C398.665 66.8373 397.763 63.4753 395.959 60.578C394.155 57.626 391.722 55.33 388.661 53.69C385.599 51.9953 382.155 51.148 378.329 51.148H377.837C374.065 51.148 370.648 51.9953 367.587 53.69C364.525 55.33 362.093 57.626 360.289 60.578C358.485 63.4753 357.583 66.8373 357.583 70.664V71.484ZM423.271 91.82C421.358 91.8747 419.554 91.41 417.859 90.426C416.164 89.442 414.852 87.8567 413.923 85.67L404.247 62.71C403.318 60.4687 403.318 58.2547 404.247 56.068C405.231 53.8267 406.816 52.2687 409.003 51.394L409.987 50.984C412.775 49.836 415.29 49.7813 417.531 50.82C419.772 51.804 421.33 53.3347 422.205 55.412L423.025 57.298C423.681 55.0567 424.829 53.3073 426.469 52.05C428.164 50.7927 430.022 50.164 432.045 50.164H432.701C434.341 50.164 435.68 50.492 436.719 51.148C437.758 51.7493 438.687 52.5967 439.507 53.69C439.616 53.854 439.644 54.0453 439.589 54.264C439.534 54.428 439.398 54.51 439.179 54.51C439.015 54.51 438.851 54.428 438.687 54.264C438.14 53.3893 437.402 52.6513 436.473 52.05C435.544 51.4487 434.286 51.148 432.701 51.148H432.045C430.022 51.148 428.273 51.7767 426.797 53.034C425.376 54.2913 424.337 56.068 423.681 58.364C423.626 58.692 423.435 58.856 423.107 58.856C422.779 58.856 422.56 58.7193 422.451 58.446L421.385 55.986C420.893 54.7833 420.1 53.7447 419.007 52.87C417.968 51.9953 416.711 51.4213 415.235 51.148C413.814 50.8747 412.201 51.1207 410.397 51.886L409.413 52.296C407.445 53.116 406.024 54.51 405.149 56.478C404.329 58.446 404.329 60.414 405.149 62.382L414.825 85.342C415.645 87.2553 416.793 88.6767 418.269 89.606C419.8 90.4807 421.467 90.8907 423.271 90.836C424.911 90.7813 426.551 90.3167 428.191 89.442C429.831 88.5673 430.952 87.2827 431.553 85.588C431.662 85.3147 431.826 85.178 432.045 85.178C432.209 85.178 432.318 85.2327 432.373 85.342C432.428 85.3967 432.482 85.4787 432.537 85.588C433.302 87.392 434.45 88.7313 435.981 89.606C437.566 90.426 439.234 90.836 440.983 90.836C442.787 90.836 444.454 90.3987 445.985 89.524C447.516 88.5947 448.691 87.146 449.511 85.178L458.941 62.71C459.761 60.742 459.788 58.774 459.023 56.806C458.312 54.838 456.946 53.4167 454.923 52.542L453.447 51.886C451.698 51.1207 449.812 50.984 447.789 51.476C445.821 51.968 444.263 53.362 443.115 55.658L441.147 59.594C441.038 59.8127 440.901 59.922 440.737 59.922C440.19 59.922 440.026 59.676 440.245 59.184L442.295 55.166C443.552 52.706 445.247 51.1753 447.379 50.574C449.511 49.918 451.643 50.0547 453.775 50.984L455.333 51.64C456.754 52.2413 457.902 53.1707 458.777 54.428C459.706 55.6307 460.28 56.9973 460.499 58.528C460.718 60.0587 460.499 61.562 459.843 63.038L450.413 85.506C449.484 87.7473 448.144 89.36 446.395 90.344C444.7 91.328 442.896 91.82 440.983 91.82C439.288 91.7653 437.566 91.328 435.817 90.508C434.068 89.688 432.81 88.4853 432.045 86.9C431.28 88.4307 430.077 89.6333 428.437 90.508C426.797 91.328 425.075 91.7653 423.271 91.82Z"/>
</mask>
<path d="M150.524 91C146.26 91 142.488 90.18 139.208 88.54C135.982 86.9 133.44 84.6587 131.582 81.816C129.778 78.9733 128.876 75.748 128.876 72.14C128.876 71.812 129.04 71.648 129.368 71.648C129.696 71.648 129.86 71.812 129.86 72.14C129.86 75.6387 130.734 78.7273 132.484 81.406C134.233 84.0847 136.666 86.1893 139.782 87.72C142.898 89.2507 146.478 90.016 150.524 90.016H165.202C169.028 90.016 172.363 89.196 175.206 87.556C178.048 85.8613 180.262 83.62 181.848 80.832C183.488 77.9893 184.308 74.8187 184.308 71.32C184.308 67.4387 183.46 63.9947 181.766 60.988C180.071 57.9267 177.802 55.576 174.96 53.936C172.226 52.3507 169.192 51.558 165.858 51.558C165.53 51.558 165.366 51.394 165.366 51.066C165.366 50.738 165.53 50.574 165.858 50.574C167.552 50.574 169.165 50.7927 170.696 51.23C172.281 51.6127 173.757 52.1867 175.124 52.952C177.201 51.968 178.814 50.492 179.962 48.524C181.11 46.556 181.684 44.342 181.684 41.882C181.684 39.422 181 37.1533 179.634 35.076C178.267 32.9987 176.408 31.3313 174.058 30.074C171.707 28.8167 169.028 28.188 166.022 28.188H148.638C145.194 28.188 142.132 29.0353 139.454 30.73C136.83 32.37 134.752 34.6113 133.222 37.454C131.746 40.242 131.008 43.358 131.008 46.802C131.008 50.5193 131.828 53.772 133.468 56.56C135.162 59.348 137.404 61.5073 140.192 63.038C143.034 64.5687 146.178 65.334 149.622 65.334C149.95 65.334 150.114 65.498 150.114 65.826C150.114 66.154 149.95 66.318 149.622 66.318C145.959 66.318 142.652 65.498 139.7 63.858C136.748 62.218 134.397 59.922 132.648 56.97C130.898 54.018 130.024 50.6287 130.024 46.802C130.024 43.1393 130.816 39.832 132.402 36.88C134.042 33.928 136.256 31.5773 139.044 29.828C141.886 28.0787 145.084 27.204 148.638 27.204H166.022C169.247 27.204 172.117 27.8873 174.632 29.254C177.146 30.6207 179.114 32.4247 180.536 34.666C181.957 36.8527 182.668 39.258 182.668 41.882C182.668 44.342 182.066 46.6107 180.864 48.688C179.716 50.7653 178.103 52.378 176.026 53.526C178.814 55.2207 181.055 57.626 182.75 60.742C184.444 63.8033 185.292 67.3293 185.292 71.32C185.292 74.928 184.444 78.2353 182.75 81.242C181.11 84.194 178.786 86.572 175.78 88.376C172.773 90.1253 169.247 91 165.202 91H150.524ZM199.279 91C197.256 91 195.507 90.262 194.031 88.786C192.555 87.2553 191.817 85.3693 191.817 83.128V35.158C191.817 32.9167 192.582 31.0307 194.113 29.5C195.644 27.9693 197.639 27.204 200.099 27.204H204.527C206.987 27.204 208.955 27.9693 210.431 29.5C211.962 31.0307 212.727 32.9167 212.727 35.158V58.856C213.82 56.068 215.597 53.936 218.057 52.46C220.517 50.9293 223.25 50.164 226.257 50.164C228.99 50.164 231.423 50.7927 233.555 52.05C235.742 53.2527 237.464 54.92 238.721 57.052C239.978 59.184 240.607 61.6167 240.607 64.35V82.636C240.607 84.9867 239.787 86.982 238.147 88.622C236.507 90.2073 234.512 91 232.161 91H230.521C230.138 91 229.947 90.836 229.947 90.508C229.947 90.18 230.138 90.016 230.521 90.016H232.161C234.238 90.016 235.988 89.3327 237.409 87.966C238.885 86.5447 239.623 84.768 239.623 82.636V64.35C239.623 61.7807 239.022 59.512 237.819 57.544C236.671 55.576 235.086 54.018 233.063 52.87C231.095 51.722 228.826 51.148 226.257 51.148C223.852 51.148 221.61 51.6673 219.533 52.706C217.456 53.69 215.788 55.1387 214.531 57.052C213.328 58.9107 212.727 61.2067 212.727 63.94C212.727 64.268 212.563 64.432 212.235 64.432C211.907 64.432 211.743 64.2407 211.743 63.858V35.158C211.743 33.2447 211.087 31.6047 209.775 30.238C208.518 28.8713 206.768 28.188 204.527 28.188H200.099C197.912 28.188 196.136 28.8713 194.769 30.238C193.457 31.6047 192.801 33.2447 192.801 35.158V83.128C192.801 85.096 193.43 86.736 194.687 88.048C195.944 89.36 197.475 90.016 199.279 90.016H205.511C207.315 90.016 208.846 89.4693 210.103 88.376C211.36 87.228 211.989 85.67 211.989 83.702C211.989 83.374 212.153 83.21 212.481 83.21C212.809 83.21 212.973 83.374 212.973 83.702C212.973 85.8887 212.262 87.6653 210.841 89.032C209.42 90.344 207.643 91 205.511 91H199.279ZM263.479 91.82C260.308 91.82 257.383 91.1093 254.705 89.688C252.026 88.212 249.894 86.0253 248.309 83.128C246.723 80.176 245.931 76.4587 245.931 71.976V70.254C245.931 65.99 246.669 62.382 248.145 59.43C249.621 56.4233 251.671 54.1273 254.295 52.542C256.919 50.9567 259.898 50.164 263.233 50.164C266.458 50.164 269.027 50.738 270.941 51.886C272.854 53.034 274.439 54.6467 275.697 56.724C276.134 54.9747 277.118 53.5807 278.649 52.542C280.179 51.5033 281.874 50.984 283.733 50.984H288.161C290.566 50.984 292.561 51.7493 294.147 53.28C295.787 54.8107 296.607 56.7787 296.607 59.184V83.21C296.607 85.5607 295.759 87.4467 294.065 88.868C292.425 90.2893 290.457 91 288.161 91H284.307C281.136 91 278.867 90.016 277.501 88.048C277.391 87.884 277.364 87.72 277.419 87.556C277.528 87.392 277.692 87.31 277.911 87.31C278.129 87.31 278.266 87.392 278.321 87.556C279.414 89.196 281.409 90.016 284.307 90.016H288.161C290.238 90.016 291.987 89.4147 293.409 88.212C294.885 87.0093 295.623 85.342 295.623 83.21V59.184C295.623 57.052 294.885 55.33 293.409 54.018C291.987 52.6513 290.238 51.968 288.161 51.968H283.733C281.874 51.968 280.261 52.4873 278.895 53.526C277.528 54.5647 276.708 56.0407 276.435 57.954C276.981 59.0473 277.255 60.3047 277.255 61.726C277.255 62.054 277.091 62.218 276.763 62.218C276.435 62.218 276.271 62.054 276.271 61.726C276.271 60.5233 276.025 59.43 275.533 58.446C274.494 56.2047 273.018 54.428 271.105 53.116C269.246 51.804 266.622 51.148 263.233 51.148C258.422 51.148 254.486 52.8153 251.425 56.15C248.418 59.4847 246.915 64.186 246.915 70.254V71.976C246.915 76.2947 247.653 79.848 249.129 82.636C250.605 85.424 252.6 87.5013 255.115 88.868C257.629 90.18 260.417 90.836 263.479 90.836C266.868 90.836 269.683 90.098 271.925 88.622C274.166 87.146 275.287 85.3147 275.287 83.128C275.287 82.8547 275.451 82.718 275.779 82.718C276.107 82.718 276.271 82.882 276.271 83.21C276.271 84.7953 275.697 86.244 274.549 87.556C273.455 88.868 271.925 89.9067 269.957 90.672C268.043 91.4373 265.884 91.82 263.479 91.82ZM318.467 91.82C314.805 91.82 311.88 91.1913 309.693 89.934C307.507 88.622 305.839 86.9547 304.691 84.932C303.598 82.8547 302.86 80.6407 302.477 78.29C302.149 75.9393 301.985 73.6707 301.985 71.484V68.45C301.985 65.2247 302.559 62.218 303.707 59.43C304.855 56.642 306.659 54.4007 309.119 52.706C311.579 51.0113 314.75 50.164 318.631 50.164C321.583 50.164 324.071 50.7653 326.093 51.968C328.116 53.1707 329.647 54.7013 330.685 56.56C331.724 58.4187 332.243 60.3593 332.243 62.382C332.243 62.71 332.079 62.874 331.751 62.874C331.423 62.874 331.259 62.71 331.259 62.382C331.259 60.4687 330.767 58.6647 329.783 56.97C328.854 55.2753 327.433 53.8813 325.519 52.788C323.661 51.6947 321.337 51.148 318.549 51.148C314.887 51.148 311.907 51.968 309.611 53.608C307.315 55.1933 305.621 57.298 304.527 59.922C303.489 62.546 302.969 65.3887 302.969 68.45V71.484C302.969 73.616 303.133 75.83 303.461 78.126C303.789 80.3673 304.473 82.472 305.511 84.44C306.55 86.3533 308.108 87.9113 310.185 89.114C312.263 90.262 315.023 90.836 318.467 90.836C320.107 90.836 321.72 90.5627 323.305 90.016C324.891 89.4147 326.257 88.4853 327.405 87.228C328.608 85.9707 329.346 84.358 329.619 82.39C329.619 82.062 329.783 81.898 330.111 81.898C330.439 81.898 330.603 82.062 330.603 82.39V83.456C330.603 85.424 331.232 87.0093 332.489 88.212C333.747 89.4147 335.277 90.016 337.081 90.016H343.313C345.172 90.016 346.73 89.36 347.987 88.048C349.245 86.736 349.873 85.096 349.873 83.128V35.158C349.873 33.2447 349.19 31.6047 347.823 30.238C346.511 28.8713 344.735 28.188 342.493 28.188H338.065C335.879 28.188 334.102 28.8713 332.735 30.238C331.423 31.6047 330.767 33.2447 330.767 35.158V45.162C330.767 45.4353 330.603 45.572 330.275 45.572C329.947 45.572 329.783 45.4353 329.783 45.162V35.158C329.783 32.9713 330.521 31.1127 331.997 29.582C333.528 27.9967 335.551 27.204 338.065 27.204H342.493C345.063 27.204 347.085 27.9967 348.561 29.582C350.092 31.1673 350.857 33.026 350.857 35.158V83.128C350.857 85.3147 350.147 87.1733 348.725 88.704C347.359 90.2347 345.555 91 343.313 91H337.081C335.277 91 333.692 90.4533 332.325 89.36C331.013 88.2667 330.166 86.818 329.783 85.014C328.909 87.4193 327.351 89.1687 325.109 90.262C322.868 91.3007 320.654 91.82 318.467 91.82ZM377.837 91.82C373.901 91.82 370.32 90.9453 367.095 89.196C363.924 87.392 361.382 84.9593 359.469 81.898C357.555 78.782 356.599 75.3107 356.599 71.484V70.664C356.599 66.6733 357.555 63.1473 359.469 60.086C361.382 57.0247 363.924 54.6193 367.095 52.87C370.32 51.066 373.901 50.164 377.837 50.164H378.329C382.319 50.164 385.9 51.066 389.071 52.87C392.296 54.6193 394.865 57.0247 396.779 60.086C398.692 63.1473 399.649 66.6733 399.649 70.664V71.484C399.649 75.3107 398.692 78.782 396.779 81.898C394.865 84.9593 392.296 87.392 389.071 89.196C385.9 90.9453 382.319 91.82 378.329 91.82H377.837ZM357.583 71.484C357.583 75.1467 358.485 78.454 360.289 81.406C362.093 84.3033 364.525 86.5993 367.587 88.294C370.648 89.9887 374.065 90.836 377.837 90.836H378.329C382.155 90.836 385.599 89.9887 388.661 88.294C391.722 86.5993 394.155 84.3033 395.959 81.406C397.763 78.454 398.665 75.1467 398.665 71.484V70.664C398.665 66.8373 397.763 63.4753 395.959 60.578C394.155 57.626 391.722 55.33 388.661 53.69C385.599 51.9953 382.155 51.148 378.329 51.148H377.837C374.065 51.148 370.648 51.9953 367.587 53.69C364.525 55.33 362.093 57.626 360.289 60.578C358.485 63.4753 357.583 66.8373 357.583 70.664V71.484ZM423.271 91.82C421.358 91.8747 419.554 91.41 417.859 90.426C416.164 89.442 414.852 87.8567 413.923 85.67L404.247 62.71C403.318 60.4687 403.318 58.2547 404.247 56.068C405.231 53.8267 406.816 52.2687 409.003 51.394L409.987 50.984C412.775 49.836 415.29 49.7813 417.531 50.82C419.772 51.804 421.33 53.3347 422.205 55.412L423.025 57.298C423.681 55.0567 424.829 53.3073 426.469 52.05C428.164 50.7927 430.022 50.164 432.045 50.164H432.701C434.341 50.164 435.68 50.492 436.719 51.148C437.758 51.7493 438.687 52.5967 439.507 53.69C439.616 53.854 439.644 54.0453 439.589 54.264C439.534 54.428 439.398 54.51 439.179 54.51C439.015 54.51 438.851 54.428 438.687 54.264C438.14 53.3893 437.402 52.6513 436.473 52.05C435.544 51.4487 434.286 51.148 432.701 51.148H432.045C430.022 51.148 428.273 51.7767 426.797 53.034C425.376 54.2913 424.337 56.068 423.681 58.364C423.626 58.692 423.435 58.856 423.107 58.856C422.779 58.856 422.56 58.7193 422.451 58.446L421.385 55.986C420.893 54.7833 420.1 53.7447 419.007 52.87C417.968 51.9953 416.711 51.4213 415.235 51.148C413.814 50.8747 412.201 51.1207 410.397 51.886L409.413 52.296C407.445 53.116 406.024 54.51 405.149 56.478C404.329 58.446 404.329 60.414 405.149 62.382L414.825 85.342C415.645 87.2553 416.793 88.6767 418.269 89.606C419.8 90.4807 421.467 90.8907 423.271 90.836C424.911 90.7813 426.551 90.3167 428.191 89.442C429.831 88.5673 430.952 87.2827 431.553 85.588C431.662 85.3147 431.826 85.178 432.045 85.178C432.209 85.178 432.318 85.2327 432.373 85.342C432.428 85.3967 432.482 85.4787 432.537 85.588C433.302 87.392 434.45 88.7313 435.981 89.606C437.566 90.426 439.234 90.836 440.983 90.836C442.787 90.836 444.454 90.3987 445.985 89.524C447.516 88.5947 448.691 87.146 449.511 85.178L458.941 62.71C459.761 60.742 459.788 58.774 459.023 56.806C458.312 54.838 456.946 53.4167 454.923 52.542L453.447 51.886C451.698 51.1207 449.812 50.984 447.789 51.476C445.821 51.968 444.263 53.362 443.115 55.658L441.147 59.594C441.038 59.8127 440.901 59.922 440.737 59.922C440.19 59.922 440.026 59.676 440.245 59.184L442.295 55.166C443.552 52.706 445.247 51.1753 447.379 50.574C449.511 49.918 451.643 50.0547 453.775 50.984L455.333 51.64C456.754 52.2413 457.902 53.1707 458.777 54.428C459.706 55.6307 460.28 56.9973 460.499 58.528C460.718 60.0587 460.499 61.562 459.843 63.038L450.413 85.506C449.484 87.7473 448.144 89.36 446.395 90.344C444.7 91.328 442.896 91.82 440.983 91.82C439.288 91.7653 437.566 91.328 435.817 90.508C434.068 89.688 432.81 88.4853 432.045 86.9C431.28 88.4307 430.077 89.6333 428.437 90.508C426.797 91.328 425.075 91.7653 423.271 91.82Z" fill="url(#paint0_linear_7_13)"/>
<path d="M139.208 88.54L138.754 89.4314L138.76 89.4344L139.208 88.54ZM131.582 81.816L130.737 82.3519L130.745 82.3633L131.582 81.816ZM132.484 81.406L133.321 80.8592L132.484 81.406ZM139.782 87.72L140.223 86.8224L139.782 87.72ZM175.206 87.556L175.705 88.4222L175.712 88.4186L175.718 88.4149L175.206 87.556ZM181.848 80.832L180.982 80.3323L180.978 80.3377L181.848 80.832ZM181.766 60.988L180.891 61.4723L180.895 61.479L181.766 60.988ZM174.96 53.936L174.458 54.801L174.46 54.8022L174.96 53.936ZM170.696 51.23L170.421 52.1915L170.441 52.1972L170.461 52.2021L170.696 51.23ZM175.124 52.952L174.635 53.8245L175.085 54.0767L175.552 53.8557L175.124 52.952ZM179.962 48.524L180.825 49.0279L179.962 48.524ZM179.634 35.076L180.469 34.5264V34.5264L179.634 35.076ZM139.454 30.73L139.984 31.578L139.988 31.5751L139.454 30.73ZM133.222 37.454L132.341 36.9799L132.338 36.9861L133.222 37.454ZM133.468 56.56L132.606 57.067L132.609 57.0732L132.613 57.0794L133.468 56.56ZM140.192 63.038L139.71 63.9146L139.718 63.9185L140.192 63.038ZM139.7 63.858L139.214 64.7322L139.7 63.858ZM132.648 56.97L131.787 57.4798L132.648 56.97ZM132.402 36.88L131.528 36.3944L131.524 36.4006L131.521 36.4069L132.402 36.88ZM139.044 29.828L138.52 28.9763L138.512 28.9809L139.044 29.828ZM174.632 29.254L174.154 30.1326V30.1326L174.632 29.254ZM180.536 34.666L179.691 35.2016L179.697 35.211L180.536 34.666ZM180.864 48.688L179.998 48.187L179.993 48.1956L179.988 48.2043L180.864 48.688ZM176.026 53.526L175.542 52.6508L174.033 53.4848L175.506 54.3805L176.026 53.526ZM182.75 60.742L181.871 61.2198L181.875 61.2263L182.75 60.742ZM182.75 81.242L181.879 80.751L181.876 80.7564L182.75 81.242ZM175.78 88.376L176.283 89.2404L176.294 89.2335L175.78 88.376ZM150.524 90C146.39 90 142.775 89.2057 139.655 87.6456L138.76 89.4344C142.2 91.1543 146.13 92 150.524 92V90ZM139.661 87.6486C136.581 86.0825 134.175 83.9556 132.419 81.2688L130.745 82.3633C132.705 85.3618 135.384 87.7175 138.754 89.4314L139.661 87.6486ZM132.426 81.2802C130.731 78.6093 129.876 75.5724 129.876 72.14H127.876C127.876 75.9236 128.824 79.3374 130.737 82.3518L132.426 81.2802ZM129.876 72.14C129.876 72.1403 129.876 72.1495 129.873 72.1661C129.871 72.1828 129.866 72.2086 129.855 72.241C129.832 72.3092 129.787 72.3969 129.706 72.4781C129.625 72.5593 129.537 72.6047 129.469 72.6274C129.436 72.6382 129.41 72.6433 129.394 72.6456C129.377 72.648 129.368 72.648 129.368 72.648V70.648C129.05 70.648 128.627 70.7282 128.292 71.0639C127.956 71.3996 127.876 71.8219 127.876 72.14H129.876ZM129.368 72.648C129.367 72.648 129.358 72.648 129.342 72.6456C129.325 72.6433 129.299 72.6382 129.267 72.6274C129.199 72.6047 129.111 72.5593 129.03 72.4781C128.948 72.3969 128.903 72.3092 128.88 72.241C128.869 72.2086 128.864 72.1828 128.862 72.1661C128.86 72.1495 128.86 72.1403 128.86 72.14H130.86C130.86 71.8219 130.779 71.3996 130.444 71.0639C130.108 70.7282 129.686 70.648 129.368 70.648V72.648ZM128.86 72.14C128.86 75.8139 129.781 79.0964 131.646 81.9528L133.321 80.8592C131.688 78.3583 130.86 75.4634 130.86 72.14H128.86ZM131.646 81.9528C133.502 84.7946 136.078 87.0147 139.341 88.6176L140.223 86.8224C137.254 85.364 134.964 83.3748 133.321 80.8592L131.646 81.9528ZM139.341 88.6176C142.615 90.2259 146.351 91.016 150.524 91.016V89.016C146.606 89.016 143.18 88.2754 140.223 86.8224L139.341 88.6176ZM150.524 91.016H165.202V89.016H150.524V91.016ZM165.202 91.016C169.174 91.016 172.687 90.1635 175.705 88.4222L174.706 86.6898C172.039 88.2285 168.882 89.016 165.202 89.016V91.016ZM175.718 88.4149C178.704 86.6346 181.043 84.2696 182.717 81.3263L180.978 80.3377C179.481 82.9704 177.393 85.088 174.694 86.6971L175.718 88.4149ZM182.714 81.3317C184.447 78.327 185.308 74.9821 185.308 71.32H183.308C183.308 74.6553 182.528 77.6516 180.982 80.3323L182.714 81.3317ZM185.308 71.32C185.308 67.2885 184.426 63.6715 182.637 60.497L180.895 61.479C182.495 64.3179 183.308 67.5889 183.308 71.32H185.308ZM182.641 60.5037C180.864 57.2943 178.47 54.8067 175.459 53.0698L174.46 54.8022C177.135 56.3453 179.278 58.5591 180.891 61.4723L182.641 60.5037ZM175.461 53.071C172.567 51.3923 169.358 50.558 165.858 50.558V52.558C169.026 52.558 171.886 53.3091 174.458 54.801L175.461 53.071ZM165.858 50.558C165.858 50.558 165.867 50.558 165.884 50.5604C165.9 50.5627 165.926 50.5678 165.959 50.5786C166.027 50.6013 166.115 50.6467 166.196 50.7279C166.277 50.8091 166.322 50.8968 166.345 50.965C166.356 50.9974 166.361 51.0232 166.363 51.0399C166.366 51.0565 166.366 51.0657 166.366 51.066H164.366C164.366 51.3841 164.446 51.8064 164.782 52.1421C165.117 52.4778 165.54 52.558 165.858 52.558V50.558ZM166.366 51.066C166.366 51.0663 166.366 51.0755 166.363 51.0921C166.361 51.1088 166.356 51.1346 166.345 51.167C166.322 51.2352 166.277 51.3229 166.196 51.4041C166.115 51.4853 166.027 51.5307 165.959 51.5534C165.926 51.5642 165.9 51.5693 165.884 51.5716C165.867 51.574 165.858 51.574 165.858 51.574V49.574C165.54 49.574 165.117 49.6542 164.782 49.9899C164.446 50.3256 164.366 50.7479 164.366 51.066H166.366ZM165.858 51.574C167.465 51.574 168.985 51.7813 170.421 52.1915L170.97 50.2685C169.345 49.804 167.639 49.574 165.858 49.574V51.574ZM170.461 52.2021C171.961 52.5642 173.351 53.1056 174.635 53.8245L175.612 52.0795C174.163 51.2677 172.601 50.6611 170.93 50.2579L170.461 52.2021ZM175.552 53.8557C177.81 52.7862 179.575 51.1717 180.825 49.0279L179.098 48.0201C178.052 49.8123 176.592 51.1498 174.696 52.0483L175.552 53.8557ZM180.825 49.0279C182.07 46.8948 182.684 44.5045 182.684 41.882H180.684C180.684 44.1795 180.15 46.2172 179.098 48.0201L180.825 49.0279ZM182.684 41.882C182.684 39.2244 181.942 36.765 180.469 34.5264L178.798 35.6256C180.059 37.5416 180.684 39.6196 180.684 41.882H182.684ZM180.469 34.5264C179.004 32.2997 177.016 30.5224 174.529 29.1922L173.586 30.9558C175.801 32.1403 177.53 33.6976 178.798 35.6256L180.469 34.5264ZM174.529 29.1922C172.016 27.8478 169.172 27.188 166.022 27.188V29.188C168.885 29.188 171.398 29.7855 173.586 30.9558L174.529 29.1922ZM166.022 27.188H148.638V29.188H166.022V27.188ZM148.638 27.188C145.021 27.188 141.771 28.0803 138.919 29.8849L139.988 31.5751C142.493 29.9903 145.366 29.188 148.638 29.188V27.188ZM138.924 29.882C136.146 31.6181 133.951 33.9912 132.341 36.9799L134.102 37.9281C135.554 35.2315 137.514 33.1219 139.984 31.578L138.924 29.882ZM132.338 36.9861C130.779 39.9312 130.008 43.2102 130.008 46.802H132.008C132.008 43.5058 132.713 40.5528 134.105 37.9219L132.338 36.9861ZM130.008 46.802C130.008 50.6706 130.863 54.1036 132.606 57.067L134.33 56.053C132.793 53.4404 132.008 50.3681 132.008 46.802H130.008ZM132.613 57.0794C134.396 60.0131 136.765 62.2974 139.71 63.9146L140.673 62.1614C138.043 60.7173 135.928 58.6829 134.322 56.0406L132.613 57.0794ZM139.718 63.9185C142.716 65.5328 146.024 66.334 149.622 66.334V64.334C146.332 64.334 143.353 63.6045 140.666 62.1575L139.718 63.9185ZM149.622 66.334C149.621 66.334 149.612 66.334 149.596 66.3316C149.579 66.3293 149.553 66.3242 149.521 66.3134C149.453 66.2907 149.365 66.2453 149.284 66.1641C149.202 66.0829 149.157 65.9952 149.134 65.927C149.123 65.8946 149.118 65.8688 149.116 65.8521C149.114 65.8355 149.114 65.8263 149.114 65.826H151.114C151.114 65.5079 151.033 65.0856 150.698 64.7499C150.362 64.4142 149.94 64.334 149.622 64.334V66.334ZM149.114 65.826C149.114 65.8257 149.114 65.8165 149.116 65.7999C149.118 65.7832 149.123 65.7574 149.134 65.725C149.157 65.6568 149.202 65.5691 149.284 65.4879C149.365 65.4067 149.453 65.3613 149.521 65.3386C149.553 65.3278 149.579 65.3227 149.596 65.3204C149.612 65.318 149.621 65.318 149.622 65.318V67.318C149.94 67.318 150.362 67.2378 150.698 66.9021C151.033 66.5664 151.114 66.1441 151.114 65.826H149.114ZM149.622 65.318C146.114 65.318 142.976 64.5344 140.185 62.9838L139.214 64.7322C142.327 66.4616 145.804 67.318 149.622 67.318V65.318ZM140.185 62.9838C137.391 61.4314 135.168 59.2623 133.508 56.4602L131.787 57.4798C133.626 60.5817 136.104 63.0046 139.214 64.7322L140.185 62.9838ZM133.508 56.4602C131.86 53.6798 131.024 50.4705 131.024 46.802H129.024C129.024 50.7869 129.936 54.3562 131.787 57.4798L133.508 56.4602ZM131.024 46.802C131.024 43.2887 131.783 40.1464 133.283 37.3531L131.521 36.4069C129.85 39.5176 129.024 42.9899 129.024 46.802H131.024ZM133.276 37.3656C134.836 34.5571 136.934 32.3323 139.575 30.6751L138.512 28.9809C135.578 30.8223 133.247 33.2989 131.528 36.3944L133.276 37.3656ZM139.568 30.6797C142.243 29.0336 145.257 28.204 148.638 28.204V26.204C144.912 26.204 141.53 27.1237 138.52 28.9763L139.568 30.6797ZM148.638 28.204H166.022V26.204H148.638V28.204ZM166.022 28.204C169.102 28.204 171.804 28.8553 174.154 30.1326L175.109 28.3754C172.43 26.9194 169.392 26.204 166.022 26.204V28.204ZM174.154 30.1326C176.531 31.4246 178.368 33.1151 179.691 35.2015L181.38 34.1305C179.861 31.7342 177.761 29.8167 175.109 28.3754L174.154 30.1326ZM179.697 35.211C181.012 37.2344 181.668 39.4502 181.668 41.882H183.668C183.668 39.0658 182.902 36.4709 181.374 34.121L179.697 35.211ZM181.668 41.882C181.668 44.1706 181.111 46.2658 179.998 48.187L181.729 49.189C183.022 46.9555 183.668 44.5134 183.668 41.882H181.668ZM179.988 48.2043C178.932 50.1169 177.455 51.5938 175.542 52.6508L176.509 54.4012C178.752 53.1622 180.5 51.4138 181.739 49.1717L179.988 48.2043ZM175.506 54.3805C178.13 55.9756 180.253 58.2449 181.871 61.2198L183.628 60.2642C181.857 57.0071 179.497 54.4657 176.545 52.6715L175.506 54.3805ZM181.875 61.2263C183.476 64.1197 184.292 67.4747 184.292 71.32H186.292C186.292 67.184 185.412 63.487 183.625 60.2577L181.875 61.2263ZM184.292 71.32C184.292 74.7641 183.485 77.9011 181.879 80.751L183.621 81.733C185.404 78.5696 186.292 75.0919 186.292 71.32H184.292ZM181.876 80.7564C180.324 83.549 178.127 85.8012 175.265 87.5185L176.294 89.2335C179.445 87.3428 181.895 84.839 183.624 81.7276L181.876 80.7564ZM175.277 87.5117C172.446 89.1586 169.099 90 165.202 90V92C169.395 92 173.1 91.0921 176.283 89.2403L175.277 87.5117ZM165.202 90H150.524V92H165.202V90ZM194.031 88.786L193.311 89.4801L193.318 89.4867L193.324 89.4931L194.031 88.786ZM194.113 29.5L194.82 30.2071L194.113 29.5ZM210.431 29.5L209.711 30.1941L209.718 30.2007L209.724 30.2071L210.431 29.5ZM212.727 58.856H211.727L213.658 59.2211L212.727 58.856ZM218.057 52.46L218.572 53.3175L218.579 53.3133L218.585 53.3091L218.057 52.46ZM233.555 52.05L233.047 52.9114L233.06 52.919L233.073 52.9262L233.555 52.05ZM238.721 57.052L239.582 56.544V56.544L238.721 57.052ZM238.147 88.622L238.842 89.341L238.848 89.3351L238.854 89.3291L238.147 88.622ZM237.409 87.966L238.102 88.6868L238.103 88.6863L237.409 87.966ZM237.819 57.544L236.955 58.0479L236.96 58.0567L236.966 58.0654L237.819 57.544ZM233.063 52.87L232.559 53.7338L232.57 53.7397L233.063 52.87ZM219.533 52.706L219.961 53.6097L219.971 53.6052L219.98 53.6004L219.533 52.706ZM214.531 57.052L213.695 56.5028L213.692 56.5087L214.531 57.052ZM209.775 30.238L209.039 30.9151L209.046 30.9229L209.054 30.9305L209.775 30.238ZM194.769 30.238L194.062 29.5309L194.055 29.5381L194.048 29.5455L194.769 30.238ZM194.687 88.048L195.409 87.3561L194.687 88.048ZM210.103 88.376L210.759 89.1306L210.768 89.1227L210.777 89.1145L210.103 88.376ZM210.841 89.032L211.519 89.7668L211.527 89.7599L211.534 89.7528L210.841 89.032ZM199.279 90C197.531 90 196.033 89.3741 194.738 88.0789L193.324 89.4931C194.981 91.1499 196.982 92 199.279 92V90ZM194.751 88.0919C193.465 86.7584 192.817 85.1259 192.817 83.128H190.817C190.817 85.6128 191.645 87.7522 193.311 89.4801L194.751 88.0919ZM192.817 83.128V35.158H190.817V83.128H192.817ZM192.817 35.158C192.817 33.1714 193.484 31.5429 194.82 30.2071L193.406 28.7929C191.681 30.5184 190.817 32.6619 190.817 35.158H192.817ZM194.82 30.2071C196.137 28.8901 197.865 28.204 200.099 28.204V26.204C197.413 26.204 195.15 27.0486 193.406 28.7929L194.82 30.2071ZM200.099 28.204H204.527V26.204H200.099V28.204ZM204.527 28.204C206.762 28.204 208.454 28.89 209.711 30.1941L211.151 28.8059C209.457 27.0487 207.212 26.204 204.527 26.204V28.204ZM209.724 30.2071C211.06 31.5429 211.727 33.1714 211.727 35.158H213.727C213.727 32.6619 212.864 30.5184 211.138 28.7929L209.724 30.2071ZM211.727 35.158V58.856H213.727V35.158H211.727ZM213.658 59.2211C214.675 56.629 216.31 54.6746 218.572 53.3175L217.543 51.6025C214.884 53.1974 212.966 55.507 211.796 58.4909L213.658 59.2211ZM218.585 53.3091C220.881 51.8809 223.43 51.164 226.257 51.164V49.164C223.071 49.164 220.154 49.9778 217.529 51.6109L218.585 53.3091ZM226.257 51.164C228.831 51.164 231.085 51.7541 233.047 52.9114L234.063 51.1886C231.761 49.8313 229.15 49.164 226.257 49.164V51.164ZM233.073 52.9262C235.104 54.0432 236.694 55.5839 237.86 57.56L239.582 56.544C238.233 54.2561 236.38 52.4622 234.037 51.1738L233.073 52.9262ZM237.86 57.56C239.017 59.5224 239.607 61.7762 239.607 64.35H241.607C241.607 61.4572 240.94 58.8456 239.582 56.544L237.86 57.56ZM239.607 64.35V82.636H241.607V64.35H239.607ZM239.607 82.636C239.607 84.7255 238.89 86.4653 237.44 87.9149L238.854 89.3291C240.685 87.4987 241.607 85.2479 241.607 82.636H239.607ZM237.452 87.903C236.005 89.3021 234.261 90 232.161 90V92C234.762 92 237.009 91.1126 238.842 89.341L237.452 87.903ZM232.161 90H230.521V92H232.161V90ZM230.521 90C230.449 90 230.582 89.9814 230.741 90.1177C230.825 90.189 230.882 90.2764 230.915 90.3608C230.945 90.4391 230.947 90.495 230.947 90.508H228.947C228.947 90.8699 229.06 91.3106 229.44 91.6363C229.79 91.9366 230.21 92 230.521 92V90ZM230.947 90.508C230.947 90.521 230.945 90.5769 230.915 90.6552C230.882 90.7396 230.825 90.827 230.741 90.8983C230.582 91.0346 230.449 91.016 230.521 91.016V89.016C230.21 89.016 229.79 89.0794 229.44 89.3797C229.06 89.7054 228.947 90.1461 228.947 90.508H230.947ZM230.521 91.016H232.161V89.016H230.521V91.016ZM232.161 91.016C234.482 91.016 236.484 90.2429 238.102 88.6868L236.716 87.2452C235.492 88.4224 233.995 89.016 232.161 89.016V91.016ZM238.103 88.6863C239.783 87.0681 240.623 85.0274 240.623 82.636H238.623C238.623 84.5086 237.987 86.0212 236.715 87.2457L238.103 88.6863ZM240.623 82.636V64.35H238.623V82.636H240.623ZM240.623 64.35C240.623 61.6182 239.982 59.165 238.672 57.0225L236.966 58.0654C238.062 59.859 238.623 61.9431 238.623 64.35H240.623ZM238.683 57.0401C237.444 54.9164 235.73 53.2335 233.557 52.0003L232.57 53.7397C234.442 54.8025 235.898 56.2356 236.955 58.0479L238.683 57.0401ZM233.567 52.0062C231.427 50.7581 228.98 50.148 226.257 50.148V52.148C228.672 52.148 230.763 52.6859 232.559 53.7338L233.567 52.0062ZM226.257 50.148C223.702 50.148 221.307 50.701 219.086 51.8116L219.98 53.6004C221.914 52.6337 224.001 52.148 226.257 52.148V50.148ZM219.105 51.8023C216.863 52.8645 215.054 54.4355 213.695 56.5028L215.367 57.6012C216.523 55.8418 218.049 54.5155 219.961 53.6097L219.105 51.8023ZM213.692 56.5087C212.362 58.5635 211.727 61.0593 211.727 63.94H213.727C213.727 61.3541 214.295 59.2578 215.371 57.5952L213.692 56.5087ZM211.727 63.94C211.727 63.9397 211.727 63.9305 211.729 63.9139C211.732 63.8972 211.737 63.8714 211.748 63.839C211.77 63.7708 211.816 63.6831 211.897 63.6019C211.978 63.5207 212.066 63.4753 212.134 63.4526C212.166 63.4418 212.192 63.4367 212.209 63.4344C212.226 63.432 212.235 63.432 212.235 63.432V65.432C212.553 65.432 212.976 65.3518 213.311 65.0161C213.647 64.6804 213.727 64.2581 213.727 63.94H211.727ZM212.235 63.432C212.248 63.432 212.304 63.4337 212.382 63.4641C212.467 63.4969 212.554 63.5546 212.625 63.6377C212.762 63.7968 212.743 63.9297 212.743 63.858H210.743C210.743 64.169 210.806 64.5888 211.107 64.9393C211.433 65.3192 211.873 65.432 212.235 65.432V63.432ZM212.743 63.858V35.158H210.743V63.858H212.743ZM212.743 35.158C212.743 32.9894 211.989 31.1004 210.496 29.5455L209.054 30.9305C210.185 32.1089 210.743 33.5 210.743 35.158H212.743ZM210.511 29.5609C209.026 27.9465 206.985 27.188 204.527 27.188V29.188C206.551 29.188 208.01 29.7962 209.039 30.9151L210.511 29.5609ZM204.527 27.188H200.099V29.188H204.527V27.188ZM200.099 27.188C197.685 27.188 195.641 27.9514 194.062 29.5309L195.476 30.9451C196.63 29.7912 198.14 29.188 200.099 29.188V27.188ZM194.048 29.5455C192.555 31.1004 191.801 32.9894 191.801 35.158H193.801C193.801 33.5 194.359 32.1089 195.49 30.9305L194.048 29.5455ZM191.801 35.158V83.128H193.801V35.158H191.801ZM191.801 83.128C191.801 85.3304 192.514 87.2255 193.965 88.7399L195.409 87.3561C194.346 86.2465 193.801 84.8616 193.801 83.128H191.801ZM193.965 88.7399C195.41 90.2471 197.2 91.016 199.279 91.016V89.016C197.75 89.016 196.479 88.4729 195.409 87.3561L193.965 88.7399ZM199.279 91.016H205.511V89.016H199.279V91.016ZM205.511 91.016C207.535 91.016 209.304 90.3958 210.759 89.1306L209.447 87.6214C208.387 88.5429 207.096 89.016 205.511 89.016V91.016ZM210.777 89.1145C212.275 87.7468 212.989 85.9029 212.989 83.702H210.989C210.989 85.4371 210.446 86.7092 209.429 87.6375L210.777 89.1145ZM212.989 83.702C212.989 83.7023 212.989 83.7115 212.987 83.7281C212.984 83.7448 212.979 83.7706 212.969 83.803C212.946 83.8712 212.9 83.9589 212.819 84.0401C212.738 84.1213 212.65 84.1667 212.582 84.1894C212.55 84.2002 212.524 84.2053 212.507 84.2076C212.491 84.21 212.481 84.21 212.481 84.21V82.21C212.163 82.21 211.741 82.2902 211.405 82.6259C211.069 82.9616 210.989 83.3839 210.989 83.702H212.989ZM212.481 84.21C212.481 84.21 212.472 84.21 212.455 84.2076C212.438 84.2053 212.412 84.2002 212.38 84.1894C212.312 84.1667 212.224 84.1213 212.143 84.0401C212.062 83.9589 212.016 83.8712 211.994 83.803C211.983 83.7706 211.978 83.7448 211.975 83.7281C211.973 83.7115 211.973 83.7023 211.973 83.702H213.973C213.973 83.3839 213.893 82.9616 213.557 82.6259C213.222 82.2902 212.799 82.21 212.481 82.21V84.21ZM211.973 83.702C211.973 85.6493 211.351 87.1546 210.148 88.3112L211.534 89.7528C213.174 88.1761 213.973 86.128 213.973 83.702H211.973ZM210.163 88.2972C208.946 89.4207 207.42 90 205.511 90V92C207.867 92 209.894 91.2673 211.519 89.7668L210.163 88.2972ZM205.511 90H199.279V92H205.511V90ZM254.705 89.688L254.222 90.5638L254.229 90.5676L254.236 90.5714L254.705 89.688ZM248.309 83.128L247.428 83.6011L247.431 83.608L248.309 83.128ZM248.145 59.43L249.039 59.8772L249.042 59.8707L248.145 59.43ZM254.295 52.542L254.812 53.3979L254.295 52.542ZM275.697 56.724L274.841 57.2418L276.084 59.2959L276.667 56.9665L275.697 56.724ZM278.649 52.542L279.21 53.3695L278.649 52.542ZM294.147 53.28L293.452 53.9994L293.458 54.0053L293.464 54.0111L294.147 53.28ZM294.065 88.868L293.422 88.1018L293.416 88.107L293.41 88.1123L294.065 88.868ZM277.501 88.048L276.669 88.6027L276.674 88.6106L276.679 88.6184L277.501 88.048ZM277.419 87.556L276.587 87.0013L276.512 87.1127L276.47 87.2398L277.419 87.556ZM278.321 87.556L277.372 87.8722L277.414 87.9993L277.489 88.1107L278.321 87.556ZM293.409 88.212L292.777 87.4368L292.77 87.4426L292.763 87.4486L293.409 88.212ZM293.409 54.018L292.716 54.7388L292.73 54.7524L292.744 54.7654L293.409 54.018ZM276.435 57.954L275.445 57.8126L275.401 58.1218L275.54 58.4012L276.435 57.954ZM275.533 58.446L274.625 58.8665L274.632 58.8799L274.638 58.8932L275.533 58.446ZM271.105 53.116L270.528 53.933L270.539 53.9407L271.105 53.116ZM251.425 56.15L250.688 55.4737L250.682 55.4804L251.425 56.15ZM249.129 82.636L250.012 82.1681L249.129 82.636ZM255.115 88.868L254.637 89.7466L254.645 89.7507L254.652 89.7546L255.115 88.868ZM271.925 88.622L271.375 87.7868L271.925 88.622ZM274.549 87.556L273.796 86.8975L273.788 86.9066L273.78 86.9158L274.549 87.556ZM269.957 90.672L269.594 89.74L269.585 89.7435L269.957 90.672ZM263.479 90.82C260.464 90.82 257.701 90.1459 255.173 88.8046L254.236 90.5714C257.066 92.0728 260.152 92.82 263.479 92.82V90.82ZM255.187 88.8122C252.688 87.4353 250.688 85.3924 249.186 82.648L247.431 83.608C249.1 86.6582 251.364 88.9887 254.222 90.5638L255.187 88.8122ZM249.19 82.6549C247.704 79.8892 246.931 76.3471 246.931 71.976H244.931C244.931 76.5702 245.742 80.4628 247.428 83.6011L249.19 82.6549ZM246.931 71.976V70.254H244.931V71.976H246.931ZM246.931 70.254C246.931 66.1014 247.65 62.6559 249.039 59.8772L247.25 58.9828C245.688 62.1081 244.931 65.8786 244.931 70.254H246.931ZM249.042 59.8707C250.442 57.0195 252.367 54.875 254.812 53.3979L253.778 51.6861C250.974 53.3796 248.799 55.8272 247.247 58.9893L249.042 59.8707ZM254.812 53.3979C257.266 51.915 260.064 51.164 263.233 51.164V49.164C259.732 49.164 256.571 49.9983 253.778 51.6861L254.812 53.3979ZM263.233 51.164C266.353 51.164 268.723 51.7213 270.426 52.7435L271.455 51.0285C269.332 49.7547 266.563 49.164 263.233 49.164V51.164ZM270.426 52.7435C272.188 53.8005 273.661 55.2912 274.841 57.2418L276.552 56.2062C275.218 54.0021 273.52 52.2675 271.455 51.0285L270.426 52.7435ZM276.667 56.9665C277.043 55.4625 277.877 54.274 279.21 53.3695L278.087 51.7145C276.359 52.8874 275.225 54.4868 274.727 56.4815L276.667 56.9665ZM279.21 53.3695C280.574 52.4438 282.073 51.984 283.733 51.984V49.984C281.675 49.984 279.784 50.5629 278.087 51.7145L279.21 53.3695ZM283.733 51.984H288.161V49.984H283.733V51.984ZM288.161 51.984C290.333 51.984 292.071 52.666 293.452 53.9994L294.841 52.5606C293.052 50.8327 290.799 49.984 288.161 49.984V51.984ZM293.464 54.0111C294.886 55.3378 295.607 57.0335 295.607 59.184H297.607C297.607 56.5239 296.687 54.2835 294.829 52.5489L293.464 54.0111ZM295.607 59.184V83.21H297.607V59.184H295.607ZM295.607 83.21C295.607 85.2862 294.874 86.8837 293.422 88.1018L294.707 89.6342C296.644 88.0096 297.607 85.8351 297.607 83.21H295.607ZM293.41 88.1123C291.963 89.3664 290.231 90 288.161 90V92C290.682 92 292.887 91.2122 294.72 89.6237L293.41 88.1123ZM288.161 90H284.307V92H288.161V90ZM284.307 90C281.347 90 279.444 89.093 278.322 87.4776L276.679 88.6184C278.291 90.939 280.925 92 284.307 92V90ZM278.333 87.4933C278.342 87.5075 278.371 87.5566 278.385 87.6376C278.399 87.723 278.39 87.8059 278.367 87.8722L276.47 87.2398C276.303 87.7401 276.415 88.2228 276.669 88.6027L278.333 87.4933ZM278.251 88.1107C278.216 88.1623 278.156 88.2233 278.071 88.2659C277.99 88.3065 277.927 88.31 277.911 88.31V86.31C277.401 86.31 276.904 86.5251 276.587 87.0013L278.251 88.1107ZM277.911 88.31C277.904 88.31 277.797 88.3097 277.663 88.229C277.508 88.1364 277.413 87.996 277.372 87.8722L279.269 87.2398C279.173 86.952 278.983 86.6886 278.692 86.514C278.421 86.3513 278.137 86.31 277.911 86.31V88.31ZM277.489 88.1107C278.844 90.1443 281.243 91.016 284.307 91.016V89.016C281.576 89.016 279.984 88.2477 279.153 87.0013L277.489 88.1107ZM284.307 91.016H288.161V89.016H284.307V91.016ZM288.161 91.016C290.445 91.016 292.432 90.3487 294.055 88.9754L292.763 87.4486C291.543 88.4806 290.031 89.016 288.161 89.016V91.016ZM294.04 88.9872C295.779 87.5703 296.623 85.6019 296.623 83.21H294.623C294.623 85.0821 293.99 86.4483 292.777 87.4368L294.04 88.9872ZM296.623 83.21V59.184H294.623V83.21H296.623ZM296.623 59.184C296.623 56.792 295.781 54.7887 294.073 53.2706L292.744 54.7654C293.988 55.8713 294.623 57.312 294.623 59.184H296.623ZM294.102 53.2972C292.483 51.7411 290.481 50.968 288.161 50.968V52.968C289.995 52.968 291.491 53.5616 292.716 54.7388L294.102 53.2972ZM288.161 50.968H283.733V52.968H288.161V50.968ZM283.733 50.968C281.675 50.968 279.845 51.5478 278.29 52.7298L279.5 54.3222C280.678 53.4269 282.073 52.968 283.733 52.968V50.968ZM278.29 52.7298C276.686 53.9482 275.75 55.6746 275.445 57.8126L277.425 58.0954C277.666 56.4067 278.37 55.1811 279.5 54.3222L278.29 52.7298ZM275.54 58.4012C276.007 59.3347 276.255 60.4347 276.255 61.726H278.255C278.255 60.1747 277.956 58.7599 277.329 57.5068L275.54 58.4012ZM276.255 61.726C276.255 61.7257 276.255 61.7165 276.257 61.6999C276.259 61.6832 276.264 61.6574 276.275 61.625C276.298 61.5568 276.343 61.4691 276.425 61.3879C276.506 61.3067 276.594 61.2613 276.662 61.2386C276.694 61.2278 276.72 61.2227 276.737 61.2204C276.753 61.218 276.762 61.218 276.763 61.218V63.218C277.081 63.218 277.503 63.1378 277.839 62.8021C278.174 62.4664 278.255 62.0441 278.255 61.726H276.255ZM276.763 61.218C276.763 61.218 276.772 61.218 276.789 61.2204C276.805 61.2227 276.831 61.2278 276.864 61.2386C276.932 61.2613 277.02 61.3067 277.101 61.3879C277.182 61.4691 277.227 61.5568 277.25 61.625C277.261 61.6574 277.266 61.6832 277.268 61.6999C277.271 61.7165 277.271 61.7257 277.271 61.726H275.271C275.271 62.0441 275.351 62.4664 275.687 62.8021C276.022 63.1378 276.445 63.218 276.763 63.218V61.218ZM277.271 61.726C277.271 60.3828 276.995 59.1342 276.427 57.9988L274.638 58.8932C275.055 59.7258 275.271 60.6639 275.271 61.726H277.271ZM276.44 58.0255C275.331 55.6322 273.741 53.7115 271.67 52.2913L270.539 53.9407C272.295 55.1445 273.657 56.7772 274.625 58.8665L276.44 58.0255ZM271.681 52.299C269.59 50.8226 266.733 50.148 263.233 50.148V52.148C266.511 52.148 268.902 52.7854 270.528 53.933L271.681 52.299ZM263.233 50.148C258.162 50.148 253.952 51.9186 250.688 55.4737L252.161 56.8263C255.02 53.712 258.682 52.148 263.233 52.148V50.148ZM250.682 55.4804C247.459 59.055 245.915 64.0267 245.915 70.254H247.915C247.915 64.3453 249.377 59.9143 252.167 56.8196L250.682 55.4804ZM245.915 70.254V71.976H247.915V70.254H245.915ZM245.915 71.976C245.915 76.4005 246.67 80.1284 248.245 83.1039L250.012 82.1681C248.636 79.5676 247.915 76.1888 247.915 71.976H245.915ZM248.245 83.1039C249.803 86.0473 251.932 88.2765 254.637 89.7466L255.592 87.9894C253.268 86.7262 251.406 84.8007 250.012 82.1681L248.245 83.1039ZM254.652 89.7546C257.321 91.1469 260.269 91.836 263.479 91.836V89.836C260.565 89.836 257.938 89.2131 255.577 87.9814L254.652 89.7546ZM263.479 91.836C267.012 91.836 270.032 91.0658 272.475 89.4572L271.375 87.7868C269.335 89.1302 266.724 89.836 263.479 89.836V91.836ZM272.475 89.4572C274.924 87.8442 276.287 85.7299 276.287 83.128H274.287C274.287 84.8994 273.408 86.4478 271.375 87.7868L272.475 89.4572ZM276.287 83.128C276.287 83.1983 276.257 83.4162 276.05 83.5887C275.878 83.7321 275.729 83.718 275.779 83.718V81.718C275.5 81.718 275.106 81.7722 274.77 82.0523C274.398 82.3615 274.287 82.7844 274.287 83.128H276.287ZM275.779 83.718C275.778 83.718 275.769 83.718 275.753 83.7156C275.736 83.7133 275.71 83.7082 275.678 83.6974C275.61 83.6747 275.522 83.6293 275.441 83.5481C275.359 83.4669 275.314 83.3792 275.291 83.311C275.28 83.2786 275.275 83.2528 275.273 83.2361C275.271 83.2195 275.271 83.2103 275.271 83.21H277.271C277.271 82.8919 277.19 82.4696 276.855 82.1339C276.519 81.7982 276.097 81.718 275.779 81.718V83.718ZM275.271 83.21C275.271 84.5283 274.802 85.7482 273.796 86.8975L275.301 88.2145C276.592 86.7398 277.271 85.0624 277.271 83.21H275.271ZM273.78 86.9158C272.818 88.0704 271.441 89.0217 269.594 89.74L270.319 91.604C272.408 90.7916 274.092 89.6656 275.317 88.1962L273.78 86.9158ZM269.585 89.7435C267.808 90.4544 265.778 90.82 263.479 90.82V92.82C265.99 92.82 268.279 92.4203 270.328 91.6005L269.585 89.7435ZM309.693 89.934L309.179 90.7915L309.187 90.7963L309.195 90.8009L309.693 89.934ZM304.691 84.932L303.806 85.3977L303.814 85.4118L303.822 85.4256L304.691 84.932ZM302.477 78.29L301.487 78.4282L301.489 78.4395L301.49 78.4507L302.477 78.29ZM303.707 59.43L302.783 59.0492L303.707 59.43ZM309.119 52.706L309.687 53.5295L309.119 52.706ZM326.093 51.968L325.582 52.8275L326.093 51.968ZM330.685 56.56L331.558 56.0722L330.685 56.56ZM329.783 56.97L328.907 57.4508L328.912 57.4616L328.919 57.4721L329.783 56.97ZM325.519 52.788L325.012 53.65L325.023 53.6562L325.519 52.788ZM309.611 53.608L310.18 54.4309L310.186 54.4264L310.193 54.4217L309.611 53.608ZM304.527 59.922L303.604 59.5374L303.601 59.5456L303.598 59.554L304.527 59.922ZM303.461 78.126L302.471 78.2674L302.472 78.2708L303.461 78.126ZM305.511 84.44L304.627 84.9068L304.633 84.9171L305.511 84.44ZM310.185 89.114L309.684 89.9794L309.693 89.9844L309.702 89.9892L310.185 89.114ZM323.305 90.016L323.631 90.9614L323.646 90.9564L323.66 90.951L323.305 90.016ZM327.405 87.228L326.683 86.5368L326.675 86.5452L326.667 86.5537L327.405 87.228ZM329.619 82.39L330.61 82.5276L330.619 82.4591V82.39H329.619ZM332.489 88.212L333.181 87.4894L332.489 88.212ZM347.987 88.048L347.265 87.3561L347.987 88.048ZM347.823 30.238L347.102 30.9305L347.109 30.9379L347.116 30.9451L347.823 30.238ZM332.735 30.238L332.028 29.5309L332.021 29.5381L332.014 29.5455L332.735 30.238ZM331.997 29.582L331.278 28.8874L331.278 28.8879L331.997 29.582ZM348.561 29.582L347.829 30.2634L347.836 30.2701L347.842 30.2766L348.561 29.582ZM348.725 88.704L347.993 88.0236L347.986 88.0307L347.979 88.038L348.725 88.704ZM332.325 89.36L331.685 90.1282L331.693 90.1346L331.701 90.1409L332.325 89.36ZM329.783 85.014L330.762 84.8065L330.037 81.3904L328.844 84.6723L329.783 85.014ZM325.109 90.262L325.53 91.1693L325.539 91.1651L325.548 91.1608L325.109 90.262ZM318.467 90.82C314.906 90.82 312.173 90.2065 310.192 89.0671L309.195 90.8009C311.587 92.1761 314.704 92.82 318.467 92.82V90.82ZM310.208 89.0765C308.154 87.8444 306.616 86.297 305.561 84.4384L303.822 85.4256C305.063 87.6123 306.859 89.3996 309.179 90.7915L310.208 89.0765ZM305.576 84.4663C304.534 82.4858 303.83 80.375 303.464 78.1293L301.49 78.4507C301.89 80.9063 302.662 83.2235 303.806 85.3977L305.576 84.4663ZM303.468 78.1518C303.146 75.8431 302.985 73.6207 302.985 71.484H300.985C300.985 73.7206 301.153 76.0356 301.487 78.4282L303.468 78.1518ZM302.985 71.484V68.45H300.985V71.484H302.985ZM302.985 68.45C302.985 65.3461 303.537 62.4697 304.632 59.8107L302.783 59.0492C301.582 61.9663 300.985 65.1033 300.985 68.45H302.985ZM304.632 59.8107C305.707 57.2001 307.388 55.1132 309.687 53.5295L308.552 51.8825C305.931 53.6881 304.004 56.0839 302.783 59.0492L304.632 59.8107ZM309.687 53.5295C311.936 51.9798 314.892 51.164 318.631 51.164V49.164C314.608 49.164 311.222 50.0429 308.552 51.8825L309.687 53.5295ZM318.631 51.164C321.449 51.164 323.749 51.7375 325.582 52.8275L326.604 51.1085C324.392 49.7932 321.718 49.164 318.631 49.164V51.164ZM325.582 52.8275C327.47 53.95 328.868 55.3585 329.812 57.0478L331.558 56.0722C330.425 54.0442 328.762 52.3913 326.604 51.1085L325.582 52.8275ZM329.812 57.0478C330.772 58.7655 331.243 60.5392 331.243 62.382H333.243C333.243 60.1795 332.676 58.0718 331.558 56.0722L329.812 57.0478ZM331.243 62.382C331.243 62.3817 331.243 62.3725 331.246 62.3559C331.248 62.3392 331.253 62.3134 331.264 62.281C331.287 62.2128 331.332 62.1251 331.413 62.0439C331.494 61.9627 331.582 61.9173 331.65 61.8946C331.683 61.8838 331.709 61.8787 331.725 61.8764C331.742 61.874 331.751 61.874 331.751 61.874V63.874C332.07 63.874 332.492 63.7938 332.827 63.4581C333.163 63.1224 333.243 62.7001 333.243 62.382H331.243ZM331.751 61.874C331.752 61.874 331.761 61.874 331.777 61.8764C331.794 61.8787 331.82 61.8838 331.852 61.8946C331.921 61.9173 332.008 61.9627 332.089 62.0439C332.171 62.1251 332.216 62.2128 332.239 62.281C332.25 62.3134 332.255 62.3392 332.257 62.3559C332.259 62.3725 332.259 62.3817 332.259 62.382H330.259C330.259 62.7001 330.34 63.1224 330.675 63.4581C331.011 63.7938 331.433 63.874 331.751 63.874V61.874ZM332.259 62.382C332.259 60.2879 331.719 58.3112 330.648 56.4679L328.919 57.4721C329.816 59.0181 330.259 60.6495 330.259 62.382H332.259ZM330.66 56.4892C329.63 54.611 328.066 53.0915 326.016 51.9198L325.023 53.6562C326.799 54.6712 328.078 55.9397 328.907 57.4508L330.66 56.4892ZM326.026 51.9261C323.975 50.7195 321.465 50.148 318.549 50.148V52.148C321.21 52.148 323.346 52.6698 325.012 53.6499L326.026 51.9261ZM318.549 50.148C314.74 50.148 311.54 51.0015 309.03 52.7943L310.193 54.4217C312.275 52.9345 315.033 52.148 318.549 52.148V50.148ZM309.043 52.7851C306.586 54.4816 304.77 56.7398 303.604 59.5374L305.45 60.3066C306.471 57.8562 308.045 55.9051 310.18 54.4309L309.043 52.7851ZM303.598 59.554C302.509 62.3047 301.969 65.2734 301.969 68.45H303.969C303.969 65.5039 304.469 62.7873 305.457 60.29L303.598 59.554ZM301.969 68.45V71.484H303.969V68.45H301.969ZM301.969 71.484C301.969 73.6672 302.137 75.9286 302.471 78.2674L304.451 77.9846C304.129 75.7314 303.969 73.5648 303.969 71.484H301.969ZM302.472 78.2708C302.816 80.6226 303.534 82.8364 304.627 84.9068L306.396 83.9732C305.411 82.1076 304.763 80.1121 304.451 77.9812L302.472 78.2708ZM304.633 84.9171C305.768 87.0085 307.465 88.6943 309.684 89.9794L310.686 88.2486C308.752 87.1284 307.332 85.6982 306.39 83.9629L304.633 84.9171ZM309.702 89.9892C311.979 91.2477 314.925 91.836 318.467 91.836V89.836C315.121 89.836 312.546 89.2763 310.669 88.2388L309.702 89.9892ZM318.467 91.836C320.221 91.836 321.944 91.5434 323.631 90.9614L322.979 89.0706C321.497 89.582 319.994 89.836 318.467 89.836V91.836ZM323.66 90.951C325.393 90.2938 326.891 89.2749 328.144 87.9023L326.667 86.5537C325.624 87.6958 324.389 88.5355 322.951 89.081L323.66 90.951ZM328.128 87.9192C329.496 86.4891 330.312 84.673 330.61 82.5276L328.629 82.2524C328.38 84.043 327.72 85.4522 326.683 86.5368L328.128 87.9192ZM330.619 82.39C330.619 82.3903 330.619 82.3995 330.617 82.4161C330.615 82.4328 330.61 82.4586 330.599 82.491C330.576 82.5592 330.531 82.6469 330.449 82.7281C330.368 82.8093 330.281 82.8547 330.212 82.8774C330.18 82.8882 330.154 82.8933 330.137 82.8956C330.121 82.898 330.112 82.898 330.111 82.898V80.898C329.793 80.898 329.371 80.9782 329.035 81.3139C328.7 81.6496 328.619 82.0719 328.619 82.39H330.619ZM330.111 82.898C330.111 82.898 330.102 82.898 330.085 82.8956C330.069 82.8933 330.043 82.8882 330.01 82.8774C329.942 82.8547 329.854 82.8093 329.773 82.7281C329.692 82.6469 329.647 82.5592 329.624 82.491C329.613 82.4586 329.608 82.4328 329.606 82.4161C329.603 82.3995 329.603 82.3903 329.603 82.39H331.603C331.603 82.0719 331.523 81.6496 331.188 81.3139C330.852 80.9782 330.43 80.898 330.111 80.898V82.898ZM329.603 82.39V83.456H331.603V82.39H329.603ZM329.603 83.456C329.603 85.6577 330.317 87.5178 331.798 88.9346L333.181 87.4894C332.147 86.5009 331.603 85.1903 331.603 83.456H329.603ZM331.798 88.9346C333.249 90.3225 335.03 91.016 337.081 91.016V89.016C335.524 89.016 334.244 88.5069 333.181 87.4894L331.798 88.9346ZM337.081 91.016H343.313V89.016H337.081V91.016ZM343.313 91.016C345.438 91.016 347.259 90.2537 348.709 88.7399L347.265 87.3561C346.201 88.4663 344.906 89.016 343.313 89.016V91.016ZM348.709 88.7399C350.161 87.2255 350.873 85.3304 350.873 83.128H348.873C348.873 84.8616 348.329 86.2465 347.265 87.3561L348.709 88.7399ZM350.873 83.128V35.158H348.873V83.128H350.873ZM350.873 35.158C350.873 32.9764 350.083 31.083 348.531 29.5309L347.116 30.9451C348.298 32.1264 348.873 33.5129 348.873 35.158H350.873ZM348.545 29.5455C347.01 27.9466 344.953 27.188 342.493 27.188V29.188C344.516 29.188 346.013 29.7961 347.102 30.9305L348.545 29.5455ZM342.493 27.188H338.065V29.188H342.493V27.188ZM338.065 27.188C335.651 27.188 333.608 27.9514 332.028 29.5309L333.443 30.9451C334.596 29.7912 336.106 29.188 338.065 29.188V27.188ZM332.014 29.5455C330.521 31.1004 329.767 32.9894 329.767 35.158H331.767C331.767 33.5 332.326 32.1089 333.457 30.9305L332.014 29.5455ZM329.767 35.158V45.162H331.767V35.158H329.767ZM329.767 45.162C329.767 45.0917 329.797 44.8738 330.004 44.7013C330.176 44.5579 330.325 44.572 330.275 44.572V46.572C330.554 46.572 330.948 46.5178 331.285 46.2377C331.656 45.9285 331.767 45.5056 331.767 45.162H329.767ZM330.275 44.572C330.226 44.572 330.374 44.5579 330.547 44.7013C330.754 44.8738 330.783 45.0917 330.783 45.162H328.783C328.783 45.5056 328.895 45.9285 329.266 46.2377C329.602 46.5178 329.997 46.572 330.275 46.572V44.572ZM330.783 45.162V35.158H328.783V45.162H330.783ZM330.783 35.158C330.783 33.2221 331.427 31.6146 332.717 30.2761L331.278 28.8879C329.616 30.6107 328.783 32.7206 328.783 35.158H330.783ZM332.717 30.2766C334.032 28.9146 335.78 28.204 338.065 28.204V26.204C335.321 26.204 333.024 27.0787 331.278 28.8874L332.717 30.2766ZM338.065 28.204H342.493V26.204H338.065V28.204ZM342.493 28.204C344.841 28.204 346.578 28.919 347.829 30.2634L349.293 28.9006C347.593 27.0743 345.284 26.204 342.493 26.204V28.204ZM347.842 30.2766C349.199 31.6825 349.857 33.2947 349.857 35.158H351.857C351.857 32.7573 350.985 30.6522 349.281 28.8874L347.842 30.2766ZM349.857 35.158V83.128H351.857V35.158H349.857ZM349.857 83.128C349.857 85.0753 349.234 86.6872 347.993 88.0236L349.458 89.3845C351.06 87.6595 351.857 85.5541 351.857 83.128H349.857ZM347.979 88.038C346.821 89.3351 345.299 90 343.313 90V92C345.81 92 347.896 91.1342 349.471 89.37L347.979 88.038ZM343.313 90H337.081V92H343.313V90ZM337.081 90C335.497 90 334.134 89.526 332.95 88.5791L331.701 90.1409C333.25 91.3807 335.058 92 337.081 92V90ZM332.966 88.5918C331.84 87.6539 331.102 86.4097 330.762 84.8065L328.805 85.2215C329.23 87.2263 330.187 88.8794 331.685 90.1282L332.966 88.5918ZM328.844 84.6723C328.055 86.8411 326.673 88.3868 324.671 89.3632L325.548 91.1608C328.029 89.9505 329.763 87.9976 330.723 85.3557L328.844 84.6723ZM324.689 89.3547C322.562 90.3402 320.491 90.82 318.467 90.82V92.82C320.817 92.82 323.174 92.2611 325.53 91.1693L324.689 89.3547ZM367.095 89.196L366.6 90.0652L366.609 90.0702L366.618 90.075L367.095 89.196ZM359.469 81.898L358.616 82.4213L358.621 82.428L359.469 81.898ZM359.469 60.086L360.317 60.616L359.469 60.086ZM367.095 52.87L367.578 53.7456L367.583 53.7428L367.095 52.87ZM389.071 52.87L388.576 53.7392L388.585 53.7442L388.594 53.749L389.071 52.87ZM396.779 60.086L397.627 59.556L396.779 60.086ZM396.779 81.898L397.627 82.428L397.631 82.4213L396.779 81.898ZM389.071 89.196L389.554 90.0716L389.559 90.0688L389.071 89.196ZM360.289 81.406L359.435 81.9275L359.44 81.9346L360.289 81.406ZM367.587 88.294L367.102 89.1689L367.587 88.294ZM388.661 88.294L389.145 89.1689L388.661 88.294ZM395.959 81.406L396.808 81.9346L396.812 81.9275L395.959 81.406ZM395.959 60.578L395.105 61.0995L395.11 61.1066L395.959 60.578ZM388.661 53.69L388.176 54.565L388.188 54.5715L388.661 53.69ZM367.587 53.69L368.059 54.5716L368.071 54.5649L367.587 53.69ZM360.289 60.578L361.138 61.1066L361.142 61.0994L360.289 60.578ZM377.837 90.82C374.055 90.82 370.64 89.9812 367.571 88.317L366.618 90.075C370 91.9095 373.747 92.82 377.837 92.82V90.82ZM367.589 88.3268C364.561 86.6039 362.141 84.2872 360.317 81.368L358.621 82.428C360.623 85.6315 363.287 88.1801 366.6 90.0652L367.589 88.3268ZM360.321 81.3747C358.509 78.4237 357.599 75.1349 357.599 71.484H355.599C355.599 75.4864 356.602 79.1403 358.617 82.4213L360.321 81.3747ZM357.599 71.484V70.664H355.599V71.484H357.599ZM357.599 70.664C357.599 66.8403 358.513 63.5019 360.317 60.616L358.621 59.556C356.598 62.7927 355.599 66.5063 355.599 70.664H357.599ZM360.317 60.616C362.139 57.6995 364.556 55.4129 367.578 53.7456L366.612 51.9944C363.292 53.8257 360.625 56.3498 358.621 59.556L360.317 60.616ZM367.583 53.7428C370.649 52.0276 374.06 51.164 377.837 51.164V49.164C373.741 49.164 369.991 50.1044 366.607 51.9972L367.583 53.7428ZM377.837 51.164H378.329V49.164H377.837V51.164ZM378.329 51.164C382.163 51.164 385.57 52.0288 388.576 53.7392L389.565 52.0008C386.23 50.1032 382.476 49.164 378.329 49.164V51.164ZM388.594 53.749C391.67 55.4174 394.11 57.7036 395.931 60.616L397.627 59.556C395.62 56.3457 392.922 53.8212 389.547 51.991L388.594 53.749ZM395.931 60.616C397.734 63.5019 398.649 66.8403 398.649 70.664H400.649C400.649 66.5063 399.65 62.7927 397.627 59.556L395.931 60.616ZM398.649 70.664V71.484H400.649V70.664H398.649ZM398.649 71.484C398.649 75.1349 397.739 78.4237 395.927 81.3747L397.631 82.4213C399.645 79.1403 400.649 75.4864 400.649 71.484H398.649ZM395.931 81.368C394.109 84.2831 391.665 86.5994 388.583 88.3232L389.559 90.0688C392.927 88.1846 395.622 85.6355 397.627 82.428L395.931 81.368ZM388.588 88.3204C385.58 89.98 382.168 90.82 378.329 90.82V92.82C382.471 92.82 386.22 91.9106 389.554 90.0716L388.588 88.3204ZM378.329 90.82H377.837V92.82H378.329V90.82ZM356.583 71.484C356.583 75.3194 357.53 78.8091 359.435 81.9275L361.142 80.8846C359.44 78.0989 358.583 74.9739 358.583 71.484H356.583ZM359.44 81.9346C361.336 84.9803 363.896 87.3939 367.102 89.1689L368.071 87.4191C365.155 85.8048 362.849 83.6264 361.138 80.8774L359.44 81.9346ZM367.102 89.1689C370.323 90.952 373.909 91.836 377.837 91.836V89.836C374.22 89.836 370.973 89.0254 368.071 87.4191L367.102 89.1689ZM377.837 91.836H378.329V89.836H377.837V91.836ZM378.329 91.836C382.309 91.836 385.922 90.9531 389.145 89.1689L388.176 87.4191C385.277 89.0242 382.002 89.836 378.329 89.836V91.836ZM389.145 89.1689C392.351 87.3939 394.911 84.9803 396.808 81.9346L395.11 80.8774C393.398 83.6264 391.093 85.8048 388.176 87.4191L389.145 89.1689ZM396.812 81.9275C398.718 78.8091 399.665 75.3194 399.665 71.484H397.665C397.665 74.9739 396.808 78.0989 395.105 80.8846L396.812 81.9275ZM399.665 71.484V70.664H397.665V71.484H399.665ZM399.665 70.664C399.665 66.6738 398.722 63.1241 396.808 60.0494L395.11 61.1066C396.803 63.8266 397.665 67.0009 397.665 70.664H399.665ZM396.812 60.0565C394.915 56.9522 392.35 54.5322 389.133 52.8085L388.188 54.5715C391.094 56.1278 393.395 58.2998 395.105 61.0994L396.812 60.0565ZM389.145 52.8151C385.922 51.0308 382.309 50.148 378.329 50.148V52.148C382.002 52.148 385.277 52.9598 388.176 54.5649L389.145 52.8151ZM378.329 50.148H377.837V52.148H378.329V50.148ZM377.837 50.148C373.909 50.148 370.323 51.032 367.102 52.8151L368.071 54.5649C370.973 52.9586 374.22 52.148 377.837 52.148V50.148ZM367.114 52.8085C363.897 54.5322 361.333 56.9522 359.435 60.0565L361.142 61.0994C362.853 58.2998 365.154 56.1278 368.059 54.5715L367.114 52.8085ZM359.44 60.0494C357.525 63.1241 356.583 66.6738 356.583 70.664H358.583C358.583 67.0009 359.444 63.8266 361.138 61.1066L359.44 60.0494ZM356.583 70.664V71.484H358.583V70.664H356.583ZM423.271 91.82L423.3 92.8196L423.301 92.8195L423.271 91.82ZM417.859 90.426L418.361 89.5612L417.859 90.426ZM413.923 85.67L413.002 86.0583L413.003 86.0611L413.923 85.67ZM404.247 62.71L403.323 63.093L403.326 63.0984L404.247 62.71ZM404.247 56.068L403.331 55.666L403.327 55.6769L404.247 56.068ZM409.003 51.394L409.374 52.3225L409.381 52.3198L409.388 52.3171L409.003 51.394ZM409.987 50.984L409.606 50.0593L409.602 50.0609L409.987 50.984ZM417.531 50.82L417.111 51.7273L417.12 51.7316L417.129 51.7356L417.531 50.82ZM422.205 55.412L421.283 55.8001L421.288 55.8107L422.205 55.412ZM423.025 57.298L422.108 57.6967L423.209 60.2292L423.985 57.5789L423.025 57.298ZM426.469 52.05L425.873 51.2469L425.867 51.2516L425.861 51.2564L426.469 52.05ZM436.719 51.148L436.185 51.9935L436.201 52.0038L436.218 52.0134L436.719 51.148ZM439.507 53.69L440.339 53.1353L440.324 53.1122L440.307 53.09L439.507 53.69ZM439.589 54.264L440.538 54.5802L440.55 54.5438L440.559 54.5065L439.589 54.264ZM438.687 54.264L437.839 54.794L437.899 54.8906L437.98 54.9711L438.687 54.264ZM436.473 52.05L437.016 51.2104L436.473 52.05ZM426.797 53.034L426.149 52.2728L426.142 52.2788L426.135 52.285L426.797 53.034ZM423.681 58.364L422.72 58.0893L422.704 58.1437L422.695 58.1996L423.681 58.364ZM422.451 58.446L423.38 58.0746L423.374 58.0614L423.369 58.0484L422.451 58.446ZM421.385 55.986L420.46 56.3646L420.463 56.3742L420.468 56.3836L421.385 55.986ZM419.007 52.87L418.363 53.6349L418.373 53.643L418.382 53.6509L419.007 52.87ZM415.235 51.148L415.046 52.13L415.053 52.1313L415.235 51.148ZM410.397 51.886L410.782 52.8091L410.788 52.8066L410.397 51.886ZM409.413 52.296L409.028 51.3729L409.413 52.296ZM405.149 56.478L404.235 56.0719L404.23 56.0826L404.226 56.0934L405.149 56.478ZM405.149 62.382L404.226 62.7666L404.228 62.7704L405.149 62.382ZM414.825 85.342L413.904 85.7304L413.906 85.7359L414.825 85.342ZM418.269 89.606L417.736 90.4522L417.754 90.4636L417.773 90.4742L418.269 89.606ZM423.271 90.836L423.301 91.8355L423.304 91.8354L423.271 90.836ZM428.191 89.442L427.72 88.5596L428.191 89.442ZM431.553 85.588L430.625 85.2166L430.617 85.235L430.611 85.2536L431.553 85.588ZM432.373 85.342L431.479 85.7892L431.551 85.9344L431.666 86.0491L432.373 85.342ZM432.537 85.588L433.458 85.1974L433.445 85.1687L433.432 85.1408L432.537 85.588ZM435.981 89.606L435.485 90.4742L435.503 90.4846L435.522 90.4942L435.981 89.606ZM445.985 89.524L446.481 90.3922L446.493 90.3857L446.504 90.3788L445.985 89.524ZM449.511 85.178L448.589 84.791L448.588 84.7934L449.511 85.178ZM458.941 62.71L459.863 63.097L459.864 63.0946L458.941 62.71ZM459.023 56.806L458.083 57.1456L458.087 57.1571L458.091 57.1684L459.023 56.806ZM454.923 52.542L454.517 53.4559L454.526 53.4599L454.923 52.542ZM453.447 51.886L453.853 50.9722L453.848 50.9698L453.447 51.886ZM447.789 51.476L447.553 50.5043L447.547 50.5059L447.789 51.476ZM443.115 55.658L442.221 55.2108L443.115 55.658ZM441.147 59.594L442.042 60.0412V60.0412L441.147 59.594ZM440.245 59.184L439.354 58.7295L439.342 58.7534L439.331 58.7779L440.245 59.184ZM442.295 55.166L441.405 54.7109L441.404 54.7115L442.295 55.166ZM447.379 50.574L447.651 51.5364L447.662 51.5332L447.673 51.5298L447.379 50.574ZM453.775 50.984L453.375 51.9008L453.387 51.9056L453.775 50.984ZM455.333 51.64L455.723 50.719L455.721 50.7184L455.333 51.64ZM458.777 54.428L457.956 54.9991L457.97 55.0196L457.986 55.0394L458.777 54.428ZM460.499 58.528L459.509 58.6694L460.499 58.528ZM459.843 63.038L458.929 62.6319L458.925 62.6414L458.921 62.651L459.843 63.038ZM450.413 85.506L449.491 85.119L449.489 85.123L450.413 85.506ZM446.395 90.344L445.905 89.4723L445.893 89.4792L446.395 90.344ZM440.983 91.82L440.951 92.8195L440.967 92.82H440.983V91.82ZM435.817 90.508L435.393 91.4135L435.817 90.508ZM432.045 86.9L432.946 86.4652L432.061 84.6324L431.151 86.4528L432.045 86.9ZM428.437 90.508L428.884 91.4024L428.896 91.3965L428.908 91.3904L428.437 90.508ZM423.243 90.8204C421.52 90.8696 419.899 90.4541 418.361 89.5612L417.357 91.2908C419.208 92.3659 421.196 92.8797 423.3 92.8196L423.243 90.8204ZM418.361 89.5612C416.89 88.7072 415.707 87.3099 414.843 85.2789L413.003 86.0611C413.998 88.4034 415.438 90.1768 417.357 91.2908L418.361 89.5612ZM414.845 85.2816L405.169 62.3216L403.326 63.0984L413.002 86.0583L414.845 85.2816ZM405.171 62.327C404.342 60.3278 404.346 58.3928 405.167 56.4591L403.327 55.6769C402.29 58.1165 402.294 60.6096 403.323 63.093L405.171 62.327ZM405.163 56.47C406.046 54.4582 407.442 53.0956 409.374 52.3225L408.632 50.4655C406.191 51.4417 404.416 53.1951 403.331 55.666L405.163 56.47ZM409.388 52.3171L410.372 51.9071L409.602 50.0609L408.618 50.4709L409.388 52.3171ZM410.368 51.9087C412.959 50.8416 415.177 50.8311 417.111 51.7273L417.952 49.9127C415.403 48.7316 412.591 48.8304 409.606 50.0593L410.368 51.9087ZM417.129 51.7356C419.158 52.6264 420.517 53.9799 421.283 55.8001L423.127 55.0239C422.144 52.6894 420.387 50.9816 417.933 49.9044L417.129 51.7356ZM421.288 55.8107L422.108 57.6967L423.942 56.8993L423.122 55.0133L421.288 55.8107ZM423.985 57.5789C424.589 55.5137 425.628 53.9552 427.078 52.8436L425.861 51.2564C424.031 52.6595 422.773 54.5996 422.065 57.0171L423.985 57.5789ZM427.065 52.8531C428.595 51.7177 430.247 51.164 432.045 51.164V49.164C429.798 49.164 427.732 49.8676 425.873 51.2469L427.065 52.8531ZM432.045 51.164H432.701V49.164H432.045V51.164ZM432.701 51.164C434.214 51.164 435.351 51.467 436.185 51.9935L437.253 50.3025C436.009 49.517 434.468 49.164 432.701 49.164V51.164ZM436.218 52.0134C437.125 52.5386 437.957 53.2895 438.707 54.29L440.307 53.09C439.417 51.9038 438.39 50.9601 437.22 50.2826L436.218 52.0134ZM438.675 54.2447C438.649 54.205 438.628 54.1531 438.62 54.0979C438.612 54.0461 438.62 54.0171 438.619 54.0215L440.559 54.5065C440.671 54.0578 440.628 53.5684 440.339 53.1353L438.675 54.2447ZM438.64 53.9478C438.682 53.824 438.777 53.6836 438.931 53.591C439.066 53.5103 439.172 53.51 439.179 53.51V55.51C439.405 55.51 439.689 55.4687 439.96 55.306C440.251 55.1314 440.442 54.868 440.538 54.5802L438.64 53.9478ZM439.179 53.51C439.27 53.51 439.34 53.5339 439.38 53.5541C439.416 53.5719 439.419 53.5821 439.394 53.5569L437.98 54.9711C438.253 55.2441 438.656 55.51 439.179 55.51V53.51ZM439.535 53.734C438.905 52.7261 438.06 51.8854 437.016 51.2104L435.93 52.8896C436.745 53.4172 437.376 54.0525 437.839 54.794L439.535 53.734ZM437.016 51.2104C435.869 50.4683 434.4 50.148 432.701 50.148V52.148C434.173 52.148 435.218 52.429 435.93 52.8896L437.016 51.2104ZM432.701 50.148H432.045V52.148H432.701V50.148ZM432.045 50.148C429.796 50.148 427.814 50.8542 426.149 52.2728L427.446 53.7952C428.732 52.6991 430.249 52.148 432.045 52.148V50.148ZM426.135 52.285C424.538 53.6977 423.414 55.6571 422.72 58.0893L424.643 58.6387C425.26 56.4789 426.214 54.885 427.46 53.783L426.135 52.285ZM422.695 58.1996C422.693 58.2068 422.713 58.0875 422.846 57.9737C422.98 57.8585 423.106 57.856 423.107 57.856V59.856C423.436 59.856 423.822 59.7715 424.147 59.4923C424.471 59.2145 424.614 58.8492 424.667 58.5284L422.695 58.1996ZM423.107 57.856C423.08 57.856 423.14 57.8508 423.227 57.9055C423.323 57.9652 423.367 58.0432 423.38 58.0746L421.523 58.8174C421.645 59.1221 421.853 59.4051 422.167 59.6015C422.473 59.7929 422.806 59.856 423.107 59.856V57.856ZM423.369 58.0484L422.303 55.5884L420.468 56.3836L421.534 58.8436L423.369 58.0484ZM422.311 55.6074C421.749 54.2351 420.847 53.0616 419.632 52.0891L418.382 53.6509C419.353 54.4277 420.037 55.3316 420.46 56.3646L422.311 55.6074ZM419.651 52.1051C418.466 51.1074 417.045 50.4662 415.417 50.1647L415.053 52.1313C416.377 52.3765 417.47 52.8833 418.363 53.6349L419.651 52.1051ZM415.424 50.166C413.75 49.844 411.93 50.1493 410.007 50.9654L410.788 52.8066C412.472 52.092 413.878 51.9053 415.046 52.13L415.424 50.166ZM410.012 50.9629L409.028 51.3729L409.798 53.2191L410.782 52.8091L410.012 50.9629ZM409.028 51.3729C406.822 52.2924 405.213 53.8729 404.235 56.0719L406.063 56.8841C406.835 55.1471 408.068 53.9396 409.798 53.2191L409.028 51.3729ZM404.226 56.0934C403.303 58.3075 403.303 60.5525 404.226 62.7666L406.072 61.9974C405.355 60.2755 405.355 58.5845 406.072 56.8626L404.226 56.0934ZM404.228 62.7704L413.904 85.7304L415.747 84.9537L406.071 61.9936L404.228 62.7704ZM413.906 85.7359C414.79 87.7989 416.058 89.3953 417.736 90.4522L418.802 88.7598C417.529 87.9581 416.5 86.7118 415.744 84.9481L413.906 85.7359ZM417.773 90.4742C419.468 91.4426 421.318 91.8957 423.301 91.8355L423.241 89.8365C421.616 89.8857 420.132 89.5187 418.765 88.7378L417.773 90.4742ZM423.304 91.8354C425.116 91.775 426.905 91.2614 428.662 90.3244L427.72 88.5596C426.197 89.372 424.706 89.7876 423.238 89.8366L423.304 91.8354ZM428.662 90.3244C430.514 89.3366 431.808 87.8608 432.496 85.9224L430.611 85.2536C430.096 86.7046 429.149 87.798 427.72 88.5596L428.662 90.3244ZM432.482 85.9594C432.497 85.9214 432.483 85.9781 432.398 86.0487C432.354 86.0859 432.296 86.1209 432.228 86.1454C432.16 86.1697 432.096 86.178 432.045 86.178V84.178C431.708 84.178 431.384 84.2903 431.118 84.5123C430.869 84.7195 430.719 84.9813 430.625 85.2166L432.482 85.9594ZM432.045 86.178C432.022 86.178 431.926 86.1751 431.803 86.1134C431.664 86.044 431.548 85.9281 431.479 85.7892L433.268 84.8948C432.985 84.3299 432.437 84.178 432.045 84.178V86.178ZM431.666 86.0491C431.65 86.0336 431.64 86.0209 431.633 86.0128C431.627 86.0047 431.623 85.9998 431.623 85.9992C431.623 85.9985 431.624 86.001 431.628 86.0073C431.631 86.0135 431.636 86.0227 431.643 86.0352L433.432 85.1408C433.353 84.9844 433.242 84.7965 433.08 84.6349L431.666 86.0491ZM431.616 85.9785C432.457 87.9602 433.743 89.4789 435.485 90.4742L436.477 88.7378C435.158 87.9837 434.148 86.8238 433.458 85.1974L431.616 85.9785ZM435.522 90.4942C437.246 91.3861 439.071 91.836 440.983 91.836V89.836C439.397 89.836 437.887 89.4659 436.44 88.7178L435.522 90.4942ZM440.983 91.836C442.957 91.836 444.796 91.3553 446.481 90.3922L445.489 88.6558C444.113 89.442 442.617 89.836 440.983 89.836V91.836ZM446.504 90.3788C448.248 89.3198 449.549 87.6879 450.434 85.5626L448.588 84.7934C447.834 86.6041 446.783 87.8696 445.466 88.6692L446.504 90.3788ZM450.433 85.565L459.863 63.097L458.019 62.323L448.589 84.791L450.433 85.565ZM459.864 63.0946C460.782 60.8907 460.815 58.655 459.955 56.4436L458.091 57.1684C458.762 58.893 458.74 60.5933 458.018 62.3254L459.864 63.0946ZM459.964 56.4664C459.154 54.2238 457.581 52.6018 455.32 51.6241L454.526 53.4599C456.311 54.2316 457.471 55.4522 458.083 57.1456L459.964 56.4664ZM455.329 51.6282L453.853 50.9722L453.041 52.7998L454.517 53.4558L455.329 51.6282ZM453.848 50.9698C451.88 50.1087 449.768 49.9655 447.553 50.5043L448.025 52.4477C449.856 52.0025 451.516 52.1326 453.046 52.8022L453.848 50.9698ZM447.547 50.5059C445.223 51.0867 443.462 52.7284 442.221 55.2108L444.009 56.1052C445.064 53.9955 446.419 52.8493 448.032 52.4461L447.547 50.5059ZM442.221 55.2108L440.253 59.1468L442.042 60.0412L444.009 56.1052L442.221 55.2108ZM440.253 59.1468C440.239 59.1747 440.258 59.1233 440.338 59.0591C440.434 58.9822 440.576 58.922 440.737 58.922V60.922C441.451 60.922 441.856 60.4126 442.042 60.0412L440.253 59.1468ZM440.737 58.922C440.666 58.922 440.674 58.9127 440.726 58.9309C440.787 58.952 440.926 59.0182 441.036 59.1828C441.147 59.3491 441.155 59.5079 441.15 59.5807C441.146 59.6427 441.132 59.6515 441.159 59.5901L439.331 58.7779C439.195 59.0852 438.986 59.7128 439.372 60.2922C439.752 60.8622 440.403 60.922 440.737 60.922V58.922ZM441.136 59.6385L443.186 55.6205L441.404 54.7115L439.354 58.7295L441.136 59.6385ZM443.186 55.6211C444.35 53.3434 445.85 52.0443 447.651 51.5364L447.108 49.6115C444.644 50.3064 442.755 52.0685 441.405 54.7109L443.186 55.6211ZM447.673 51.5298C449.566 50.9473 451.452 51.0624 453.375 51.9007L454.175 50.0673C451.834 49.0469 449.456 48.8887 447.085 49.6182L447.673 51.5298ZM453.387 51.9056L454.945 52.5616L455.721 50.7184L454.163 50.0624L453.387 51.9056ZM454.943 52.561C456.192 53.0893 457.19 53.898 457.956 54.9991L459.598 53.8569C458.615 52.4433 457.317 51.3933 455.723 50.719L454.943 52.561ZM457.986 55.0394C458.807 56.1028 459.314 57.3069 459.509 58.6694L461.489 58.3866C461.246 56.6878 460.605 55.1585 459.568 53.8166L457.986 55.0394ZM459.509 58.6694C459.7 60.0055 459.513 61.3196 458.929 62.6319L460.757 63.4441C461.486 61.8044 461.736 60.1118 461.489 58.3866L459.509 58.6694ZM458.921 62.651L449.491 85.119L451.335 85.893L460.765 63.425L458.921 62.651ZM449.489 85.123C448.627 87.2021 447.421 88.6197 445.905 89.4724L446.885 91.2156C448.868 90.1003 450.34 88.2926 451.337 85.889L449.489 85.123ZM445.893 89.4792C444.347 90.3769 442.716 90.82 440.983 90.82V92.82C443.077 92.82 445.054 92.2791 446.897 91.2088L445.893 89.4792ZM441.015 90.8205C439.474 90.7708 437.885 90.3729 436.242 89.6025L435.393 91.4135C437.248 92.2831 439.103 92.7599 440.951 92.8195L441.015 90.8205ZM436.242 89.6025C434.679 88.8699 433.601 87.8231 432.946 86.4652L431.145 87.3347C432.02 89.1476 433.457 90.5061 435.393 91.4135L436.242 89.6025ZM431.151 86.4528C430.486 87.7818 429.44 88.8397 427.966 89.6256L428.908 91.3904C430.714 90.4269 432.073 89.0795 432.94 87.3472L431.151 86.4528ZM427.99 89.6136C426.477 90.3698 424.897 90.7703 423.241 90.8205L423.301 92.8195C425.253 92.7604 427.117 92.2862 428.884 91.4024L427.99 89.6136Z" fill="url(#paint1_linear_7_13)" mask="url(#path-4-outside-1_7_13)"/>
</g>
<defs>
<linearGradient id="paint0_linear_7_13" x1="113" y1="55.5" x2="475" y2="55.5" gradientUnits="userSpaceOnUse">
<stop stop-color="#92F2FF"/>
<stop offset="0.45" stop-color="#FF7EF0"/>
<stop offset="0.755" stop-color="white"/>
</linearGradient>
<linearGradient id="paint1_linear_7_13" x1="113" y1="55.5" x2="475" y2="55.5" gradientUnits="userSpaceOnUse">
<stop stop-color="#92F2FF"/>
<stop offset="0.455" stop-color="#FF7EF0"/>
<stop offset="0.735" stop-color="white"/>
</linearGradient>
<clipPath id="clip0_7_13">
<rect width="475" height="117" fill="white"/>
</clipPath>
</defs>
</svg>
