<svg width="394" height="117" viewBox="0 0 394 117" fill="none" xmlns="http://www.w3.org/2000/svg">
<g clip-path="url(#clip0_22_2)">
<path d="M39.5627 30.7196C45.6834 19.8637 61.3166 19.8637 67.4373 30.7196L94.1749 78.1419C100.189 88.8077 92.4819 102 80.2376 102H26.7624C14.5181 102 6.81148 88.8077 12.8251 78.1419L39.5627 30.7196Z" fill="#3B82F6"/>
<path d="M50.5627 24.7196C56.6834 13.8637 72.3166 13.8637 78.4373 24.7196L105.175 72.1419C111.189 82.8077 103.482 96 91.2376 96H37.7624C25.5181 96 17.8115 82.8077 23.8251 72.1419L50.5627 24.7196Z" fill="#F43F5E"/>
<path d="M61.5627 18.7196C67.6834 7.86374 83.3166 7.86374 89.4373 18.7196L116.175 66.1419C122.189 76.8077 114.482 90 102.238 90H48.7624C36.5181 90 28.8115 76.8077 34.8251 66.1419L61.5627 18.7196Z" fill="black"/>
<path d="M106.135 46.0952L96.5258 47.1435C96.2541 46.1728 95.7784 45.2604 95.099 44.4062C94.439 43.5521 93.546 42.8629 92.42 42.3388C91.2941 41.8146 89.9158 41.5526 88.2851 41.5526C86.0914 41.5526 84.2472 42.0282 82.7524 42.9794C81.277 43.9306 80.549 45.1634 80.5684 46.6776C80.549 47.9782 81.0247 49.0362 81.9953 49.8516C82.9854 50.6669 84.616 51.3366 86.8873 51.8608L94.5166 53.4915C98.7486 54.4039 101.893 55.8501 103.951 57.8303C106.028 59.8104 107.077 62.402 107.096 65.6051C107.077 68.42 106.252 70.9048 104.621 73.0597C103.01 75.1951 100.768 76.8646 97.8944 78.0682C95.0213 79.2718 91.7211 79.8736 87.9939 79.8736C82.5194 79.8736 78.1127 78.7282 74.7737 76.4375C71.4347 74.1274 69.4449 70.9145 68.8042 66.799L79.0834 65.8089C79.5493 67.8279 80.5393 69.3518 82.0535 70.3807C83.5677 71.4096 85.5381 71.924 87.9648 71.924C90.469 71.924 92.4782 71.4096 93.9925 70.3807C95.5261 69.3518 96.2929 68.0803 96.2929 66.5661C96.2929 65.2848 95.7979 64.2268 94.8078 63.392C93.8372 62.5573 92.3229 61.9167 90.2652 61.4702L82.6359 59.8686C78.3457 58.9756 75.1717 57.4711 73.1139 55.3551C71.0561 53.2197 70.037 50.5213 70.0564 47.2599C70.037 44.5033 70.7844 42.1155 72.2986 40.0966C73.8322 38.0582 75.9579 36.4858 78.6757 35.3793C81.4129 34.2533 84.5675 33.6903 88.1395 33.6903C93.3809 33.6903 97.5062 34.8066 100.515 37.0391C103.544 39.2715 105.417 42.2902 106.135 46.0952ZM126.329 52.7926V79H115.788V19.3636H126.097V41.8729H126.621C127.669 39.3492 129.29 37.3594 131.484 35.9034C133.697 34.428 136.512 33.6903 139.928 33.6903C143.034 33.6903 145.742 34.3407 148.052 35.6413C150.363 36.942 152.149 38.8445 153.41 41.3487C154.692 43.853 155.332 46.9105 155.332 50.5213V79H144.791V52.152C144.791 49.143 144.015 46.8037 142.462 45.1342C140.928 43.4453 138.773 42.6009 135.997 42.6009C134.133 42.6009 132.464 43.0085 130.989 43.8239C129.533 44.6198 128.387 45.7749 127.552 47.2891C126.737 48.8033 126.329 50.6378 126.329 52.7926ZM178.948 79.9027C176.114 79.9027 173.561 79.398 171.29 78.3885C169.038 77.3596 167.252 75.8454 165.932 73.8459C164.631 71.8464 163.981 69.3809 163.981 66.4496C163.981 63.9259 164.447 61.839 165.378 60.1889C166.31 58.5388 167.582 57.2188 169.193 56.2287C170.804 55.2386 172.619 54.4912 174.638 53.9865C176.677 53.4624 178.783 53.0838 180.957 52.8509C183.578 52.5791 185.704 52.3364 187.334 52.1229C188.965 51.8899 190.149 51.5405 190.887 51.0746C191.644 50.5892 192.023 49.8419 192.023 48.8324V48.6577C192.023 46.464 191.372 44.7654 190.072 43.5618C188.771 42.3582 186.898 41.7564 184.452 41.7564C181.87 41.7564 179.822 42.3194 178.307 43.4453C176.813 44.5713 175.803 45.901 175.279 47.4347L165.437 46.0369C166.213 43.3191 167.494 41.0478 169.28 39.223C171.066 37.3788 173.25 36.0005 175.832 35.0881C178.414 34.1562 181.268 33.6903 184.393 33.6903C186.548 33.6903 188.693 33.9427 190.829 34.4474C192.964 34.9522 194.915 35.7869 196.682 36.9517C198.448 38.0971 199.865 39.6598 200.933 41.6399C202.02 43.62 202.564 46.0952 202.564 49.0653V79H192.43V72.8558H192.081C191.44 74.0982 190.538 75.263 189.373 76.3501C188.227 77.4179 186.781 78.2817 185.034 78.9418C183.306 79.5824 181.278 79.9027 178.948 79.9027ZM181.685 72.157C183.801 72.157 185.636 71.7396 187.189 70.9048C188.742 70.0507 189.936 68.9247 190.771 67.527C191.625 66.1293 192.052 64.6054 192.052 62.9553V57.6847C191.722 57.9564 191.159 58.2088 190.363 58.4418C189.586 58.6747 188.713 58.8786 187.742 59.0533C186.771 59.228 185.811 59.3833 184.859 59.5192C183.908 59.6551 183.083 59.7715 182.384 59.8686C180.812 60.0821 179.404 60.4316 178.162 60.9169C176.919 61.4022 175.939 62.0817 175.221 62.9553C174.503 63.8094 174.143 64.916 174.143 66.2749C174.143 68.2161 174.852 69.6818 176.269 70.6719C177.686 71.6619 179.492 72.157 181.685 72.157ZM229.761 79.7862C226.248 79.7862 223.103 78.8835 220.327 77.0781C217.551 75.2727 215.357 72.652 213.746 69.2159C212.134 65.7798 211.329 61.6061 211.329 56.6946C211.329 51.7249 212.144 47.5317 213.775 44.1151C215.425 40.679 217.648 38.0874 220.443 36.3402C223.239 34.5736 226.354 33.6903 229.79 33.6903C232.411 33.6903 234.566 34.1368 236.255 35.0298C237.944 35.9034 239.283 36.9614 240.273 38.2038C241.263 39.4268 242.03 40.5819 242.574 41.669H243.011V19.3636H253.581V79H243.214V71.9531H242.574C242.03 73.0402 241.244 74.1953 240.215 75.4183C239.186 76.6219 237.827 77.6508 236.138 78.505C234.449 79.3591 232.324 79.7862 229.761 79.7862ZM232.702 71.1378C234.935 71.1378 236.837 70.536 238.41 69.3324C239.982 68.1094 241.176 66.4107 241.991 64.2365C242.807 62.0623 243.214 59.5289 243.214 56.6364C243.214 53.7438 242.807 51.2299 241.991 49.0945C241.195 46.959 240.011 45.2992 238.439 44.1151C236.886 42.9309 234.974 42.3388 232.702 42.3388C230.353 42.3388 228.393 42.9503 226.82 44.1733C225.248 45.3963 224.064 47.0852 223.268 49.2401C222.472 51.3949 222.074 53.8603 222.074 56.6364C222.074 59.4318 222.472 61.9264 223.268 64.12C224.083 66.2943 225.277 68.0123 226.849 69.2741C228.441 70.5166 230.392 71.1378 232.702 71.1378ZM284.324 79.8736C279.956 79.8736 276.17 78.9126 272.967 76.9908C269.764 75.0689 267.279 72.3802 265.513 68.9247C263.765 65.4692 262.892 61.4313 262.892 56.8111C262.892 52.1908 263.765 48.1432 265.513 44.6683C267.279 41.1934 269.764 38.495 272.967 36.5732C276.17 34.6513 279.956 33.6903 284.324 33.6903C288.691 33.6903 292.477 34.6513 295.68 36.5732C298.883 38.495 301.358 41.1934 303.106 44.6683C304.872 48.1432 305.755 52.1908 305.755 56.8111C305.755 61.4313 304.872 65.4692 303.106 68.9247C301.358 72.3802 298.883 75.0689 295.68 76.9908C292.477 78.9126 288.691 79.8736 284.324 79.8736ZM284.382 71.429C286.75 71.429 288.73 70.7786 290.322 69.478C291.914 68.1579 293.098 66.3913 293.875 64.1783C294.671 61.9652 295.069 59.4998 295.069 56.782C295.069 54.0447 294.671 51.5696 293.875 49.3565C293.098 47.1241 291.914 45.3478 290.322 44.0277C288.73 42.7076 286.75 42.0476 284.382 42.0476C281.955 42.0476 279.936 42.7076 278.325 44.0277C276.733 45.3478 275.539 47.1241 274.743 49.3565C273.967 51.5696 273.579 54.0447 273.579 56.782C273.579 59.4998 273.967 61.9652 274.743 64.1783C275.539 66.3913 276.733 68.1579 278.325 69.478C279.936 70.7786 281.955 71.429 284.382 71.429ZM322.652 79L310.014 34.2727H320.759L328.621 65.7216H329.029L337.066 34.2727H347.695L355.731 65.5469H356.168L363.914 34.2727H374.688L362.021 79H351.043L342.657 48.7741H342.045L333.659 79H322.652Z" fill="white"/>
</g>
<defs>
<clipPath id="clip0_22_2">
<rect width="394" height="117" fill="white"/>
</clipPath>
</defs>
</svg>
